<?xml version="1.0" encoding="utf-8"?>
<!-- Generator: Adobe Illustrator 23.0.6, SVG Export Plug-In . SVG Version: 6.00 Build 0)  -->
<svg version="1.1" xmlns="http://www.w3.org/2000/svg" xmlns:xlink="http://www.w3.org/1999/xlink" x="0px" y="0px"
	 viewBox="0 0 680.68 609.64" style="enable-background:new 0 0 680.68 609.64;" xml:space="preserve">
<style type="text/css">
	.st0{opacity:0.37;fill:#D9E6E8;}
	.st1{clip-path:url(#SVGID_2_);}
	.st2{fill:#FFFFFF;}
	.st3{fill:#DBCDB5;}
	.st4{fill:#B2D3E5;}
	.st5{fill:#A6C726;}
	.st6{fill:#6E8EA1;}
	.st7{fill:#D8E9F3;}
	.st8{fill:#374750;}
	.st9{fill:#64121B;}
	.st10{fill:#262451;}
	.st11{fill:#821E33;}
	.st12{fill:#E0A596;}
	.st13{fill:#96C3DC;}
	.st14{opacity:0.6;fill:#F08371;enable-background:new    ;}
	.st15{opacity:0.6;fill:#2F1B42;enable-background:new    ;}
	.st16{opacity:0.6;fill:#A53447;enable-background:new    ;}
	.st17{opacity:0.6;fill:#902032;enable-background:new    ;}
	.st18{fill:#82AFC8;}
	.st19{clip-path:url(#SVGID_4_);}
	.st20{fill:#678596;}
	.st21{fill:none;stroke:#FFFFFF;stroke-width:4;stroke-miterlimit:10;}
	.st22{fill:none;stroke:#B2D3E5;stroke-width:3;}
	.st23{clip-path:url(#SVGID_6_);}
	.st24{fill:#61808F;}
	.st25{fill:#64121A;}
	.st26{opacity:0.6;fill:#F08371;}
	.st27{opacity:0.6;fill:#2F1B43;}
	.st28{opacity:0.6;fill:#A43446;}
	.st29{opacity:0.6;fill:#902032;}
	.st30{fill:#3D5663;}
	.st31{fill:#8EB6C7;}
	.st32{fill:#3C505A;}
	.st33{fill:#4F6976;}
	.st34{fill:#996663;}
	.st35{fill:#1F1430;}
	.st36{fill:#D29B8D;}
	.st37{fill:none;stroke:#823C37;stroke-width:1.5;stroke-linecap:round;stroke-miterlimit:10;}
	.st38{fill:#B0CFD6;}
	.st39{fill:#282451;}
	.st40{fill:#811E33;}
	.st41{fill:#64121C;}
	.st42{fill:#201630;}
	.st43{fill:#95C2DB;}
	.st44{fill:#81AEC7;}
	.st45{opacity:0.58;fill:#FFFFFF;}
	.st46{fill:#70ACCE;}
	.st47{fill:#ABCAD8;}
	.st48{fill:none;stroke:#263062;stroke-width:3;stroke-linecap:round;stroke-miterlimit:10;}
	.st49{fill:#C3D9E0;}
	.st50{opacity:0.64;}
	.st51{fill:none;stroke:#262451;stroke-width:3;stroke-linecap:round;stroke-miterlimit:10;}
	.st52{fill:none;stroke:#262451;stroke-width:3;stroke-linecap:round;stroke-miterlimit:10;stroke-dasharray:11.7706,11.7706;}
	.st53{fill:#EAE3C3;}
	.st54{fill:#C5D4D8;}
	.st55{fill:#BCB592;}
	.st56{fill:#8A9C9B;}
	.st57{fill:#A2BAB9;}
	.st58{fill:#E8EAEA;}
	.st59{fill:#75A6B7;}
	.st60{fill:#B3D4E1;}
	.st61{fill:#D0E4EA;}
	.st62{fill:#62818F;}
	.st63{fill:#E3F0F5;}
	.st64{fill:none;}
	.st65{fill:none;stroke:#62818F;stroke-width:6;stroke-miterlimit:10;}
</style>
<g id="Ebene_3">
</g>
<g id="Ebene_1">
	<path class="st31" d="M534.92,398.45c-45.1-9.91-30.38-16.12-30.38-52.93s-98.89-52.88-115.87,7.98
		c-16.99,60.87-55.2,33.97-73.6,75.02c-9.03,20.13-1.7,35.49,8.11,45.92c-112.35,0.16-203.02,10.72-203.02,23.72
		c0,13.11,92.04,23.73,205.57,23.73c113.53,0,205.57-10.62,205.57-23.73c0-3.08-5.15-6.03-14.42-8.73
		C579.85,478,577.71,407.85,534.92,398.45z"/>
	<path class="st13" d="M565.79,539.22c0,3.98-22.43,7.22-50.09,7.22c-27.67,0-50.09-3.23-50.09-7.22c0-3.98,22.43-7.22,50.09-7.22
		C543.36,532.01,565.79,535.24,565.79,539.22z"/>
	<path class="st31" d="M279.34,449.66c0,6.68-42.02,12.09-93.86,12.09c-51.84,0-93.86-5.42-93.86-12.09
		c0-6.68,42.02-12.1,93.86-12.1C237.32,437.56,279.34,442.98,279.34,449.66z"/>
	<g>
		<rect x="194.66" y="395.54" class="st32" width="12.39" height="104.8"/>
		<rect x="477.73" y="395.54" class="st32" width="12.39" height="104.8"/>
	</g>
	<rect x="157.46" y="328.48" class="st33" width="369.85" height="12.39"/>
	<rect x="157.46" y="310.74" class="st33" width="369.85" height="12.39"/>
	<rect x="157.46" y="293.28" class="st33" width="369.85" height="12.39"/>
	<rect x="140.31" y="392.71" class="st33" width="404.17" height="12.39"/>
	<rect x="157.46" y="375.9" class="st33" width="369.85" height="12.39"/>
	<path class="st11" d="M182.11,343.36c0,0-3.74,29.06,6.17,38.03c9.91,8.97,46.12,9.44,46.12,9.44s-13.52,46.71-16.13,55.68
		c2.57,8.97,41.73,22.65,72.4,10.38c5.19-40.58,13.21-95.31-14.16-99.56c-29.72-12.74-55.2-22.64-55.2-22.64L182.11,343.36z"/>
	<path class="st12" d="M239.23,205.99c0,0,6.15,23.93-14.62,23.46c-1.89,14.15-2.36,19.35-2.36,19.35s-8.49,0.94-11.79-3.3
		s-17.46-21.23-13.21-28.78s8.02-15.1,9.91-15.57C209.04,200.68,239.23,205.99,239.23,205.99z"/>
	<path class="st10" d="M215.17,244.08c-1.42-0.47,9.44,0,15.1,19.34c5.66,19.35,14.57,44.55,18.82,47.38
		c4.25,2.83,30.8,19.02,35.68,24.91c1.89,8.49,1.35,6.06,1.35,6.06l-6.6,10.85c0,0-16.64,0-27.43,0c-10.79,0-27.47,0.92-30.77-10.87
		c-7.08,2.83-32.09,5.19-44.35,0c-1.89-2.36-1.55-7.7-0.54-29.09c1.01-21.39,11.86-46.35,11.86-46.35l13.68-4.77L215.17,244.08z"/>
	<path class="st34" d="M235.46,183.22c0,0,16.99,27.6-13.45,37.51c1.2-3.55-1.59-7.18-4.26-8.4c-2.89-1.31-6.72-0.3-8.49,2.43
		c-1.58,2.42-3.52,12.1,7.81,10.75c4.23,17.86-5.81,37.68-21.9,45.46c-21.92,10.61-14.92-10.62-16.33-46.71
		S192.29,161.28,235.46,183.22z"/>
	<path class="st35" d="M221.31,341.75c0,0-14.51-40.69-17.69-52.73c2.12,17.34,14.65,53.65,14.65,53.65L221.31,341.75z"/>
	<path class="st35" d="M245.01,309.63c0,0-10.64-1.32-10.61,2.75C234.42,314.96,245.01,309.63,245.01,309.63z"/>
	<path class="st35" d="M246.08,311.27c0,0-7.08,1.33-6.72,4.58C239.71,319.1,246.08,311.27,246.08,311.27z"/>
	<path class="st25" d="M234.4,390.82l4.26-16.52c0,0-12.2,16.96-14.88,16C236.87,390.3,234.4,390.82,234.4,390.82z"/>
	<polygon class="st36" points="258.56,461.61 249.14,489.9 233.28,497.4 245.01,459.87 	"/>
	<path class="st10" d="M248.73,490.32c-2.42-1.36-9.32,0.47-15.45,7.08c0.94,8.97,33.03,9.44,33.5,7.08
		C267.25,502.11,248.73,490.32,248.73,490.32z"/>
	<polygon class="st12" points="229.36,455.05 218.95,500.76 234.4,493.68 245.01,459.87 	"/>
	<path class="st10" d="M234.4,493.68c-2.42-1.36-9.32,0.47-15.45,7.08c0.94,8.97,33.03,9.44,33.5,7.08
		C252.92,505.48,234.4,493.68,234.4,493.68z"/>
	<polygon class="st26" points="224.61,229.45 219.42,226.86 224.33,231.6 	"/>
	<g>
		<polygon class="st12" points="446.53,451.59 456.94,497.3 441.49,490.22 430.88,456.41 		"/>
		<path class="st10" d="M441.49,490.22c2.42-1.36,9.32,0.47,15.45,7.08c-0.94,8.97-33.03,9.44-33.5,7.08
			S441.49,490.22,441.49,490.22z"/>
		<polygon class="st12" points="381.15,451.87 386.35,497.02 370.9,489.94 365.49,451.87 		"/>
		<path class="st10" d="M370.9,489.94c2.42-1.36,9.32,0.47,15.45,7.08c-0.94,8.97-33.03,9.44-33.5,7.08
			C352.38,501.74,370.9,489.94,370.9,489.94z"/>
		<path class="st10" d="M406.73,349.77c0,0-49.54,39.09-53.08,49.86c-3.54,10.77,5.99,78.17,5.99,78.17s19.11,7.79,32.56-1.42
			c4.25-33.26,3.21-63.15,3.92-66.69s10.62-11.48,10.62-11.48s-8.91,13.6-6.58,20.68c2.33,7.08,28.52,66.53,28.52,66.53
			s18.4,1.42,26.19-10.62c-4.25-29.02-10.83-66.53-10.83-66.53c5.16-2.83,42.27-7.02,38.28-54.02
			C482.31,354.26,435.75,362.04,406.73,349.77z"/>
		<path class="st10" d="M456.63,215.14c0,0,5.66-6.8,12.03-12.81c6.37-6.02,14.15-20.88,0-32.2c-14.15-11.32-35.08,7.25-35.08,7.25
			s17.74,19.29,17.74,22.82C451.32,203.74,456.63,215.14,456.63,215.14z"/>
		<path class="st12" d="M424.43,185.34c0,0-9.91,30.43,14.86,30.43c1.42,9.91,1.42,9.91,1.42,9.91s8.49,7.85,16.99-0.68
			c-2.12-19.85-2.59-22.91-2.59-22.91s7.98-1.89,6.57-8.97c-1.42-7.08-8.53-5.02-10.01-7.32
			C449.63,186.74,435.75,189.76,424.43,185.34z"/>
		<path class="st11" d="M440.71,225.68c0,0-25.48,5.66-28.31,14.15c-2.83,8.49-15.57,44.59-15.57,44.59l-32.7-28.62
			c0,0-7.64,1.6-12.6,10.51c5.19,26.97,39.63,80.43,63.7,50.33c-8.49,17.23-12.03,29.82-8.49,33.13c3.54,3.3,73.6,19.58,80.68-1.65
			c1.42-9.2-3-13.44-3-13.44s10.41,36.04,26.69,43.83c9.2-3.54,12.39-9.24,12.39-9.24s1.06-25.86-12.39-64.45
			c-13.45-38.59-10.65-66.62-28.65-73.84c-6.08-2.44-24.77-5.97-24.77-5.97S448.02,236.29,440.71,225.68z"/>
		<path class="st25" d="M415.23,316.64c0,0,6.88-33.1,4.25-57.46c-0.47,25.48-9.98,62.85-9.98,62.85L415.23,316.64z"/>
		<path class="st25" d="M488.42,335.67c0,0-21.28-60.45-22.82-72.48c2,27.6,14.73,75.23,21.82,79.49
			C487.42,334.67,488.42,335.67,488.42,335.67z"/>
		<path class="st12" d="M522.49,370.27c0,0,15.99,4.27,15.99,8.35s-15.41,6.36-27.38-0.12
			C518.78,372.47,518.62,372.57,522.49,370.27z"/>
		<path class="st26" d="M439.29,215.77c0,0,5.66-3.54,10.97-7.08c-3.54,5.66-10.51,10.3-10.51,10.3L439.29,215.77z"/>
		<polygon class="st35" points="406.73,398.21 430.88,374.31 427.26,365.98 426.55,374.31 		"/>
		<polygon class="st35" points="396.12,409.69 386.35,403.32 391.24,409.69 386.35,412.52 395.91,412.52 		"/>
		<polygon class="st35" points="444.03,408.28 439.29,400.49 441.41,406.15 435.04,407.92 		"/>
		<path class="st13" d="M428.87,174.48c0,0-0.9-20.92,24.89-19.96c24.67,0.92,24.94,26.45,22.74,32.61
			c-3.95,1.01-16.67,0.72-16.67,0.72S441.47,175.24,428.87,174.48z"/>
		<path class="st13" d="M461.67,187.77c0,0-49.04,2.19-52.91-5.25c-3.87-7.45,14.37-7.75,20.11-8.04
			C434.61,174.19,457.24,177.74,461.67,187.77z"/>
		<path class="st18" d="M428.87,174.48c0,0,7.45,6.85,25.2,9.42c17.27,2.5-24.79,3.37-36.23-8.56L428.87,174.48z"/>
		<path class="st11" d="M458.33,222.33c0,0,5.11-0.32,7.29,6.36c-1.24,4.62-8.09,7.02-14.93,6.93c-9.62-0.12-14.94-3.58-15.75-6.95
			c-0.56-2.31,6.12-7.14,8.2-4.71C443.27,225.52,453.99,229.06,458.33,222.33z"/>
		<path class="st25" d="M438.02,231.39c0,0,6.03,6.89,15.1,4.7C462.19,233.91,443.84,247.08,438.02,231.39z"/>
		<g>
			<path class="st10" d="M329.24,226.23c-1.7-2.8,27.33-5.02,36.57-0.51C372.59,229.02,335.42,236.42,329.24,226.23z"/>
			<path class="st13" d="M330.58,225.72c11.04,4.51,22.29,4.52,34.37,0.1c5.55-2.03-0.33,21.8-8.13,24.16
				c-5.54,1.22-12.92,1.17-19.53-0.39C331.07,248.12,325.06,223.46,330.58,225.72z"/>
		</g>
		<path class="st12" d="M364.13,255.8l-5.31-6.91c0,0-3.2,0.25-7.28-1.26c-5.76-2.13-14.28-5.81-17.04-1.66
			c-4.72,7.08,19.17,17.22,19.17,17.22L364.13,255.8z"/>
	</g>
	<path class="st10" d="M304.07,328.45c6.63-3.41-2.87-4.13-8.36-4.14c-4.14-0.01-14.56,0.67-8.25,4.28
		C292.89,331.69,301.88,329.58,304.07,328.45z"/>
	<path class="st13" d="M286.13,325.86c-2.7-1.56,1.82,30.42,3.81,31.03c3.2,0.98,9.06,1.33,12.27,0c2.16-0.9,5.42-31.88,3.78-31.02
		C300.69,328.63,290.04,328.12,286.13,325.86z"/>
	<path class="st12" d="M284.8,339.82c0,0,7.67,3.82,11.11,6.98c4.21,3.87,0.32,7.97-5.49,8.08c-4.68,0.09-12.23-4.21-12.23-4.21
		L284.8,339.82z"/>
	<g id="Ebene_2">
	</g>
</g>
</svg>
