<?xml version="1.0" encoding="utf-8"?>
<!-- Generator: Adobe Illustrator 23.0.6, SVG Export Plug-In . SVG Version: 6.00 Build 0)  -->
<svg version="1.1" xmlns="http://www.w3.org/2000/svg" xmlns:xlink="http://www.w3.org/1999/xlink" x="0px" y="0px"
	 viewBox="0 0 677.47 470.46" style="enable-background:new 0 0 677.47 470.46;" xml:space="preserve">
<style type="text/css">
	.st0{opacity:0.37;fill:#D9E6E8;}
	.st1{clip-path:url(#SVGID_2_);}
	.st2{fill:#FFFFFF;}
	.st3{fill:#DBCDB5;}
	.st4{fill:#B2D3E5;}
	.st5{fill:#A6C726;}
	.st6{fill:#6E8EA1;}
	.st7{fill:#D8E9F3;}
	.st8{fill:#374750;}
	.st9{fill:#64121B;}
	.st10{fill:#262451;}
	.st11{fill:#821E33;}
	.st12{fill:#E0A596;}
	.st13{fill:#96C3DC;}
	.st14{opacity:0.6;fill:#F08371;enable-background:new    ;}
	.st15{opacity:0.6;fill:#2F1B42;enable-background:new    ;}
	.st16{opacity:0.6;fill:#A53447;enable-background:new    ;}
	.st17{opacity:0.6;fill:#902032;enable-background:new    ;}
	.st18{fill:#82AFC8;}
	.st19{clip-path:url(#SVGID_4_);}
	.st20{fill:#678596;}
	.st21{fill:none;stroke:#FFFFFF;stroke-width:4;stroke-miterlimit:10;}
	.st22{fill:none;stroke:#B2D3E5;stroke-width:3;}
	.st23{clip-path:url(#SVGID_6_);}
	.st24{fill:#61808F;}
	.st25{fill:#64121A;}
	.st26{opacity:0.6;fill:#F08371;}
	.st27{opacity:0.6;fill:#2F1B43;}
	.st28{opacity:0.6;fill:#A43446;}
	.st29{opacity:0.6;fill:#902032;}
	.st30{fill:#3D5663;}
	.st31{fill:#8EB6C7;}
	.st32{fill:#3C505A;}
	.st33{fill:#4F6976;}
	.st34{fill:#996663;}
	.st35{fill:#1F1430;}
	.st36{fill:#D29B8D;}
	.st37{fill:none;stroke:#823C37;stroke-width:1.5;stroke-linecap:round;stroke-miterlimit:10;}
	.st38{fill:#B0CFD6;}
	.st39{fill:#282451;}
	.st40{fill:#811E33;}
	.st41{fill:#64121C;}
	.st42{fill:#201630;}
	.st43{fill:#95C2DB;}
	.st44{fill:#81AEC7;}
	.st45{opacity:0.58;fill:#FFFFFF;}
	.st46{fill:#70ACCE;}
	.st47{fill:#ABCAD8;}
	.st48{fill:none;stroke:#263062;stroke-width:3;stroke-linecap:round;stroke-miterlimit:10;}
	.st49{fill:#C3D9E0;}
	.st50{opacity:0.64;}
	.st51{fill:none;stroke:#262451;stroke-width:3;stroke-linecap:round;stroke-miterlimit:10;}
	.st52{fill:none;stroke:#262451;stroke-width:3;stroke-linecap:round;stroke-miterlimit:10;stroke-dasharray:11.7706,11.7706;}
	.st53{fill:#EAE3C3;}
	.st54{fill:#C5D4D8;}
	.st55{fill:#BCB592;}
	.st56{fill:#8A9C9B;}
	.st57{fill:#A2BAB9;}
	.st58{fill:#E8EAEA;}
	.st59{fill:#75A6B7;}
	.st60{fill:#B3D4E1;}
	.st61{fill:#D0E4EA;}
	.st62{fill:#62818F;}
	.st63{fill:#E3F0F5;}
	.st64{fill:none;}
	.st65{fill:none;stroke:#62818F;stroke-width:6;stroke-miterlimit:10;}
</style>
<g id="Ebene_3">
</g>
<g id="Ebene_1">
	<g>
		<ellipse class="st13" cx="156.14" cy="175.95" rx="9.34" ry="11.7"/>
		<ellipse class="st10" cx="191.4" cy="126.28" rx="31.28" ry="8.7"/>
		<polygon class="st13" points="173.53,135.91 222.68,134.63 215.59,197.37 169.95,200.49 160.52,134.3 		"/>
		<g>
			<path class="st33" d="M160.11,125.67l0.4,8.64l1.34,10.44c0.93-0.28,1.87-0.45,2.81-0.45c0.48,0,0.95,0.04,1.42,0.11
				c2.37,0.37,4.48,1.67,6.27,3.68l-0.86-9.74c-0.11-1.23,0.8-2.32,2.03-2.43c1.23-0.1,2.32,0.8,2.43,2.03l2.14,24.29
				c0.31,1.99,0.5,4.1,0.56,6.29l2.39,27.03c0.11,1.23-0.8,2.32-2.03,2.43c-0.07,0.01-0.13,0.01-0.2,0.01
				c-1.15,0-2.13-0.88-2.23-2.04l-0.69-7.84c-1.52,4.77-3.57,9-5.94,12.38c3.28,3.95,10.94,6.9,22.01,6.9
				c13.84,0,22.36-4.61,23.63-10.02h0.65l6.43-62.74v-8.96C222.68,125.67,194.29,135.37,160.11,125.67z M194.29,195.88
				c0,1.24-1,2.24-2.24,2.24c-1.24,0-2.24-1-2.24-2.24v-58.26c0-1.24,1-2.24,2.24-2.24c1.24,0,2.24,1,2.24,2.24V195.88z
				 M206.58,195.96c-0.1,1.17-1.08,2.04-2.23,2.04c-0.07,0-0.13,0-0.2-0.01c-1.23-0.11-2.15-1.2-2.04-2.43l5.08-57.61
				c0.11-1.23,1.21-2.13,2.43-2.03c1.23,0.11,2.15,1.2,2.03,2.43L206.58,195.96z"/>
			<path class="st33" d="M161.09,145.66c-8.35-0.06-15.65,11.94-18.27,28.5c-2.67,16.91,1.46,32.43,9.39,33.68
				c13.43,1.56,21.8-13.06,24.27-28.67C178.1,162.24,173.94,144.98,161.09,145.66z M153.8,184.17c-1.66,0.03-1.6-4.85-1.6-4.85
				l-4.52-0.74l1.67-9.37l4.37,0.71c0,0,1-3.7,3.55-3.84c3.26,0.29,2.21,5.49,1.62,9.25C158.31,179.1,157.36,184.64,153.8,184.17z
				 M151.24,171.66l4.24,0.82l-1.01,5.25l-4.2-1L151.24,171.66z"/>
		</g>
	</g>
	<g>
		<path class="st31" d="M391.15,131.31c-2.67-12.23-14.26-21.21-27.29-21.21c-12.87,0-22.5,9.19-25.34,21.21
			c-7.91,0.13-15.36,4.55-17.54,11.78c-0.6-0.05-1.34,0-1.95,0c-10.99,0-19.49,9.64-19.49,21.21c0,11.57,8.51,21.21,19.49,21.21
			h68.23c13.97-0.58,25.34-13.61,25.34-28.27C412.6,143.82,403.41,133.57,391.15,131.31z"/>
		<path class="st38" d="M425.31,155.14c-2.67-12.23-14.26-21.21-27.29-21.21c-12.87,0-22.5,9.19-25.34,21.21
			c-7.91,0.13-15.36,4.55-17.54,11.78c-0.6-0.05-1.34,0-1.95,0c-10.99,0-19.49,9.64-19.49,21.21c0,11.57,8.51,21.21,19.49,21.21
			h68.23c13.97-0.58,25.34-13.61,25.34-28.27C446.75,167.65,437.57,157.4,425.31,155.14z"/>
		<path class="st31" d="M445.65,173.33c-1.41,13.99-11.01,24.42-22.29,24.22h-77.98c-3.8,0.01-7.55-1.17-10.9-3.43
			c2.35,8.72,9.68,15.21,18.7,15.21h68.23c13.97-0.58,25.34-13.61,25.34-28.27C446.75,178.42,446.37,175.8,445.65,173.33z"/>
	</g>
	<g>
		<path class="st38" d="M183.22,400.15l52.26-89.89c1.18-2.04-0.49-4.54-2.83-4.22l-34.76,4.72l8.31-43.56
			c0.28-1.47-1.62-2.31-2.52-1.12l-51.38,67.75c-1.5,1.97,0.09,4.78,2.55,4.52l38.33-4.03l-12.56,64.84
			C180.3,400.73,182.42,401.52,183.22,400.15z"/>
		<path class="st31" d="M168.36,329.03c-0.96,0.08-1.6-0.97-1.09-1.79l38.42-61.4c-0.57-0.45-1.47-0.48-2.02,0.24l-51.38,67.75
			c-1.5,1.97,0.09,4.78,2.55,4.52l38.33-4.03l-12.56,64.84c-0.17,0.87,0.42,1.49,1.11,1.64l21.53-68.05
			c1.01-3.19-1.54-6.39-4.88-6.12L168.36,329.03z"/>
	</g>
	<g id="Ebene_2">
	</g>
	<path class="st6" d="M340.57,329.89c0,0,33.27,4.35,34.21-31.33c0.94-35.67-34.34-34.95-45.64-30.24
		c-11.29,4.71-25.88,16.66-21.17,38.21C312.1,325.46,328.23,330.78,340.57,329.89z"/>
	<path class="st32" d="M356.32,327.99c8.75-3.15,17.97-10.88,18.46-29.42c0.2-7.38-1.16-13.2-3.54-17.75
		c-0.94,0.29-1.9,0.65-2.88,1.09c-15.53,6.88-3.5,30.48-8.94,37.66C357.85,321.65,356.6,324.71,356.32,327.99z"/>
	<path class="st4" d="M383.42,343.12c0,0,21.64,0,21.64-15.57c0-15.57-13.64-19.92-10.82-31.33c2.82-11.41-8.47-22.64-24-15.75
		c-15.53,6.88-3.5,30.48-8.94,37.66C355.87,325.31,354.25,344.2,383.42,343.12z"/>
	<path class="st8" d="M340.08,383.49c0.71,1.5,9.91,2.53,9.9,0c0-3.38-6.76-92.38-9.19-93.93
		C338.36,288,339.37,381.99,340.08,383.49z"/>
	<path class="st8" d="M340.35,304.6c-1.84,0.22-9.57-8.95-12.22-10.67c-2.34-1.52,8.68,12.33,13.09,14.91
		C346.02,311.66,342.19,304.38,340.35,304.6z"/>
	<path class="st8" d="M341.51,298.4c4.44-3.71,10.81-15.32,10.62-13.69c-0.32,2.72-5.21,12.13-10.32,16.17
		C341.13,301.42,341.51,298.4,341.51,298.4z"/>
	<path class="st8" d="M344.25,311.76c4.91-3.65,6.51-10.37,6.45-8.3c-0.1,3.06-1.22,7.56-7.09,11.2
		C341.9,315.71,339.35,315.41,344.25,311.76z"/>
	<path class="st8" d="M379.31,383.65c0.62,1.35,8.58,2.26,8.58,0c0-3.03-5.85-82.72-7.96-84.12
		C377.82,298.14,378.69,382.31,379.31,383.65z"/>
	<path class="st8" d="M380.16,322.45c0,0-6.95-6.03-9.07-7.78c-2.12-1.74,5.63,9.18,9.92,11.36
		C385.69,328.41,380.16,322.45,380.16,322.45z"/>
	<path class="st8" d="M380.13,314.69c4.56-2.81,10.81-11.3,10.62-10.07c-0.33,2.05-5.05,8.89-10.3,11.94
		C379.75,316.98,380.13,314.69,380.13,314.69z"/>
	<path class="st8" d="M384.72,327.19c5.56-3.22,6.66-11.39,7.3-9.61c0.83,2.31-1.28,9.5-8.03,12.17
		C381.95,330.55,379.17,330.4,384.72,327.19z"/>
</g>
</svg>
