<?xml version="1.0" encoding="utf-8"?>
<!-- Generator: Adobe Illustrator 23.0.6, SVG Export Plug-In . SVG Version: 6.00 Build 0)  -->
<svg version="1.1" xmlns="http://www.w3.org/2000/svg" xmlns:xlink="http://www.w3.org/1999/xlink" x="0px" y="0px"
	 viewBox="0 0 1096.6 636.19" style="enable-background:new 0 0 1096.6 636.19;" xml:space="preserve">
<style type="text/css">
	.st0{opacity:0.37;fill:#D9E6E8;}
	.st1{clip-path:url(#SVGID_2_);}
	.st2{fill:#FFFFFF;}
	.st3{fill:#DBCDB5;}
	.st4{fill:#B2D3E5;}
	.st5{fill:#A6C726;}
	.st6{fill:#6E8EA1;}
	.st7{fill:#D8E9F3;}
	.st8{fill:#374750;}
	.st9{fill:#64121B;}
	.st10{fill:#262451;}
	.st11{fill:#821E33;}
	.st12{fill:#E0A596;}
	.st13{fill:#96C3DC;}
	.st14{opacity:0.6;fill:#F08371;enable-background:new    ;}
	.st15{opacity:0.6;fill:#2F1B42;enable-background:new    ;}
	.st16{opacity:0.6;fill:#A53447;enable-background:new    ;}
	.st17{opacity:0.6;fill:#902032;enable-background:new    ;}
	.st18{fill:#82AFC8;}
	.st19{clip-path:url(#SVGID_4_);}
	.st20{fill:#678596;}
	.st21{fill:none;stroke:#FFFFFF;stroke-width:4;stroke-miterlimit:10;}
	.st22{fill:none;stroke:#B2D3E5;stroke-width:3;}
	.st23{clip-path:url(#SVGID_6_);}
	.st24{fill:#61808F;}
	.st25{fill:#64121A;}
	.st26{opacity:0.6;fill:#F08371;}
	.st27{opacity:0.6;fill:#2F1B43;}
	.st28{opacity:0.6;fill:#A43446;}
	.st29{opacity:0.6;fill:#902032;}
	.st30{fill:#3D5663;}
	.st31{fill:#8EB6C7;}
	.st32{fill:#3C505A;}
	.st33{fill:#4F6976;}
	.st34{fill:#996663;}
	.st35{fill:#1F1430;}
	.st36{fill:#D29B8D;}
	.st37{fill:none;stroke:#823C37;stroke-width:1.5;stroke-linecap:round;stroke-miterlimit:10;}
	.st38{fill:#B0CFD6;}
	.st39{fill:#282451;}
	.st40{fill:#811E33;}
	.st41{fill:#64121C;}
	.st42{fill:#201630;}
	.st43{fill:#95C2DB;}
	.st44{fill:#81AEC7;}
	.st45{opacity:0.58;fill:#FFFFFF;}
	.st46{fill:#70ACCE;}
	.st47{fill:#ABCAD8;}
	.st48{fill:none;stroke:#263062;stroke-width:3;stroke-linecap:round;stroke-miterlimit:10;}
	.st49{fill:#C3D9E0;}
	.st50{opacity:0.64;}
	.st51{fill:none;stroke:#262451;stroke-width:3;stroke-linecap:round;stroke-miterlimit:10;}
	.st52{fill:none;stroke:#262451;stroke-width:3;stroke-linecap:round;stroke-miterlimit:10;stroke-dasharray:11.7706,11.7706;}
	.st53{fill:#EAE3C3;}
	.st54{fill:#C5D4D8;}
	.st55{fill:#BCB592;}
	.st56{fill:#8A9C9B;}
	.st57{fill:#A2BAB9;}
	.st58{fill:#E8EAEA;}
	.st59{fill:#75A6B7;}
	.st60{fill:#B3D4E1;}
	.st61{fill:#D0E4EA;}
	.st62{fill:#62818F;}
	.st63{fill:#E3F0F5;}
	.st64{fill:none;}
	.st65{fill:none;stroke:#62818F;stroke-width:6;stroke-miterlimit:10;}
</style>
<g id="Ebene_3">
	<rect x="8.36" y="-0.81" class="st0" width="1095.2" height="608.57"/>
</g>
<g id="Ebene_1">
	<g>
		<rect x="765.7" y="362.2" class="st39" width="16.55" height="108.51"/>
		<path class="st33" d="M648.32,401.17v-4.31c0-0.26,0.22-0.5,0.5-0.5h84.08c0.26,0,0.5,0.22,0.5,0.5v4.31
			c0,1.51-1.22,2.73-2.73,2.73h-79.65C649.52,403.9,648.3,402.68,648.32,401.17z"/>
		<polygon class="st33" points="667.65,403.9 673.92,403.9 661.36,467.63 655.1,467.63 		"/>
		<polygon class="st33" points="714.05,403.9 707.78,403.9 728.15,467.63 734.41,467.63 		"/>
		<path class="st13" d="M639.38,358.4l13.11,29.71l41.28,1.39l39.63-3.4l-57.48-10.14l-12.46-64.27c-1.12-5.72-6.12-9.83-11.94-9.83
			h-19.28L639.38,358.4z"/>
		<path class="st13" d="M632.25,301.88L632.25,301.88c-3.71,0-6.51,3.35-5.86,6.98l13.75,77.45c1.22,6.89,7.22,11.91,14.21,11.91
			l0,0h73.1c3.3,0,5.96-2.68,5.96-5.96v-6.15h-78.31c-1.67,0-3.11-1.2-3.4-2.85l-13.59-76.49
			C637.61,303.94,635.14,301.86,632.25,301.88z"/>
		<path class="st39" d="M815.97,364.97h-82.05c-2.18,0-3.95-1.71-3.95-3.8v-5.07h89.94v5.07
			C819.91,363.26,818.14,364.97,815.97,364.97z"/>
		<path class="st33" d="M823.62,360.64h-99.3c-1.17,0-2.15-0.92-2.15-2.07v-5.51c0-1.13,0.96-2.07,2.15-2.07h99.3
			c1.17,0,2.15,0.92,2.15,2.07v5.51C825.77,359.71,824.81,360.64,823.62,360.64z"/>
		<g>
			<polygon class="st12" points="675.24,433.33 667.73,466.29 678.88,461.18 686.53,436.8 			"/>
			<path class="st39" d="M678.88,461.18c-1.75-0.98-6.72,0.34-11.14,5.1c0.68,6.47,23.82,6.8,24.16,5.1
				C692.23,469.69,678.88,461.18,678.88,461.18z"/>
			<polygon class="st12" points="722.39,433.53 718.63,466.08 729.78,460.98 733.68,433.53 			"/>
			<path class="st39" d="M729.78,460.98c-1.75-0.98-6.72,0.34-11.14,5.1c0.68,6.47,23.82,6.8,24.16,5.1
				C743.13,469.49,729.78,460.98,729.78,460.98z"/>
			<path class="st39" d="M703.94,359.9c0,0,35.73,28.19,38.28,35.96c2.55,7.77-4.32,56.37-4.32,56.37s-13.78,5.61-23.48-1.02
				c-3.06-23.99-2.31-45.54-2.83-48.09c-0.51-2.55-7.66-8.28-7.66-8.28s6.42,9.81,4.74,14.91c-1.68,5.1-20.56,47.97-20.56,47.97
				s-13.27,1.02-18.88-7.66c3.06-20.93,7.81-47.97,7.81-47.97c-3.72-2.04-30.48-5.07-27.6-38.95
				C649.44,363.14,683.01,368.74,703.94,359.9z"/>
			<path class="st39" d="M667.95,262.81c0,0-4.08-4.9-8.67-9.24c-4.59-4.34-10.21-15.06,0-23.22c10.21-8.17,25.3,5.23,25.3,5.23
				s-12.79,13.91-12.79,16.46S667.95,262.81,667.95,262.81z"/>
			<path class="st12" d="M691.18,241.32c0,0,7.15,21.95-10.72,21.95c-1.02,7.15-1.02,7.15-1.02,7.15s-6.12,5.66-12.25-0.49
				c1.53-14.31,1.87-16.52,1.87-16.52s-5.76-1.36-4.74-6.47c1.02-5.1,6.15-3.62,7.22-5.28
				C673.01,242.34,683.01,244.51,691.18,241.32z"/>
			<path class="st40" d="M679.44,270.42c0,0,18.37,4.08,20.41,10.21c2.04,6.12,17.09,34.11,17.09,34.11l21.63-8.93
				c0,0,5.51,1.15,9.08,7.58c-3.74,19.45-32.49,44.33-49.84,22.63c6.12,12.42,8.68,21.51,6.12,23.89
				c-2.55,2.38-40.5,16.05-45.6,0.74c-1.02-6.63,3.7,2.38,3.7,2.38s4.8,10.04-6.94,15.65c-6.63-2.55-13.6-13.7-13.6-13.7
				s-17.73-21.35-9.64-49.69c5.08-17.82,4.49-35.84,17.47-41.05c4.38-1.76,17.86-4.31,17.86-4.31S674.17,278.06,679.44,270.42z"/>
			<path class="st41" d="M697.81,336.01c0,0-4.96-23.87-3.06-41.44c0.34,18.37,7.2,45.32,7.2,45.32L697.81,336.01z"/>
			<path class="st41" d="M650.21,334.71c0,0,10.17-28.57,11.28-37.25c-8.49,44.53,3.91,58.15-1.2,61.22
				C660.29,352.91,650.21,334.71,650.21,334.71z"/>
			<path class="st26" d="M680.46,263.27c0,0-4.08-2.55-7.91-5.1c2.55,4.08,7.58,7.43,7.58,7.43L680.46,263.27z"/>
			<polygon class="st42" points="703.94,394.83 686.53,377.59 689.14,371.59 689.65,377.59 			"/>
			<polygon class="st42" points="711.59,403.11 718.63,398.52 715.11,403.11 718.63,405.15 711.74,405.15 			"/>
			<polygon class="st42" points="677.04,402.09 680.46,396.48 678.93,400.56 683.52,401.84 			"/>
			<path class="st43" d="M687.97,233.49c0,0,0.65-15.08-17.95-14.39c-17.79,0.66-17.99,19.07-16.4,23.51
				c2.85,0.73,12.02,0.52,12.02,0.52S678.89,234.04,687.97,233.49z"/>
			<path class="st43" d="M664.32,243.08c0,0,35.37,1.58,38.15-3.79s-10.36-5.59-14.5-5.8C683.83,233.28,667.52,235.85,664.32,243.08
				z"/>
			<path class="st44" d="M687.97,233.49c0,0-5.37,4.94-18.18,6.8c-12.45,1.81,17.88,2.43,26.13-6.17L687.97,233.49z"/>
			<path class="st40" d="M666.73,268c0,0-3.68-0.23-5.26,4.58c0.9,3.33,5.83,5.06,10.77,5c6.94-0.09,10.77-2.59,11.36-5.01
				c0.4-1.67-4.42-5.15-5.91-3.4C677.59,270.3,669.86,272.85,666.73,268z"/>
			<path class="st41" d="M681.38,274.53c0,0-4.35,4.97-10.89,3.39S677.18,285.85,681.38,274.53z"/>
			<g>
				<path class="st39" d="M778.5,332.12c1.44-2.37-23.11-4.24-30.93-0.43C741.84,334.48,773.28,340.74,778.5,332.12z"/>
				<path class="st43" d="M777.38,331.68c-9.34,3.81-18.86,3.82-29.07,0.09c-4.69-1.72,0.28,18.44,6.88,20.44
					c4.68,1.03,10.93,0.99,16.52-0.33C776.96,350.63,782.05,329.78,777.38,331.68z"/>
			</g>
			<path class="st12" d="M738.57,305.8l3.83-4.98c0,0,0.08,0.81,3.03-0.27c4.15-1.53,4.1,1.3,5.27,2.29
				c4.66,3.99-4.58,8.29-4.58,8.29L738.57,305.8z"/>
		</g>
		<path class="st40" d="M753.93,314.56c-0.9-1.53-7.76-16.28-10.42-14.68c-2.57,1.54,7.69,14.13,8.89,16.09
			c1.57,2.57-1.68,4.43,2.38,10.07c3.93,5.48,10.79-0.32,7.64-5.57C758.64,314.17,755.56,317.32,753.93,314.56z"/>
		<path class="st12" d="M746.08,300.1c0,0-8.14,11.03,4.83,5.88C753.76,304.84,746.08,300.1,746.08,300.1z"/>
	</g>
	<g id="Ebene_2">
		<g>
			<rect x="935.42" y="60.05" class="st33" width="117.28" height="94.59"/>
			<polygon class="st13" points="941.7,28.02 1048.09,28.02 1060.86,95.76 925.86,95.76 			"/>
			<rect x="950" y="107.35" class="st13" width="31.68" height="47.3"/>
		</g>
		<g>
			<path class="st10" d="M478.41,268.15c0,0,3.74-4.49,7.94-8.47c4.21-3.97,9.35-13.79,0-21.27c-9.35-7.48-23.18,4.79-23.18,4.79
				s11.72,12.74,11.72,15.08C474.9,260.62,478.41,268.15,478.41,268.15z"/>
			<path class="st12" d="M457.13,248.47c0,0-6.55,20.11,9.82,20.11c0.94,6.55,0.94,6.55,0.94,6.55s5.61,5.18,11.22-0.45
				c-1.4-13.11-1.71-15.14-1.71-15.14s5.27-1.25,4.34-5.92c-0.94-4.68-5.64-3.32-6.62-4.83
				C473.78,249.39,464.61,251.39,457.13,248.47z"/>
			<path class="st2" d="M467.89,275.12c0,0-16.83,3.74-18.7,9.35s-10.29,29.46-10.29,29.46l-21.6-18.91c0,0-5.05,1.06-8.32,6.94
				c3.43,17.82,26.18,53.13,42.08,33.25c-5.61,11.38-7.95,19.7-5.61,21.89s48.63,12.94,53.3-1.09c0.94-6.08-1.98-8.88-1.98-8.88
				s6.88,23.81,17.63,28.96c6.08-2.34,8.18-6.1,8.18-6.1s0.7-17.08-8.18-42.58c-8.88-25.49-7.04-44.01-18.92-48.79
				c-4.02-1.61-16.36-3.95-16.36-3.95S472.72,282.12,467.89,275.12z"/>
			<path class="st13" d="M451.05,335.21c0,0,4.55-21.87,2.81-37.96c-0.31,16.83-6.59,41.52-6.59,41.52L451.05,335.21z"/>
			<path class="st13" d="M499.41,347.78c0,0-12.15-39.94-13.17-47.89c1.32,18.24,7.82,49.7,12.5,52.51
				C498.74,347.12,499.41,347.78,499.41,347.78z"/>
			<path class="st26" d="M466.95,268.57c0,0,3.74-2.34,7.25-4.68c-2.34,3.74-6.94,6.8-6.94,6.8L466.95,268.57z"/>
			<g>
				<path class="st10" d="M394.29,274.4c-1.2-1.97,19.26-3.53,25.77-0.36C424.83,276.36,398.64,281.57,394.29,274.4z"/>
				<path class="st13" d="M395.23,274.03c7.78,3.18,15.71,3.19,24.22,0.07c3.91-1.43-0.23,15.36-5.73,17.03
					c-3.9,0.86-9.1,0.83-13.76-0.28C395.57,289.82,391.34,272.44,395.23,274.03z"/>
			</g>
			<path class="st12" d="M417.29,295.01l-3.51-4.56c0,0-2.11,0.17-4.81-0.83c-3.81-1.41-9.43-3.84-11.26-1.1
				c-3.12,4.68,12.66,11.38,12.66,11.38L417.29,295.01z"/>
			<g>
				<rect x="388.9" y="347.27" class="st33" width="190.15" height="112.08"/>
				<path class="st13" d="M584.89,347.27c1.61,0,2.9-2.1,2.9-4.66c0-2.56-1.31-4.66-2.9-4.66H386.22c-1.61,0-2.9,2.1-2.9,4.66
					c0,2.56,1.31,4.66,2.9,4.66H584.89z"/>
				<rect x="388.9" y="347.27" class="st13" width="190.15" height="3.77"/>
			</g>
			<path class="st10" d="M471.11,276.1h-4.25v2.57h6.83C473.65,277.24,472.52,276.1,471.11,276.1z"/>
			<path class="st10" d="M476.62,276.1c-1.41,0-2.57,1.14-2.57,2.57h6.83v-2.57H476.62z"/>
			<path class="st2" d="M474.29,278.73h-4.05l-11.71,7.03c-0.32,0.19-0.51,0.53-0.51,0.89v43.87h2.08v-43.3L474.29,278.73z"/>
			<circle class="st10" cx="466.47" cy="300.77" r="1.37"/>
			<circle class="st10" cx="480.73" cy="300.77" r="1.37"/>
			<circle class="st10" cx="466.7" cy="316.27" r="1.37"/>
			<circle class="st10" cx="480.98" cy="316.27" r="1.37"/>
			<path class="st13" d="M474.13,278.73h-4.05l-10.93,6.55c-0.32,0.19-0.51,0.53-0.51,0.89v44.36h2.08v-43.76L474.13,278.73z"/>
			<g>
				<g>
					<rect x="418.77" y="334.46" class="st56" width="62.36" height="3.56"/>
					<path class="st57" d="M482.44,334.46c1.1,0,1.97-0.89,1.97-1.97c0-1.1-0.89-1.97-1.97-1.97h-64.99c-1.1,0-1.97,0.89-1.97,1.97
						c0,1.1,0.89,1.97,1.97,1.97H482.44z"/>
				</g>
				<g>
					<rect x="500.41" y="334.37" class="st56" width="62.36" height="3.56"/>
					<path class="st57" d="M564.08,334.37c1.1,0,1.97-0.89,1.97-1.97s-0.89-1.97-1.97-1.97h-64.99c-1.1,0-1.97,0.89-1.97,1.97
						s0.89,1.97,1.97,1.97H564.08z"/>
				</g>
			</g>
			<g>
				<path class="st2" d="M489.48,250.57c2.13-0.5,2.71-1.36,2.71-3.43l-0.95-4.44c0-0.83-0.79-1.52-1.76-1.52l-27.29-0.02
					c-6.88,0-6.11,8.76-5.15,8.76c0,0,11.7,1.19,17.15,1.19C479.65,251.12,489.48,250.57,489.48,250.57z"/>
				<path class="st2" d="M493.08,225.59c0-3.99-3.74-7.22-8.36-7.22c-2.24,0-4.26,0.76-5.77,2c-1.5-1.23-3.53-2-5.77-2
					c-2.24,0-4.26,0.76-5.77,2c-1.5-1.23-2.58-2-4.81-2c-4.62,0-7.4,3.23-7.4,7.22c0,3.5,0.97,6.41,4.78,7.08v8.52l29.49,0
					c0,0-2.41-8.48,0.04-8.37C492.54,232.97,493.08,229.09,493.08,225.59z"/>
				<path class="st58" d="M467.73,230.55h-0.15c-0.19,0-0.33,0.13-0.33,0.29v10.33h0.84v-10.33
					C468.07,230.7,467.92,230.55,467.73,230.55z"/>
				<path class="st58" d="M481.1,230.55h-0.15c-0.19,0-0.33,0.13-0.33,0.29v10.33h0.84v-10.33
					C481.44,230.7,481.29,230.55,481.1,230.55z"/>
			</g>
		</g>
		<g>
			<g>
				<path class="st33" d="M880.01,278.73c0,0,21.6-33.39,82.46-19.15c35.89,8.4,39.95,36.24,39.93,52.72
					c-0.04,33.3,0,134.74,0,134.74l-24.62,0.66L880.01,278.73z"/>
				<path class="st13" d="M874.94,447.6l107.86,0c0,4.01,0-111.84,0-150.53c0-7.59-5.22-41.12-57.07-40.27
					c-51.85,0.86-50.79,36.15-50.79,36.15V447.6z"/>
				<path class="st33" d="M982.8,447.6v14.95c0,0-5.02,4.92-10.05,0V447.6H982.8z"/>
				<path class="st33" d="M1002.63,446.91v14.95c0,0-5.02,4.92-10.05,0v-14.95H1002.63z"/>
				<path class="st33" d="M884.98,447.6v14.95c0,0-5.02,4.92-10.05,0V447.6H884.98z"/>
				<rect x="894.92" y="298.5" class="st33" width="67.96" height="44.63"/>
				
					<rect x="940.14" y="361.6" transform="matrix(6.123234e-17 -1 1 6.123234e-17 585.1429 1323.7957)" class="st33" width="28.66" height="15.46"/>
			</g>
			<path class="st45" d="M928.72,263.28c0,0,19.91,0.45,29.81,6.38c11.79,7.06,15.49,23.77,15.49,23.77s-7.52-10.42-18.69-18.21
				C943.03,266.65,928.72,263.28,928.72,263.28z"/>
			<g>
				<path class="st10" d="M947.74,309.76c1.74-2.87-28.06-5.15-37.55-0.52C903.24,312.63,941.4,320.22,947.74,309.76z"/>
				<path class="st13" d="M946.37,309.23c-11.33,4.63-22.89,4.64-35.28,0.1c-5.71-2.09,0.33,22.38,8.35,24.81
					c5.69,1.25,13.27,1.2,20.05-0.4C945.87,332.23,952.04,306.92,946.37,309.23z"/>
			</g>
			<g>
				<polygon class="st33" points="954.24,376.56 956.17,376.56 955.32,375.47 				"/>
				<g>
					<polygon class="st33" points="954.27,361.7 956.05,361.7 955.16,362.41 					"/>
					<ellipse class="st10" cx="956.29" cy="369.13" rx="4.1" ry="7.43"/>
					<ellipse class="st13" cx="954.38" cy="369.13" rx="4.76" ry="7.43"/>
				</g>
			</g>
		</g>
		<g>
			<rect x="79.84" y="284.83" class="st59" width="19.68" height="52.78"/>
			<path class="st13" d="M97.73,296.86h28.82h54.48c0,0,23.61-3.19,24.25,15.25c0.64,18.44,0.72,25.5,0.72,25.5h-27.23
				c0,0-0.17-5.5-0.17-10.09c0-4.4-0.44-6.51-2.94-6.62c-7.04-0.31-77.93,0.46-77.93,0.46V296.86z"/>
			<path class="st59" d="M130.98,286.62c3.7-0.02-5.13-9.9,15.71-9.92c20.83-0.02,11.13,9.82,14.53,9.92
				c3.23,0.1,7.74-0.01,7.74,5.18c0,5.19,0,6.59,0,6.59l-44.22,0.26C124.75,298.65,122.26,286.67,130.98,286.62z"/>
			<path class="st59" d="M110.33,254.2c0,0,67.91,0,72.74,0c6.54,0,8.55,14.38,0.31,14.38c-19.91,0-61.57-0.2-72.49-0.08
				C103.76,268.58,103.05,254.2,110.33,254.2z"/>
			<path class="st13" d="M143.1,278.23l-0.22-5.02c0,0-6.86,1.17-6.86-3.99s-4.32-17.97,1.95-19.08s18.09-1.77,18.46,1.91
				s2.95,19.91,0,19.91s-6.27,0-6.27,0l0.75,6.27H143.1z"/>
			<path class="st59" d="M176.37,337.61c0,0,29.96,0,32.87,0c3.8,0,4.42,10.61,0,10.61c-4.42,0-29.01-0.3-32.05-0.33
				C172.56,347.86,173.22,337.61,176.37,337.61z"/>
			<g>
				<path class="st10" d="M172.28,381.39c-3.09-5.1,49.76-9.13,66.59-0.93C251.2,386.47,183.52,399.94,172.28,381.39z"/>
				<path class="st13" d="M174.71,380.45c20.1,8.21,40.59,8.23,62.58,0.19c10.1-3.7-0.59,39.69-14.81,44
					c-10.08,2.21-23.53,2.14-35.56-0.71C175.6,421.25,164.65,376.35,174.71,380.45z"/>
			</g>
			<path class="st12" d="M231.73,434.66l-9.07-11.79c0,0-5.46,0.43-12.43-2.14c-9.84-3.63-24.38-9.91-29.09-2.84
				c-8.05,12.08,32.72,29.4,32.72,29.4L231.73,434.66z"/>
			<path class="st12" d="M222.66,422.87c0,0,7.86,3.32,18.6,3.32c10.74,0,29.77,39.78,29.77,39.78l-20.39,8.08
				c0,0-10.27-23.55-16.65-26.76c-4.12-2.07-12.94,1.79-20.13,0L222.66,422.87z"/>
			<path class="st2" d="M282.98,461.25l-33.14-29.01c0,0-8.41,1.76-13.86,11.57c1.72,8.92,6.34,20.48,12.69,31.38"/>
			<circle class="st60" cx="301.81" cy="330.15" r="18.46"/>
			<circle class="st60" cx="262.16" cy="356.65" r="9.23"/>
			<circle class="st60" cx="300.07" cy="373.2" r="11.57"/>
			<circle class="st60" cx="253.94" cy="317.63" r="11.5"/>
			<circle class="st60" cx="145.67" cy="372.73" r="11.98"/>
			<circle class="st60" cx="130.28" cy="394.14" r="5.86"/>
			<circle class="st60" cx="146.69" cy="405.94" r="6.5"/>
			<path class="st61" d="M300.07,315.02c0,0,19.64,0,14.75,23.08C314.82,338.11,311.99,322.66,300.07,315.02z"/>
			<path class="st61" d="M298.08,362.08c0,0,12.87,0,9.66,15.13C307.74,377.21,305.89,367.08,298.08,362.08z"/>
			<path class="st61" d="M261.13,348.97c0,0,8.73,0,6.56,10.26C267.69,359.24,266.43,352.37,261.13,348.97z"/>
			<path class="st61" d="M251.83,308.01c0,0,13.07,0,9.81,15.36C261.64,323.37,259.76,313.09,251.83,308.01z"/>
			<path class="st61" d="M145.67,364.03c0,0,12.35,0,9.27,14.52C154.95,378.55,153.17,368.83,145.67,364.03z"/>
			<path class="st61" d="M129.92,388.36c0,0,6.33,0,4.75,7.44C134.68,395.8,133.76,390.82,129.92,388.36z"/>
			<path class="st61" d="M144.99,401.22c0,0,8.03,0,6.03,9.43C151.02,410.66,149.86,404.34,144.99,401.22z"/>
			<path class="st60" d="M195.27,352.72c0,0-11.31,22.7,1.52,22.63C209.62,375.28,195.27,352.72,195.27,352.72z"/>
		</g>
	</g>
	<g>
		<g>
			<g>
				<path class="st10" d="M336.15,99.44c2.55-4.21-41.12-7.55-55.04-0.77C270.92,103.64,326.86,114.77,336.15,99.44z"/>
				<path class="st13" d="M334.15,98.66c-16.61,6.78-33.55,6.8-51.72,0.15c-8.37-3.06,0.48,32.8,12.24,36.36
					c8.33,1.83,19.44,1.77,29.39-0.59C333.41,132.38,342.45,95.27,334.15,98.66z"/>
			</g>
			<path class="st61" d="M327.73,97.21c3.26-6.01,0.98-12.33,0.35-19.28c-0.61-6.76,2.55,17.91,10.48,15.6
				c8.15-2.38,15.13-5.15,15.13-5.15s-15.89,8.36-14.07,13.47c1.82,5.11,2.4,16.39,2.4,16.39s-1.16-18.17-12.07-14.46
				s-16.47,6.32-16.47,6.32S323.46,105.1,327.73,97.21z"/>
		</g>
		<g>
			<g>
				<path class="st10" d="M107.57,95.17c2.55-4.21-41.12-7.55-55.04-0.77C42.34,99.37,98.28,110.5,107.57,95.17z"/>
				<path class="st13" d="M105.56,94.39c-16.61,6.78-33.55,6.8-51.72,0.15c-8.37-3.06,0.48,32.8,12.24,36.36
					c8.33,1.83,19.44,1.77,29.39-0.59C104.83,128.1,113.87,91,105.56,94.39z"/>
			</g>
			<path class="st57" d="M60.69,96.75c0,0,3.05-10.6,11.14-10.75c8.09-0.15,6.72,3.52,10.96,2.9c4.24-0.62,1.61-2.05,7.78-0.66
				c6.17,1.39,6.27,9.09,6.27,9.09S82.36,102.97,60.69,96.75z"/>
		</g>
		<g>
			<path class="st10" d="M183.19,96.99c2.55-4.21-41.12-7.55-55.04-0.77C117.96,101.19,173.9,112.32,183.19,96.99z"/>
			<path class="st13" d="M181.19,96.21c-16.61,6.78-33.55,6.8-51.72,0.15c-8.37-3.06,0.48,32.8,12.24,36.36
				c8.33,1.83,19.44,1.77,29.39-0.59C180.45,129.93,189.49,92.82,181.19,96.21z"/>
		</g>
		<g>
			<path class="st10" d="M262.15,96.34c2.55-4.21-41.12-7.55-55.04-0.77C196.92,100.54,252.85,111.67,262.15,96.34z"/>
			<path class="st10" d="M266.62,74.26c3.42-3.54-38.42-16.49-53.49-12.97C202.09,63.87,254.15,87.14,266.62,74.26z"/>
			<path class="st59" d="M264.97,72.81c-17.7,2.92-34.35,2.14-50.46-11.33c-6.84-5.72-6.81,32.06,3.87,38.14
				c7.72,3.63,18.57,6.04,28.79,5.95C256.77,105.49,273.82,71.35,264.97,72.81z"/>
			<path class="st13" d="M260.14,95.56c-18.43,10.05-33.55,6.8-51.72,0.15c-8.37-3.06,0.48,32.8,12.24,36.36
				c8.33,1.83,19.44,1.77,29.39-0.59C259.4,129.28,268.02,91.27,260.14,95.56z"/>
		</g>
	</g>
</g>
</svg>
