<?xml version="1.0" encoding="utf-8"?>
<!-- Generator: Adobe Illustrator 23.0.6, SVG Export Plug-In . SVG Version: 6.00 Build 0)  -->
<svg version="1.1" xmlns="http://www.w3.org/2000/svg" xmlns:xlink="http://www.w3.org/1999/xlink" x="0px" y="0px"
	 viewBox="0 0 758.49 674.24" style="enable-background:new 0 0 758.49 674.24;" xml:space="preserve">
<style type="text/css">
	.st0{opacity:0.37;fill:#D9E6E8;}
	.st1{clip-path:url(#SVGID_2_);}
	.st2{fill:#FFFFFF;}
	.st3{fill:#DBCDB5;}
	.st4{fill:#B2D3E5;}
	.st5{fill:#A6C726;}
	.st6{fill:#6E8EA1;}
	.st7{fill:#D8E9F3;}
	.st8{fill:#374750;}
	.st9{fill:#64121B;}
	.st10{fill:#262451;}
	.st11{fill:#821E33;}
	.st12{fill:#E0A596;}
	.st13{fill:#96C3DC;}
	.st14{opacity:0.6;fill:#F08371;enable-background:new    ;}
	.st15{opacity:0.6;fill:#2F1B42;enable-background:new    ;}
	.st16{opacity:0.6;fill:#A53447;enable-background:new    ;}
	.st17{opacity:0.6;fill:#902032;enable-background:new    ;}
	.st18{fill:#82AFC8;}
	.st19{clip-path:url(#SVGID_4_);}
	.st20{fill:#678596;}
	.st21{fill:none;stroke:#FFFFFF;stroke-width:4;stroke-miterlimit:10;}
	.st22{fill:none;stroke:#B2D3E5;stroke-width:3;}
	.st23{clip-path:url(#SVGID_6_);}
	.st24{fill:#61808F;}
	.st25{fill:#64121A;}
	.st26{opacity:0.6;fill:#F08371;}
	.st27{opacity:0.6;fill:#2F1B43;}
	.st28{opacity:0.6;fill:#A43446;}
	.st29{opacity:0.6;fill:#902032;}
	.st30{fill:#3D5663;}
	.st31{fill:#8EB6C7;}
	.st32{fill:#3C505A;}
	.st33{fill:#4F6976;}
	.st34{fill:#996663;}
	.st35{fill:#1F1430;}
	.st36{fill:#D29B8D;}
	.st37{fill:none;stroke:#823C37;stroke-width:1.5;stroke-linecap:round;stroke-miterlimit:10;}
	.st38{fill:#B0CFD6;}
	.st39{fill:#282451;}
	.st40{fill:#811E33;}
	.st41{fill:#64121C;}
	.st42{fill:#201630;}
	.st43{fill:#95C2DB;}
	.st44{fill:#81AEC7;}
	.st45{opacity:0.58;fill:#FFFFFF;}
	.st46{fill:#70ACCE;}
	.st47{fill:#ABCAD8;}
	.st48{fill:none;stroke:#263062;stroke-width:3;stroke-linecap:round;stroke-miterlimit:10;}
	.st49{fill:#C3D9E0;}
	.st50{opacity:0.64;}
	.st51{fill:none;stroke:#262451;stroke-width:3;stroke-linecap:round;stroke-miterlimit:10;}
	.st52{fill:none;stroke:#262451;stroke-width:3;stroke-linecap:round;stroke-miterlimit:10;stroke-dasharray:11.7706,11.7706;}
	.st53{fill:#EAE3C3;}
	.st54{fill:#C5D4D8;}
	.st55{fill:#BCB592;}
	.st56{fill:#8A9C9B;}
	.st57{fill:#A2BAB9;}
	.st58{fill:#E8EAEA;}
	.st59{fill:#75A6B7;}
	.st60{fill:#B3D4E1;}
	.st61{fill:#D0E4EA;}
	.st62{fill:#62818F;}
	.st63{fill:#E3F0F5;}
	.st64{fill:none;}
	.st65{fill:none;stroke:#62818F;stroke-width:6;stroke-miterlimit:10;}
</style>
<g id="Ebene_3">
	<g>
		<g>
			<defs>
				
					<rect id="SVGID_3_" x="538.44" y="151.91" transform="matrix(0.0149 -0.9999 0.9999 0.0149 390.5167 789.707)" width="115.2" height="89.51"/>
			</defs>
			<clipPath id="SVGID_2_">
				<use xlink:href="#SVGID_3_"  style="overflow:visible;"/>
			</clipPath>
			<g class="st1">
				<path class="st4" d="M614.69,160.51l-37.35-0.56c0,0-0.69,9.2-9.16,16.06c-8.46,6.85-27.77,30.32-9.53,59.59
					c17.52,28.11,65.16,23.03,77.47-5.77c12-28.08-2.86-43.92-13.32-53.01c-4.43-3.85-6.54-9.67-7.47-13.22
					C614.85,161.74,614.69,160.51,614.69,160.51z"/>
				<path class="st8" d="M610.9,148.81c0,0,0.92-9.16-0.84-9.18c-1.75-0.03-25.5-1.16-26.48-0.39c-0.98,0.77-0.1,8-0.7,9.16
					C582.27,149.55,610.9,148.81,610.9,148.81z"/>
				<path class="st20" d="M613.56,145.41c-1.95-0.09-33.73-1.9-35.15-0.52c-1.42,1.38-1.66,18.39-1.66,18.39l38.02,0.31
					C614.77,163.59,616.35,145.54,613.56,145.41z"/>
				<path class="st21" d="M592.26,163.35c0,0-0.57,37.97-0.57,38.57c-0.02,5.66-9.75,8.52-12.13,1.53
					c-3.08-9.01,15.95-13.41,27.82-7.99c16.33,7.46-5.46,18.98-5.66,7.13l0.58-39.18"/>
				<path class="st7" d="M581.65,238.57c0,0,17.38,10.76,30.47,1.78c18.36-12.6,19.1-32.85,19.1-32.85S614.38,240.16,581.65,238.57z
					"/>
			</g>
		</g>
		<line class="st22" x1="597.5" y1="15.93" x2="597.5" y2="139.79"/>
	</g>
	<g>
		<g>
			<defs>
				<rect id="SVGID_5_" x="443.58" y="245.35" width="94.44" height="120.76"/>
			</defs>
			<clipPath id="SVGID_4_">
				<use xlink:href="#SVGID_5_"  style="overflow:visible;"/>
			</clipPath>
			<g class="st19">
				<path class="st4" d="M509.92,267.54h-39.41c0,0-0.59,9.66-9.41,16.97c-8.82,7.31-28.82,32.21-9.12,62.61
					c18.93,29.19,69.11,23.12,81.64-7.26c12.22-29.62-3.71-45.99-14.89-55.36c-4.73-3.97-7.06-10.04-8.09-13.74
					C510.11,268.83,509.92,267.54,509.92,267.54z"/>
				<path class="st8" d="M505.74,257.73c0,0,0.82-9.61-1.03-9.61c-1.85,0-26.92-0.82-27.95,0c-1.03,0.82,0.02,8.39-0.6,9.61
					C475.55,258.95,505.74,257.73,505.74,257.73z"/>
				<path class="st21" d="M486.3,270.87c0,0-0.01,39.81,0,40.43c0.07,5.93-10.15,9.08-12.78,1.79c-3.39-9.4,16.62-14.31,29.23-8.81
					c17.35,7.56-5.46,19.98-5.86,7.56v-41.07"/>
				<path class="st6" d="M454.59,328.01c0.55,20.69,21.08,34.18,37.8,37.48c-6.8,2.1-32.32-0.37-43.65-24.59
					c-10.99-23.49-0.72-43.56,8.79-52.77c13.25-12.84,11.69-15.09,12.54-17.69c2.74-4.7,5.37-11.22,5.6-2.1
					c0.28,11.27-0.06,11.69-7.76,20.99l-0.25,0.3C457.2,302.29,454.04,307.33,454.59,328.01z"/>
				<path class="st20" d="M508.49,255.32c-2.06-0.07-35.62-1.46-37.09,0c-1.47,1.46-1.46,19.3-1.46,19.3l40.11-0.27
					C510.05,274.35,511.44,255.41,508.49,255.32z"/>
				<path class="st7" d="M479.29,347.49c0,0,18.51,11.01,32.17,1.39c19.17-13.5,19.63-34.73,19.63-34.73
					S513.85,348.64,479.29,347.49z"/>
			</g>
		</g>
		<line class="st22" x1="490.81" y1="27.5" x2="490.81" y2="247.35"/>
	</g>
</g>
<g id="Ebene_1">
	<g id="Ebene_2">
		<g id="XMLID_602_">
			<g>
				<g id="XMLID_30_">
					<path class="st13" d="M371.66,553.18c-15.94,0-43.75,20-62.81,15.62l-34.69,20.31c0,0,23.48,10.31,52.21-1.25
						c27.32-11,59.41-9.12,72.73,15.61h1.92v-35.3C401.01,568.18,387.6,553.18,371.66,553.18z"/>
				</g>
				<g id="XMLID_29_">
					<path class="st13" d="M430.37,553.18c15.94,0,43.75,20,62.81,15.62l34.69,20.31c0,0-23.48,10.31-52.21-1.25
						c-27.32-11-59.41-9.12-72.72,15.61h-1.92v-35.3C401.01,568.18,414.43,553.18,430.37,553.18z"/>
				</g>
			</g>
		</g>
		<path id="XMLID_599_" class="st53" d="M430.37,553.18c10.6-0.01,16.85,2.27,32.5,6.25c18.44,4.69,30.94-1.87,30.94-1.87
			l26.56,10.62c-25,23.75-55.67,16.04-55.67,16.04c-24.47-6.47-50.21-2.23-61.77,19.26h-1.91v-35.3
			C401.01,568.18,414.43,553.19,430.37,553.18z"/>
		<g id="XMLID_592_">
			<path id="XMLID_596_" class="st54" d="M371.66,553.18c-10.6-0.01-16.85,2.27-32.5,6.25c-18.44,4.69-30.94-1.87-30.94-1.87
				l-26.56,10.62c25,23.75,55.67,16.04,55.67,16.04c24.47-6.47,50.21-2.23,61.77,19.26h1.91v-35.3
				C401.01,568.18,387.6,553.19,371.66,553.18z"/>
			<path id="XMLID_593_" class="st54" d="M430.37,553.18c10.6-0.01,16.85,2.27,32.5,6.25c18.44,4.69,30.94-1.87,30.94-1.87
				l26.56,10.62c-25,23.75-55.67,16.04-55.67,16.04c-24.47-6.47-50.21-2.23-61.77,19.26h-1.91v-35.3
				C401.01,568.18,414.43,553.19,430.37,553.18z"/>
		</g>
		<g id="XMLID_576_">
			<g id="XMLID_585_">
				<g>
					<path id="XMLID_32_" class="st55" d="M401.01,607.47c-0.65,0-1.28,0.03-1.89,0.09L401.01,607.47z"/>
					<path id="XMLID_31_" class="st24" d="M399.09,603.48c-13.31-24.74-45.4-26.61-72.73-15.61c-28.73,11.56-52.21,1.25-52.21,1.25
						l-16.8,14.36H399.09z"/>
				</g>
			</g>
			<path id="XMLID_584_" class="st10" d="M337.59,600.86h39.79c0,0-5.71-4.08-19.89-4.08S337.59,600.86,337.59,600.86z"/>
			<path id="XMLID_583_" class="st10" d="M319.92,596.78c0,0,0.74,0.05,2.04,0.04c1.29,0.01,3.14-0.11,5.33-0.33
				c1.1-0.11,2.28-0.27,3.52-0.5c1.24-0.22,2.54-0.51,3.87-0.83c1.33-0.32,2.69-0.72,4.06-1.17c1.4-0.41,2.67-0.98,4.15-1.48
				c1.36-0.5,2.9-0.89,4.4-1.16c1.49-0.26,2.97-0.34,4.4-0.34c1.43,0.01,2.8,0.16,4.09,0.37c1.28,0.22,2.48,0.51,3.56,0.82
				c2.18,0.62,3.87,1.46,5.03,2.06c1.16,0.61,1.76,1.06,1.76,1.06s-0.68-0.32-1.89-0.76c-1.21-0.46-2.98-0.97-5.13-1.43
				c-1.07-0.22-2.25-0.4-3.49-0.52c-1.25-0.11-2.56-0.13-3.91-0.1c-1.35,0.05-2.74,0.22-4.13,0.46c-1.37,0.27-2.71,0.61-4.13,1.15
				c-1.34,0.43-2.8,1.05-4.21,1.44c-1.41,0.46-2.84,0.78-4.22,1.06c-1.38,0.3-2.74,0.47-4.02,0.6c-1.28,0.14-2.5,0.21-3.63,0.23
				c-2.25,0.07-4.12-0.14-5.41-0.29C320.64,596.97,319.92,596.78,319.92,596.78z"/>
			<path id="XMLID_582_" class="st10" d="M355.69,586.07c0,0,0.5-0.18,1.41-0.35c0.91-0.15,2.24-0.32,3.84-0.32
				c1.6,0.02,3.47,0.18,5.43,0.58c0.98,0.19,1.98,0.46,2.99,0.74c0.99,0.35,2.02,0.64,3,1.05c0.97,0.44,1.98,0.8,2.9,1.3
				c0.93,0.48,1.86,0.93,2.7,1.46c0.84,0.53,1.65,1.04,2.42,1.52c0.73,0.54,1.42,1.06,2.05,1.53c1.29,0.92,2.2,1.9,2.9,2.49
				c0.68,0.62,1.05,0.99,1.05,0.99s-0.47-0.26-1.25-0.73c-0.79-0.47-1.87-1.2-3.24-1.95c-0.67-0.39-1.4-0.81-2.17-1.26
				c-0.79-0.41-1.62-0.85-2.48-1.29c-0.84-0.48-1.78-0.82-2.68-1.29c-0.9-0.47-1.88-0.79-2.82-1.2c-1.9-0.78-3.86-1.4-5.71-1.91
				c-0.93-0.22-1.83-0.48-2.7-0.63c-0.86-0.19-1.69-0.3-2.46-0.43c-0.77-0.08-1.47-0.2-2.1-0.23c-0.63-0.06-1.18-0.07-1.64-0.08
				C356.22,586.04,355.69,586.07,355.69,586.07z"/>
			<path id="XMLID_581_" class="st10" d="M281.66,595.93c0,0,12.63,5.35,28.68,0C310.34,595.93,295.37,607.9,281.66,595.93z"/>
			<polygon id="XMLID_580_" class="st10" points="272.99,590.12 277.1,594.39 269.79,592.86 			"/>
			<polygon id="XMLID_579_" class="st10" points="268.28,594.15 275.84,595.49 266.71,595.49 			"/>
			<polygon id="XMLID_578_" class="st10" points="265.56,596.47 271.69,597.06 263.86,597.92 			"/>
			<polygon id="XMLID_577_" class="st10" points="260.75,600.58 272.59,600.58 258.28,602.69 			"/>
		</g>
		<g id="XMLID_560_">
			<g id="XMLID_569_">
				<path id="XMLID_575_" class="st24" d="M401.01,607.47c0.65,0,1.28,0.03,1.89,0.09L401.01,607.47z"/>
				<path id="XMLID_574_" class="st24" d="M402.93,603.48c13.31-24.74,45.4-26.61,72.72-15.61c28.73,11.56,52.21,1.25,52.21,1.25
					l16.8,14.36H402.93z"/>
			</g>
			<path id="XMLID_568_" class="st10" d="M464.44,600.86h-39.79c0,0,5.71-4.08,19.89-4.08
				C458.73,596.78,464.44,600.86,464.44,600.86z"/>
			<path id="XMLID_567_" class="st10" d="M482.11,596.78c0,0-0.72,0.19-2.02,0.36c-1.29,0.15-3.16,0.36-5.41,0.29
				c-1.12-0.02-2.34-0.1-3.63-0.23c-1.28-0.13-2.64-0.3-4.02-0.6c-1.38-0.28-2.81-0.6-4.22-1.06c-1.41-0.39-2.87-1.01-4.21-1.44
				c-1.42-0.54-2.76-0.88-4.13-1.15c-1.39-0.24-2.78-0.41-4.13-0.46c-1.35-0.03-2.66,0-3.91,0.1c-1.24,0.12-2.42,0.3-3.49,0.52
				c-2.14,0.46-3.92,0.97-5.13,1.43c-1.22,0.44-1.89,0.76-1.89,0.76s0.6-0.45,1.76-1.06c1.16-0.59,2.85-1.43,5.03-2.06
				c1.09-0.32,2.28-0.6,3.56-0.82c1.28-0.21,2.66-0.36,4.09-0.37c1.43,0,2.91,0.08,4.4,0.34c1.49,0.27,3.04,0.66,4.4,1.16
				c1.48,0.5,2.75,1.07,4.15,1.48c1.36,0.45,2.72,0.85,4.06,1.17c1.33,0.32,2.63,0.62,3.87,0.83c1.24,0.23,2.42,0.39,3.52,0.5
				c2.19,0.22,4.04,0.35,5.33,0.33C481.36,596.82,482.11,596.78,482.11,596.78z"/>
			<path id="XMLID_566_" class="st10" d="M446.34,586.07c0,0-0.53-0.03-1.44-0.02c-0.46,0.01-1.01,0.02-1.64,0.08
				c-0.63,0.04-1.34,0.16-2.1,0.23c-0.76,0.13-1.59,0.24-2.46,0.43c-0.87,0.15-1.77,0.41-2.7,0.63c-1.86,0.5-3.81,1.13-5.71,1.91
				c-0.94,0.41-1.92,0.73-2.82,1.2c-0.9,0.46-1.84,0.81-2.68,1.29c-0.86,0.45-1.69,0.88-2.48,1.29c-0.77,0.45-1.5,0.87-2.17,1.26
				c-1.37,0.75-2.46,1.48-3.25,1.95c-0.78,0.48-1.25,0.73-1.25,0.73s0.37-0.37,1.05-0.99c0.7-0.59,1.61-1.57,2.9-2.49
				c0.64-0.47,1.33-0.99,2.05-1.53c0.77-0.48,1.58-1,2.42-1.52c0.84-0.53,1.77-0.98,2.7-1.46c0.92-0.5,1.93-0.86,2.9-1.3
				c0.98-0.41,2.01-0.7,3-1.05c1.01-0.28,2.01-0.54,2.99-0.74c1.96-0.4,3.83-0.56,5.43-0.58c1.6,0,2.92,0.17,3.84,0.32
				C445.84,585.89,446.34,586.07,446.34,586.07z"/>
			<path id="XMLID_565_" class="st10" d="M520.36,595.93c0,0-12.63,5.35-28.68,0C491.68,595.93,506.66,607.9,520.36,595.93z"/>
			<polygon id="XMLID_564_" class="st10" points="529.03,590.12 524.93,594.39 532.24,592.86 			"/>
			<polygon id="XMLID_563_" class="st10" points="533.75,594.15 526.19,595.49 535.32,595.49 			"/>
			<polygon id="XMLID_562_" class="st10" points="536.46,596.47 530.33,597.06 538.16,597.92 			"/>
			<polygon id="XMLID_561_" class="st10" points="541.27,600.58 529.43,600.58 543.74,602.69 			"/>
		</g>
		<g id="XMLID_543_">
			<path id="XMLID_555_" class="st11" d="M551.14,603.48H401.01H250.88c-2.3,0-4.16,1.86-4.16,4.16c0,2.3,1.86,4.16,4.16,4.16
				h140.85c0-2.39,4.15-4.33,9.28-4.33c5.12,0,9.28,1.94,9.28,4.33h140.85c2.3,0,4.16-1.86,4.16-4.16
				C555.3,605.34,553.44,603.48,551.14,603.48z"/>
			<g id="XMLID_544_">
				<g>
					<g id="XMLID_60_">
						<g>
							<path id="XMLID_61_" class="st11" d="M401.01,617.44c-7.41,0-13.22-2.91-13.22-6.62c0-3.71,5.81-6.62,13.22-6.62
								s13.22,2.91,13.22,6.62C414.23,614.53,408.43,617.44,401.01,617.44z M401.01,605.89c-6.8,0-11.53,2.6-11.53,4.93
								c0,2.33,4.74,4.93,11.53,4.93c6.8,0,11.53-2.6,11.53-4.93C412.54,608.49,407.81,605.89,401.01,605.89z"/>
						</g>
					</g>
					<path id="XMLID_59_" class="st11" d="M401.01,605.89c-6.8,0-11.53,2.6-11.53,4.93c0,2.33,4.74,4.93,11.53,4.93
						c6.8,0,11.53-2.6,11.53-4.93C412.54,608.49,407.81,605.89,401.01,605.89z"/>
				</g>
			</g>
		</g>
		<g>
			<path class="st13" d="M186.57,397.59h65.63c0,0,0.98-16.16,15.67-28.41c14.69-12.24,48-53.91,15.18-104.79
				c-31.52-48.87-115.09-38.71-135.97,12.14c-20.35,49.57,6.18,76.97,24.79,92.65c7.88,6.64,11.75,16.8,13.47,23
				C186.25,395.43,186.57,397.59,186.57,397.59z"/>
			<path class="st54" d="M188.94,424.04c3.43,0.11,59.32,2.45,61.77,0c2.45-2.45,2.43-32.3,2.43-32.3l-66.8,0.45
				C186.35,392.18,184.03,423.89,188.94,424.04z"/>
			<path class="st33" d="M193.53,418.01c0,0-1.37,16.09,1.71,16.09c3.08,0,44.83,1.37,46.54,0c1.71-1.37-0.03-14.04,1-16.09
				C243.81,415.96,193.53,418.01,193.53,418.01z"/>
			<path class="st21" d="M225.89,394c0,0,0.01-68.63,0-69.67c-0.12-9.93,16.91-15.2,21.28-3c5.64,15.73-27.68,23.94-48.67,14.74
				c-28.89-12.66,9.09-33.44,9.76-12.66v74.74"/>
			<path class="st45" d="M281.16,319.61c0,0,0-46.12-28.02-58.72c-33.31-14.99-62.07-6.53-62.07-6.53S247.81,268.35,281.16,319.61z"
				/>
		</g>
	</g>
</g>
</svg>
