<svg xmlns="http://www.w3.org/2000/svg" xmlns:xlink="http://www.w3.org/1999/xlink" viewBox="0 0 1190.29 706.23">
  <style>
    .st3{fill:#dbcdb5}.st4{fill:#b2d3e5}.st5{fill:#a6c726}.st6{fill:#6e8ea1}.st7{fill:#d8e9f3}.st8{fill:#374750}.st9{fill:#64121b}.st10{fill:#262451}.st11{fill:#821e33}.st12{fill:#e0a596}.st13{fill:#96c3dc}.st16{opacity:.6;fill:#a53447;enable-background:new}.st18{fill:#82afc8}.st64{fill:none}
  </style>
  <g id="Ebene_3">
    <defs>
      <path id="SVGID_1_" d="M418.43 109.93h636.5v481.26h-636.5z"/>
    </defs>
    <clipPath id="SVGID_2_">
      <use xlink:href="#SVGID_1_" overflow="visible"/>
    </clipPath>
    <g clip-path="url(#SVGID_2_)">
      <path d="M523.49 167.66c94.53-78.62 234.93-65.8 313.58 28.62 78.65 94.41 65.78 234.69-28.75 313.29-45.42 37.77-101.44 54.44-156.11 51.07 0 0 0-.01-.02-.01h-.03c-.23-.02-1.11-.11-2.49-.17-5.98-.23-17.65 1.09-23.91 9.97-7.93 11.24-5.94 16.1-11.98 18.84-10.36 4.68-17.67-12.91-3.63-19.66 13.77-6.63 2.88-14.68 2.42-15h-.01c-44.59-10.95-86.19-35.71-117.82-73.67-78.65-94.41-65.79-234.67 28.75-313.28z" fill="#fff"/>
      <path class="st3" d="M526.95 239.53c0-.01.01-.02.02-.02l-.01.02h-.01zM528.43 237.98c-.77.86-1.3 1.39-1.44 1.51.47-.49.95-1 1.44-1.51z"/>
      <path class="st4" d="M563.65 324.78c.46 1 .66 1.59.66 1.59s-.14.24-.42.67c-3.47 5.47-28.26 42.23-63.63 36.04-.53-.1-1.07-.2-1.61-.31-.25-.05-.5-.1-.73-.16-10.96-2.39-20.88-6.54-29.49-11.25-.67-.36-1.33-.73-1.97-1.1-16.23-9.27-27.42-20.33-31.43-24.6-1.08-1.15-1.64-1.81-1.64-1.81.21-.14.43-.27.65-.41 18.66-11.65 34.78-19.11 48.7-23.49.78-.25 1.55-.48 2.32-.71 15.78-4.66 28.63-5.3 39.03-3.62 1.02.16 2.01.35 2.98.56 24.26 5.18 34.11 23.16 36.58 28.6z"/>
      <path class="st5" d="M527.04 296.2l17.22 27.48.12.19-1.89 1.18-.93-1.48-17.51-27.94c1.03.17 2.02.36 2.99.57z"/>
      <path class="st4" d="M575.49 241.1c.16 2.13.27 4.17.33 6.04.2 5.98-.04 10.26-.05 10.6 0 .01-.01.01-.01.01l-41 32.37h-.01c-.34-.06-4.55-.83-10.32-2.41-1.8-.5-3.76-1.07-5.81-1.72-10.96-3.54-24.26-9.47-28.9-18.32-1.43-2.72-2.02-4.91-2.03-6.7 0-.92.15-1.72.43-2.44 2.38-6.08 13.93-5.4 15.93-7.28 2.69-2.54-13.42-13.28-28.24-18.24-13.85-4.64-28.05-14.22-24.01-24.91.15-.38.31-.76.51-1.14.17-.36.37-.71.6-1.07 7.07-11.56 21.08-.86 23.83-6.02 2.7-5.07-43.75-37.88-23.9-53.7.3-.25.65-.5.98-.74.32-.27.63-.55.94-.78 19.97-15.63 41.1 37.17 46.67 35.72 5.66-1.48-1.5-17.58 11.39-21.79.4-.14.78-.25 1.18-.32.42-.1.83-.17 1.23-.22 11.34-1.45 17.36 14.59 18.66 29.13 1.38 15.56 8.08 33.72 11.17 31.71 2.31-1.5 4.32-12.89 10.78-13.8.77-.11 1.59-.06 2.48.15 1.74.42 3.73 1.51 6.05 3.54 7.54 6.53 10.22 20.85 11.12 32.33zM759.18 465.38c-2.12-.46-4.12-.96-5.94-1.45-5.84-1.55-9.91-3.03-10.25-3.15-.01 0-.01-.01-.01-.01l-19.34-49.13v-.01c.16-.31 2.13-4.16 5.35-9.28 1-1.6 2.13-3.33 3.36-5.11 6.61-9.57 16.25-20.71 26.18-22.61 3.05-.58 5.35-.52 7.08-.01.88.27 1.63.65 2.25 1.13 5.19 4.08 1.15 15.06 2.39 17.54 1.67 3.35 16.77-9.12 25.89-22.01 8.52-12.05 21.95-22.99 31.12-15.96.34.26.65.52.97.83.3.27.57.56.86.88 9.12 10.22-5.33 20.64-1.14 24.81 4.12 4.09 49.44-31.28 58.94-7.44.15.36.3.77.43 1.17.17.38.35.77.48 1.15 9.29 23.9-47.98 28.92-48.2 34.73-.22 5.92 17.46 3.68 17.75 17.38.01.43 0 .83-.02 1.23-.02.43-.07.84-.14 1.27-1.91 11.39-19.19 12.54-33.63 9.54-15.46-3.21-35-2.03-33.94 1.55.78 2.67 11.22 7.94 10.21 14.47-.12.77-.41 1.55-.87 2.36-.92 1.55-2.56 3.18-5.19 4.83-8.58 5.37-23.22 3.78-34.59 1.3z"/>
      <path class="st5" d="M736.51 475.13l-1.1-.57-1.1-.58.21-.41 31.3-59.86c.88.27 1.63.65 2.23 1.13l-29.99 57.33-.88 1.69-.67 1.27z"/>
      <path class="st4" d="M595.08 470.51c.21 1.55.26 2.42.26 2.42s-.29.26-.84.74c-6.91 6.04-55.31 46.07-100.9 23.5-.69-.33-1.38-.69-2.07-1.07-.31-.16-.63-.34-.94-.51-13.93-7.63-25.77-17.25-35.56-27.11-.76-.76-1.5-1.53-2.23-2.3-18.34-19.09-29.12-38.6-32.85-46-1-1.99-1.5-3.1-1.5-3.1.35-.1.69-.2 1.04-.29 30.01-8.36 54.91-12.03 75.56-12.42 1.15-.02 2.3-.04 3.42-.04 23.31-.01 41.03 4.27 54.48 10.71 1.32.63 2.59 1.28 3.83 1.95 30.94 16.75 37.12 45.12 38.3 53.52z"/>
      <path class="st5" d="M556.78 417l12.39 44.24.09.31-3.04.86-.67-2.37-12.61-44.97c1.32.62 2.6 1.26 3.84 1.93z"/>
      <path class="st4" d="M884.73 210.7c-.21.99-.42 2-.65 3-2.93 12.99-7.63 26.81-15.04 40.1-.16.3-.33.6-.5.89-.37.66-.74 1.29-1.13 1.92-25.48 41.53-85.12 33.72-93.82 32.33-.69-.11-1.07-.19-1.07-.19s-.41-.73-1.02-2.08c-3.32-7.41-12.77-33.57 3.81-62.91.66-1.17 1.36-2.34 2.11-3.52 7.63-12.07 19.83-24.58 38.75-36.44.92-.57 1.85-1.15 2.8-1.72 16.95-10.21 39.01-19.91 67.62-28.42l.99-.3s.16 1.15.36 3.29c.73 7.91 1.93 29.21-3.21 54.05z"/>
      <path class="st5" d="M790.77 265.39l-2.9.86-.09-.29-12.48-42.21c.66-1.17 1.36-2.34 2.11-3.52l12.69 42.9.67 2.26z"/>
      <path class="st4" d="M623.67 223.99c-35.36-43.99-52.32-77.74-49.13-98.06.12-.83-.43-1.61-1.25-1.75-.83-.14-1.6.43-1.72 1.27-1.96 12.56 3.1 29.61 15.05 50.73 8.76 15.47 21.22 33.14 37.07 52.63V224h-.02z"/>
      <path class="st6" d="M577.5 156.47s-10.26 7.44-22.53-11.25c0 0 18.9-6.91 22.53 11.25zM583.33 166.45s-7.94-9.91 9.89-23.32c0-.01 7.89 18.65-9.89 23.32zM572.92 135.24s-10.77-6.67 1.61-25.31c0 0 13.6 14.94-1.61 25.31zM594.46 186.87s-7.16 10.51-24.97-2.9c-.01.01 15.46-12.96 24.97 2.9zM601.93 196.12s-9.53-8.39 5.73-24.7c0 0 10.98 17.01-5.73 24.7zM610.91 209.82s-6.96 10.65-25.02-2.42c-.01 0 15.22-13.25 25.02 2.42z"/>
      <path class="st4" d="M878.26 285.06c-.76-.35-1.66-.01-2 .76-8.47 18.86-41.41 37.75-95.58 54.95l-1.22 3.57c23.72-7.44 43.63-15.25 59.3-23.26 21.49-10.99 35.02-22.43 40.24-34.01.35-.76.02-1.67-.74-2.01z"/>
      <path class="st6" d="M857.13 309.67s4.5 11.91 24.95 3.11c0 0-12.02-16.26-24.95-3.11zM846.81 314.76s12.03-3.87 4.47-24.96c.01-.01-16.76 11.2-4.47 24.96zM872.53 294.5s12.63.4 12.46-22.03c0-.01-19.51 4.91-12.46 22.03zM826.39 325.64s.24 12.74 22.44 11.44c-.01.01-5.87-19.39-22.44-11.44zM815.1 329.22s12.52-1.71 8.68-23.81c0 0-18.43 8.11-8.68 23.81zM800.14 335.68s0 12.75 22.22 11.87c0-.01-5.49-19.52-22.22-11.87z"/>
      <path class="st4" d="M957.59 591.19c53.76 0 97.34-4.99 97.34-11.14s-43.58-11.14-97.34-11.14-97.34 4.99-97.34 11.14 43.58 11.14 97.34 11.14zM627.29 233.89v-33.61s-10.91-23.18 5.15-37.23h27.41s14.95 16.29 2.8 37.29l-2.07 33.56h-33.29v-.01z"/>
      <path class="st4" d="M632.43 163.05s5.98-3.51 6.92-9.86h14.7c2.01 7.83 5.79 9.86 5.79 9.86h-27.41z"/>
      <path class="st6" d="M658.46 147.69h-24.01v8.5h24.01v-8.5z"/>
      <path class="st7" d="M650.44 164.52s14.8 17.68 11.97 27.29c.02 0 3.91-25.09-11.97-27.29zM702.52 183.79c8-9.18-6.85-4.53-15.19-1.22-6.28 2.49-21.67 9.83-9.93 11.48 10.12 1.43 22.46-7.22 25.12-10.26z"/>
      <path class="st4" d="M673.67 190.37c-5.05-.73 21.17 45.02 24.55 44.75 5.45-.45 14.55-3.46 18.6-7.42 2.74-2.68-11.07-51.62-13.04-49.33-6.33 7.37-22.8 13.05-30.11 12z"/>
      <path class="st6" d="M682.63 166.75l-3.01 1.36 8.04 17.84 3.01-1.36-8.04-17.84z"/>
      <path class="st7" d="M697.62 183.38s17.46 42.87 15.81 48.05c0 0 3.93-2.3 3.76-5.15-.17-2.84-7.65-44.43-13.4-47.94.01.02-1.87 3.76-6.17 5.04z"/>
      <path class="st4" d="M730.01 232.28l6.56-28.06s-3.51-21.48 12.63-30.09l22.89 5.36s9.31 16.53-4.95 31.69l-8.28 27.62-28.85-6.52zM749.21 174.11s5.68-1.76 7.7-6.89l12.27 2.87c.15 6.94 2.92 9.37 2.92 9.37l-22.89-5.35z"/>
      <path class="st6" d="M753.9 161.7l-1.66 7.1 20.04 4.69 1.66-7.1-20.04-4.69z"/>
      <path class="st7" d="M762.25 179.2s6.8 19.86 1.91 27.05c0 0 14.87-22.57-1.91-27.05zM769.04 165.03l-1.92 7.02 5.35 1.43 1.48-7.15-4.91-1.3z"/>
      <path class="st4" d="M827.85 566.55c0 10.99-72.49 23.52-161.91 23.52s-161.91-12.53-161.91-23.52 72.49-19.9 161.91-19.9 161.91 8.91 161.91 19.9z"/>
      <path class="st8" d="M750.15 567.37h-38.27V247.86h88.17l-28.77 300.07c-1.06 11.03-10.2 19.44-21.13 19.44z"/>
      <path class="st6" d="M808.65 247.85H514.79c-3.23 0-5.84-2.62-5.84-5.84v-14.34c0-3.23 2.62-5.84 5.84-5.84h293.85c3.23 0 5.84 2.62 5.84 5.84v14.35c.01 3.21-2.61 5.83-5.83 5.83z"/>
      <path class="st6" d="M769.42 247.85l-.72 8.11-27.68 311.41H569.77c-11.19 0-20.53-8.55-21.51-19.69l-24.24-272.61-2.42-27.22h247.82z"/>
      <path class="st8" d="M769.42 247.85l3.23 12.83-249.23 6.14-1.82-18.97h247.82z"/>
      <path class="st9" d="M924.5 310.4s-15.16 72.06-2.7 72.49c12.46.43 18.67-6.46 18.67-6.46s-.53-70.8-15.97-66.03zM988.31 360.38s10.29-6.69 5.21-17.9c-5.07-11.22-11.23-25.92-12.43-28.05-1.2-2.13-5.53 54.59-5.53 54.59l12.75-8.64z"/>
      <path class="st10" d="M920.77 390.66s1.4 121.45 10.99 169.2h22.93s5-103.14 3.46-134.97c7.66 66.13 17.22 134.19 17.22 134.19s11.69 2.02 23.93-.43c3.06-28.16 4.43-150.47-.47-175.74-6.13-14.88-27.33-10.06-27.33-10.06l-45.51 5.25-5.22 12.56z"/>
      <path class="st11" d="M934.18 369.33c1.86 3.35-10.42 22.83-13.42 21.33 1.8.91-30.42-30.58-17.11-64.22 10.09-25.48 11.58-39.3 19.16-46.87s22.33-8.86 22.18-8.82c-.15.04 12.46 9.47 26.8.21 0 0 21.66 4.69 26.95 13.08 5.29 8.39 11.27 19.49 18.87 41.31 3.5 10.05 9.22 34.5-12.65 52.07-17.13 13.76-22.69 13.39-27.2 13.05-4.5-.33-4.19-17.64-2.2-21.49 2.42-4.66 18.15-11.75 14.47-26.84-2.21-9.03-7.48-21.62-7.48-21.62s5.99 25.73-1.35 37.16c-14.23 22.12-.68 26.91-4.29 26.74-3.04-.16-23.51-7.83-33.03-8.05 0 0-14.9-16.76-14.71-29.84.19-13.08 4.38-20.29-.62-33.91-5-13.62 0 0 0 0s-2.56 22.79-1.36 36.28c.57 6.89-.54 6.86 6.99 20.43z"/>
      <path class="st10" d="M978.65 240.92s.56 10.04-6.07 13.12c-6.63 3.07-10.64 3.34-10.91 4.74 1.02-5.21 3.33-22.9 3.77-22.27.46.62 13.21 4.41 13.21 4.41z"/>
      <path class="st12" d="M939.83 234.35s-11.48 17.64 10.23 23.85c1.24 8.06.62 10.55.62 10.55s10.54 7.31 14.27-1.11v-15.02s10.17-3.05 2.13-12.94c-14.83-2.91-27.25-5.33-27.25-5.33z"/>
      <path class="st13" d="M943.23 225.44s1.79-16.32 21.68-12.51c19.02 3.65 16.19 23.47 13.76 27.99-3.18.31-13.01-1.42-13.01-1.42s-12.76-11.97-22.43-14.06z"/>
      <path class="st13" d="M967.07 239.66s-38.29-4.14-40.4-10.37c-2.11-6.24 12.06-4.3 16.55-3.84 4.5.45 21.61 5.9 23.85 14.21z"/>
      <path d="M950.06 258.19s7.89-.05 11.17-3.72c-1.23 3.67-10.55 6.94-10.55 6.94l-.62-3.22z" opacity=".6" fill="#f08371"/>
      <path class="st11" d="M964.99 265.29s4.57-.29 6.53 5.68c-1.12 4.13-7.23 6.28-13.36 6.2-8.61-.11-13.36-3.2-14.09-6.22-.5-2.07 5.48-6.38 7.33-4.22.11 1.41 9.7 4.58 13.59-1.44z"/>
      <path d="M958.15 422.45l.29 11.84-11.41-28.16 11.12 16.32z" opacity=".6" fill="#2f1b42"/>
      <path class="st16" d="M940.47 277.18s9.24 7.49 19.12 6.28c-7.88 3.06-14.44 1.53-19.12-6.28zM947.02 328.81s8.25 20.04 25.41 35.09c-10.98.39-21.51-13.86-25.41-35.09z"/>
      <path class="st12" d="M982.33 559.77v7.48l11.64 3.98v-11.76s-8.17.49-11.64.3z"/>
      <path class="st10" d="M982.33 567.26s9.18 1.33 11.64 3.98c2.46 2.66 0 5.72 0 5.72s-22.87 2.25-24.7 0c-1.84-2.26 6.12-8.17 13.06-9.7z"/>
      <path class="st12" d="M937.43 559.47v7.78l11.64 3.98v-11.36c0 .01-6.64-.71-11.64-.4z"/>
      <path class="st10" d="M937.43 567.26s9.18 1.33 11.64 3.98c2.46 2.66 0 5.72 0 5.72s-22.87 2.25-24.7 0c-1.84-2.26 6.12-8.17 13.06-9.7z"/>
      <path d="M974.35 373.8s-.48-6.14 2.46-4.02c4.38 3.15 4.64 18.28.19 20.4 0 0-1.9.82-2.92-4.45 0 0 2.57-.02 2.54-1.29-.02-1.27.59-9.7-2.27-10.64z" opacity=".6" fill="#902032"/>
      <path class="st18" d="M943.23 225.44s4.96 6.2 18.42 10.3c13.1 3.99-19.63-.34-27.06-10.95l8.64.65z"/>
      <path class="st13" d="M972.43 365.85s4.5-4.98-15.81-4.98c-17.44 0-19.19 2.13-18.71 4.98.49 2.84 34.33 6.03 34.52 0z"/>
      <path class="st10" d="M971.35 365.08c1.55-2.54-23.66-4.68-32.07-.58-6.17 3 26.45 9.85 32.07.58z"/>
      <path class="st13" d="M971.04 364.42c-10.05 4.11-20.3 4.12-31.29.09-5.05-1.85.3 19.85 7.41 22 5.04 1.1 11.76 1.07 17.78-.36 5.67-1.33 11.14-23.79 6.1-21.73z"/>
      <path class="st12" d="M977.93 372.25c-2.92-.73-12.87 4.71-15.76 7.99-1.69 1.91-.62 8.1 5.5 7.12 8.82-1.43 11.98-2.36 12.56-4.27.41-1.4-.48-10.38-2.3-10.84zM927.49 386.16c2.28 1.96 13.62 1.54 17.67-.09 2.36-.96 4.18-6.97-1.74-8.82-8.52-2.68-11.77-3.25-13.14-1.8-1 1.04-4.21 9.48-2.79 10.71z"/>
      <path class="st6" d="M462.69 211.67c4.96 0 26.25 1.24 36.38 1.24 8.68 0 16.22 1.49 3.32 2.48-16.13 1.24-45.9-3.72-39.7-3.72zM497.14 260.15c4.85 1.07 25.37 6.85 35.27 9.02 8.48 1.86 15.52 4.94 2.71 3.14-16.02-2.25-44.04-13.49-37.98-12.16zM517.46 165.47c-.77 5.62-2.83 29.89-4.4 41.36-1.34 9.83-1.04 18.57 1.94 4.09 3.72-18.08 3.42-52.47 2.46-45.45z"/>
      <path class="st6" d="M456.27 147.77c2.48-1.24 51.28 61.41 73.2 88.71 0 4.76-1.12 11.91-5.58 2.48-5.59-11.78-69.37-90.31-67.62-91.19zM813.86 368.87c-.98 4.86-6.42 25.48-8.43 35.41-1.72 8.51-4.68 15.6-3.09 2.76 1.98-16.05 12.75-44.25 11.52-38.17zM848.28 431.71c-5.36-1.87-28.74-8.71-39.67-12.52-9.37-3.27-17.99-4.7-4.4 1.09 16.99 7.25 50.76 13.76 44.07 11.43z"/>
      <path class="st6" d="M877.76 375.25c.72 2.68-67.4 36.85-98.5 52.92 0 0-1.19-5.11 0-5.58 12.4-4.96 97.99-49.23 98.5-47.34zM472.64 352.44c2.41-2.51 13.56-12.46 18.47-17.58 4.21-4.39 8.86-7.24 3.26-.09-7 8.94-24.74 20.8-21.73 17.67zM502.21 361.25c3.87-2.58 20.93-14.19 28.82-19.46 6.77-4.52 13.22-6.34 3.55.96-12.08 9.12-37.21 21.73-32.37 18.5zM475.87 302.38c2.47 3.11 13.72 15.93 18.75 22.28 4.31 5.45 10.12 9.53 4.25 1-7.33-10.65-26.08-27.17-23-23.28zM503.61 298.64c2.33 3.86 13.47 19.76 18.24 27.65 4.08 6.76 8.98 11.82 3.81 1.23-6.46-13.25-24.96-33.71-22.05-28.88z"/>
      <path class="st6" d="M437.26 324.7c.58-1.85 69.66 5.15 94.07 7.32 2.4 2.31 4.96 4.34-15.23 2.76-9.1-.72-79.25-8.77-78.84-10.08zM456.09 467.95c4.09-2.21 22.37-10.34 30.73-14.85 7.16-3.87 14.25-5.61 4.19 1.22-12.57 8.52-40.03 16.39-34.92 13.63zM490.18 491.27c5.98-1.71 32.48-9.52 44.69-13.02 10.47-3 19.43-2.68 4.13 2.67-19.12 6.68-56.3 12.49-48.82 10.35zM480.68 405.47c1.87 4.98 10.98 25.91 14.79 36.07 3.27 8.71 9 16.28 5.01 3.02-4.99-16.59-22.14-45.31-19.8-39.09zM517.57 412.04c1.4 5.88 9.09 30.69 11.94 42.7 2.44 10.29 6.61 18.73 4.36 3.12-2.83-19.52-18.04-53.17-16.3-45.82z"/>
      <path class="st6" d="M422.35 418.12c1.49-2.13 94.27 38.24 124.49 50.99 2.12 3.92-3.04 4.37-28.13-5.91-11.31-4.63-97.42-43.57-96.36-45.08z"/>
    </g>
    <path class="st4" d="M813.59 631.02c41.45 0 75.06-4.72 75.06-10.55 0-5.82-33.61-10.55-75.06-10.55s-75.06 4.72-75.06 10.55c-.01 5.83 33.6 10.55 75.06 10.55z"/>
    <path class="st6" d="M879.28 218.04c-4.27-.14-22.65.68-31.38.39-7.48-.24-14.02 1.24-2.95 2.72 13.84 1.87 39.67-2.93 34.33-3.11zM865.87 248.56c-6.41.59-34.86 3.02-47.95 4.22-11.21 1.04-19.76 4.39-3.02 3.7 20.93-.85 58.98-8.66 50.97-7.92zM833.4 176.73c.5 4.86 1.61 25.82 2.64 35.75.88 8.51-.72 17.09-2.88 4.54-2.71-15.69-.39-46.36.24-40.29zM804.9 193.68c1.27 5.41 5.97 32.59 8.55 43.63 2.22 9.47 2.25 18.13-2.3 4.35-5.69-17.2-7.83-54.74-6.25-47.98z"/>
    <path class="st6" d="M886.79 155.84c-6.2 4.96-64.06 79.64-88.09 105.46-.13 4.1 10.69-2.7 27.12-21.45 7.4-8.46 62.29-85.07 60.97-84.01z"/>
  </g>
  <g id="Ebene_1">
    <circle cx="187.9" cy="363.37" r="90.18" fill="#61808f"/>
    <path class="st10" d="M211.99 263.15s3.2 12.62-4.46 18.16c-7.65 5.54-12.67 6.86-12.67 8.71 0-6.86-1.45-29.9-.72-29.2.74.69 17.85 2.33 17.85 2.33z"/>
    <path class="st12" d="M161.08 264.41s-8.98 25.87 16.36 27.98c-.53 9.5 0 12.67 0 12.67s14.78 7.92 17.42-3.69v-20.06s14.78-6.34 2.11-16.89c-19.52-.01-35.89-.01-35.89-.01z"/>
    <path class="st13" d="M163.19 252.27s-1.76-21.17 24.42-21.25c25.05-.08 26.36 25.79 24.38 32.12-3.96 1.19-16.87 1.41-16.87 1.41s-19.12-12.01-31.93-12.28z"/>
    <path class="st13" d="M196.98 264.41s-49.62 4.22-53.85-3.17c-4.22-7.39 14.25-8.44 20.06-8.97 5.81-.53 28.89 2.16 33.79 12.14z"/>
    <path d="M177.45 292.39s8.98-1.59 13.2-6.34c-1.58 4.75-13.36 9.77-13.36 9.77l.16-3.43z" opacity=".6" fill="#f08371"/>
    <path class="st11" d="M194.87 301.37s5.91-.37 8.43 7.35c-1.44 5.35-9.36 8.12-17.27 8.02-11.13-.14-17.28-4.15-18.22-8.04-.65-2.68 7.09-8.26 9.49-5.45.15 1.81 12.55 5.91 17.57-1.88z"/>
    <path d="M163.17 316.75s11.95 9.7 24.73 8.11c-10.19 3.96-18.68 1.99-24.73-8.11z" opacity=".6" fill="#a43446"/>
    <path class="st18" d="M163.19 252.27s7.83 6.64 25.93 8.53c17.61 1.83-24.99 4.43-37.07-7.2l11.14-1.33z"/>
    <path class="st64" d="M217.59 374.73s7.76 33.28-1.75 48.05c-3.58 5.56-5.79 10.27-7.08 14.25 3.73-6.04 23.17-15.22 18.49-34.34-2.84-11.67-9.66-27.96-9.66-27.96zM145.35 358.03c-.04-.12-.08-.23-.12-.33.04.11.08.21.12.33zM145.11 357.36c-.09-.24-.15-.42-.19-.52.04.11.1.29.19.52z"/>
    <path class="st64" d="M114.74 392.21c13.05-32.95 15.8-60.69 25.6-70.47 9.8-9.79 28.88-11.45 28.69-11.4-.2.05 16.11 12.25 34.65.28 0 0 28.01 6.07 34.85 16.92s14.57 25.21 24.4 53.43c1.97 5.64 4.47 14.8 4.36 25.22 6.88-12.74 10.79-27.32 10.79-42.81 0-49.8-40.37-90.18-90.18-90.18-49.8 0-90.18 40.37-90.18 90.18 0 16.99 4.7 32.88 12.87 46.45.48-5.71 1.77-11.61 4.15-17.62z"/>
    <path class="st64" d="M144.88 356.74c-.03-.08-.03-.08 0 0zM147.73 364.5c-.53-1.44-.96-2.62-1.33-3.62.68 1.85 1.33 3.62 1.33 3.62zM146 359.8c-.1-.26-.19-.51-.27-.73.09.24.18.48.27.73zM147.73 364.5s-1.1 30-6 46.81c-3.26 11.19-4.52 19.05-2.12 28.23 1.48.94 3 1.84 4.54 2.7-1.1-2.98-1.8-6.47-1.74-10.52.24-16.91 11.78-49.6 5.32-67.22z"/>
    <path class="st11" d="M238.52 327.53c-6.84-10.85-34.85-16.92-34.85-16.92-18.54 11.97-34.85-.23-34.65-.28.2-.05-18.88 1.61-28.69 11.4-9.8 9.79-12.55 37.52-25.6 70.47-2.38 6.01-3.67 11.91-4.15 17.61 7.24 12.01 17.19 22.2 29.02 29.72-2.4-9.18-1.15-17.04 2.12-28.23 4.9-16.81 6-46.81 6-46.81s-.65-1.77-1.33-3.62c.37 1 .8 2.18 1.33 3.62 6.46 17.62-5.08 50.31-5.32 67.22-.06 4.05.65 7.54 1.74 10.52 12.96 7.2 27.87 11.31 43.75 11.31 34.31 0 64.14-19.16 79.38-47.36.11-10.42-2.39-19.57-4.36-25.22-9.81-28.22-17.55-42.58-24.39-53.43zm-92.79 31.54c.08.23.17.47.27.73-.09-.25-.18-.49-.27-.73zm-.85-2.33c-.03-.08-.03-.08 0 0zm.03.09c.04.11.11.29.19.52-.08-.22-.14-.4-.19-.52zm.32.87c.04.1.08.21.12.33-.04-.12-.08-.22-.12-.33zm63.54 79.33c1.29-3.98 3.5-8.69 7.08-14.25 9.5-14.77 1.75-48.05 1.75-48.05s6.82 16.29 9.67 27.96c4.66 19.13-14.78 28.3-18.5 34.34z"/>
  </g>
</svg>