<?xml version="1.0" encoding="utf-8"?>
<!-- Generator: Adobe Illustrator 23.0.6, SVG Export Plug-In . SVG Version: 6.00 Build 0)  -->
<svg version="1.1" xmlns="http://www.w3.org/2000/svg" xmlns:xlink="http://www.w3.org/1999/xlink" x="0px" y="0px"
	 viewBox="0 0 567.55 515.1" style="enable-background:new 0 0 567.55 515.1;" xml:space="preserve">
<style type="text/css">
	.st0{opacity:0.37;fill:#D9E6E8;}
	.st1{clip-path:url(#SVGID_2_);}
	.st2{fill:#FFFFFF;}
	.st3{fill:#DBCDB5;}
	.st4{fill:#B2D3E5;}
	.st5{fill:#A6C726;}
	.st6{fill:#6E8EA1;}
	.st7{fill:#D8E9F3;}
	.st8{fill:#374750;}
	.st9{fill:#64121B;}
	.st10{fill:#262451;}
	.st11{fill:#821E33;}
	.st12{fill:#E0A596;}
	.st13{fill:#96C3DC;}
	.st14{opacity:0.6;fill:#F08371;enable-background:new    ;}
	.st15{opacity:0.6;fill:#2F1B42;enable-background:new    ;}
	.st16{opacity:0.6;fill:#A53447;enable-background:new    ;}
	.st17{opacity:0.6;fill:#902032;enable-background:new    ;}
	.st18{fill:#82AFC8;}
	.st19{clip-path:url(#SVGID_4_);}
	.st20{fill:#678596;}
	.st21{fill:none;stroke:#FFFFFF;stroke-width:4;stroke-miterlimit:10;}
	.st22{fill:none;stroke:#B2D3E5;stroke-width:3;}
	.st23{clip-path:url(#SVGID_6_);}
	.st24{fill:#61808F;}
	.st25{fill:#64121A;}
	.st26{opacity:0.6;fill:#F08371;}
	.st27{opacity:0.6;fill:#2F1B43;}
	.st28{opacity:0.6;fill:#A43446;}
	.st29{opacity:0.6;fill:#902032;}
	.st30{fill:#3D5663;}
	.st31{fill:#8EB6C7;}
	.st32{fill:#3C505A;}
	.st33{fill:#4F6976;}
	.st34{fill:#996663;}
	.st35{fill:#1F1430;}
	.st36{fill:#D29B8D;}
	.st37{fill:none;stroke:#823C37;stroke-width:1.5;stroke-linecap:round;stroke-miterlimit:10;}
	.st38{fill:#B0CFD6;}
	.st39{fill:#282451;}
	.st40{fill:#811E33;}
	.st41{fill:#64121C;}
	.st42{fill:#201630;}
	.st43{fill:#95C2DB;}
	.st44{fill:#81AEC7;}
	.st45{opacity:0.58;fill:#FFFFFF;}
	.st46{fill:#70ACCE;}
	.st47{fill:#ABCAD8;}
	.st48{fill:none;stroke:#263062;stroke-width:3;stroke-linecap:round;stroke-miterlimit:10;}
	.st49{fill:#C3D9E0;}
	.st50{opacity:0.64;}
	.st51{fill:none;stroke:#262451;stroke-width:3;stroke-linecap:round;stroke-miterlimit:10;}
	.st52{fill:none;stroke:#262451;stroke-width:3;stroke-linecap:round;stroke-miterlimit:10;stroke-dasharray:11.7706,11.7706;}
	.st53{fill:#EAE3C3;}
	.st54{fill:#C5D4D8;}
	.st55{fill:#BCB592;}
	.st56{fill:#8A9C9B;}
	.st57{fill:#A2BAB9;}
	.st58{fill:#E8EAEA;}
	.st59{fill:#75A6B7;}
	.st60{fill:#B3D4E1;}
	.st61{fill:#D0E4EA;}
	.st62{fill:#62818F;}
	.st63{fill:#E3F0F5;}
	.st64{fill:none;}
	.st65{fill:none;stroke:#62818F;stroke-width:6;stroke-miterlimit:10;}
</style>
<g id="Ebene_3">
</g>
<g id="Ebene_1">
	<g id="Ebene_2">
		<g>
			<path class="st4" d="M58.46,57.27v372.8c12.27,2.4,24.82,2.77,37.07,0.3c41.65-8.41,73.42-47.73,115.81-50.68
				c31.77-2.21,64.6,16.75,94.33,5.33c12.45-4.78,22.35-14.33,33.59-21.51c16.44-10.5,25.33-8.15,41.21-2.27
				c13.69,5.06,25.89,5.95,36.48-5.87c6.7-7.49,8.6-24.63,15.69-29.03c-2.44-6.21-8.11-10.21-13.91-13.16
				c-22.47-11.47-42.81-23.35-43.6-51.36c-0.5-17.63,2.8-37.08-7.44-51.44c-11.18-15.66-35.07-19.58-43.47-36.89
				c-9.74-20.05,7.04-46.93-5.61-65.28c-14.01-20.34-47.1-8.9-69.11-20.1c-12.28-6.25-19.19-18.39-25.89-30.84H58.46z"/>
			<g>
				<path class="st6" d="M375.13,237.04c-0.01-0.48-0.02-0.97-0.03-1.45c0.05,1.03,0.09,2.07,0.12,3.11
					C375.18,238.15,375.15,237.61,375.13,237.04z"/>
				<path class="st6" d="M322.37,116.54c2.15,8.15,0.91,17.29-0.21,26.48C320.08,134.71,321.27,125.58,322.37,116.54z"/>
				<path class="st6" d="M95.53,405.59c41.65-8.41,73.42-47.73,115.81-50.68c31.77-2.21,64.6,16.75,94.33,5.33
					c12.45-4.78,22.35-14.33,33.59-21.51c16.44-10.5,25.33-8.15,41.21-2.27c13.69,5.06,25.89,5.95,36.48-5.87
					c3.08-3.44,5.14-8.91,7.16-14.25c3.69,2.55,6.87,5.76,8.53,10c-7.09,4.4-8.99,21.54-15.69,29.03
					c-10.59,11.82-22.79,10.93-36.48,5.87c-15.88-5.88-24.77-8.23-41.21,2.27c-11.24,7.18-21.14,16.73-33.59,21.51
					c-29.73,11.42-62.56-7.54-94.33-5.33c-42.39,2.95-74.16,42.27-115.81,50.68c-12.25,2.47-24.8,2.1-37.07-0.3v-24.78
					C70.73,407.69,83.28,408.06,95.53,405.59z"/>
			</g>
			<path class="st6" d="M457.6,401.42l4.76,1.09l2.4-10.49l-4.76-1.09c-1.21-0.28-2.42,0.48-2.7,1.69l-1.4,6.09
				C455.63,399.93,456.38,401.14,457.6,401.42z"/>
			<path class="st2" d="M462.24,377.52l-0.75,11.43l-1.98,30.03c-0.3,4.69,3.24,8.73,7.93,9.04c4.69,0.3,8.74-3.24,9.04-7.93
				l1.88-28.43l0.85-13.02L462.24,377.52z"/>
			<path class="st4" d="M476.47,420.09c-0.3,4.69-4.35,8.23-9.04,7.93c-4.68-0.31-8.23-4.35-7.93-9.04l0.25-3.74
				c0.74,3.67,3.85,6.54,7.77,6.8c4.69,0.3,8.74-3.24,9.04-7.93L476.47,420.09z"/>
			<path class="st4" d="M462.24,377.52l-0.75,11.43l13.45,3.17c1.2,0.28,2.4,0.09,3.41-0.45l0.85-13.02L462.24,377.52z"/>
			<path class="st2" d="M452.82,328.28l-17.55,47.18l19.36,3.72l19.38,3.72l12.86,2.47c8.52,3.17,18-1.17,21.17-9.69
				c1.58-4.26,1.29-8.77-0.46-12.6c-1.75-3.83-4.98-6.99-9.23-8.58L487,347.97l-17.1-9.85L452.82,328.28z"/>
			<path class="st4" d="M485.94,377.9c8.52,3.17,18.01-1.17,21.18-9.7l0,0c0.49-1.32,0.78-2.67,0.92-4.01
				c1.33,3.57,1.45,7.62,0.01,11.47c-3.17,8.52-12.65,12.87-21.18,9.7l-51.6-9.91l5.36-14.41L485.94,377.9z"/>
			<path class="st6" d="M468.99,334.29l-17.55,47.18l25.24,5.94c2.4,0.56,4.84-0.74,5.69-3.05l11.92-32.06
				c0.86-2.31-0.14-4.89-2.32-6.03L468.99,334.29z"/>
			<path class="st8" d="M476.71,379.09c2.4,0.56,4.84-0.74,5.7-3.05l10.74-28.88c1.33,1.32,1.84,3.32,1.15,5.16l-11.92,32.06
				c-0.86,2.31-3.3,3.61-5.69,3.05l-25.24-5.94l2.85-7.67L476.71,379.09z"/>
			<polygon class="st2" points="468.99,334.29 460.22,357.89 451.44,381.48 390.42,376.3 419.41,298.34 			"/>
			<polygon class="st4" points="451.44,381.48 390.42,376.3 396.99,358.64 455.74,369.92 			"/>
			<path class="st8" d="M390.65,382.63L390.65,382.63c1.51,0.56,3.19-0.21,3.76-1.72l31.03-83.45c0.56-1.51-0.21-3.19-1.72-3.76l0,0
				c-1.51-0.56-3.19,0.21-3.76,1.72l-31.03,83.45C388.36,380.38,389.13,382.07,390.65,382.63z"/>
			<path class="st6" d="M388.93,378.87l1.54-4.13c0.13,1.05,0.81,1.99,1.87,2.38c1.51,0.56,3.19-0.21,3.76-1.72l29.5-79.32
				c0.06,0.45,0.02,0.92-0.15,1.38l-31.03,83.45c-0.56,1.51-2.24,2.28-3.76,1.72C389.13,382.07,388.36,380.38,388.93,378.87z"/>
		</g>
	</g>
</g>
</svg>
