<?xml version="1.0" encoding="utf-8"?>
<!-- Generator: Adobe Illustrator 23.0.6, SVG Export Plug-In . SVG Version: 6.00 Build 0)  -->
<svg version="1.1" xmlns="http://www.w3.org/2000/svg" xmlns:xlink="http://www.w3.org/1999/xlink" x="0px" y="0px"
	 viewBox="0 0 847.27 632.62" style="enable-background:new 0 0 847.27 632.62;" xml:space="preserve">
<style type="text/css">
	.st0{opacity:0.37;fill:#D9E6E8;}
	.st1{clip-path:url(#SVGID_2_);}
	.st2{fill:#FFFFFF;}
	.st3{fill:#DBCDB5;}
	.st4{fill:#B2D3E5;}
	.st5{fill:#A6C726;}
	.st6{fill:#6E8EA1;}
	.st7{fill:#D8E9F3;}
	.st8{fill:#374750;}
	.st9{fill:#64121B;}
	.st10{fill:#262451;}
	.st11{fill:#821E33;}
	.st12{fill:#E0A596;}
	.st13{fill:#96C3DC;}
	.st14{opacity:0.6;fill:#F08371;enable-background:new    ;}
	.st15{opacity:0.6;fill:#2F1B42;enable-background:new    ;}
	.st16{opacity:0.6;fill:#A53447;enable-background:new    ;}
	.st17{opacity:0.6;fill:#902032;enable-background:new    ;}
	.st18{fill:#82AFC8;}
	.st19{clip-path:url(#SVGID_4_);}
	.st20{fill:#678596;}
	.st21{fill:none;stroke:#FFFFFF;stroke-width:4;stroke-miterlimit:10;}
	.st22{fill:none;stroke:#B2D3E5;stroke-width:3;}
	.st23{clip-path:url(#SVGID_6_);}
	.st24{fill:#61808F;}
	.st25{fill:#64121A;}
	.st26{opacity:0.6;fill:#F08371;}
	.st27{opacity:0.6;fill:#2F1B43;}
	.st28{opacity:0.6;fill:#A43446;}
	.st29{opacity:0.6;fill:#902032;}
	.st30{fill:#3D5663;}
	.st31{fill:#8EB6C7;}
	.st32{fill:#3C505A;}
	.st33{fill:#4F6976;}
	.st34{fill:#996663;}
	.st35{fill:#1F1430;}
	.st36{fill:#D29B8D;}
	.st37{fill:none;stroke:#823C37;stroke-width:1.5;stroke-linecap:round;stroke-miterlimit:10;}
	.st38{fill:#B0CFD6;}
	.st39{fill:#282451;}
	.st40{fill:#811E33;}
	.st41{fill:#64121C;}
	.st42{fill:#201630;}
	.st43{fill:#95C2DB;}
	.st44{fill:#81AEC7;}
	.st45{opacity:0.58;fill:#FFFFFF;}
	.st46{fill:#70ACCE;}
	.st47{fill:#ABCAD8;}
	.st48{fill:none;stroke:#263062;stroke-width:3;stroke-linecap:round;stroke-miterlimit:10;}
	.st49{fill:#C3D9E0;}
	.st50{opacity:0.64;}
	.st51{fill:none;stroke:#262451;stroke-width:3;stroke-linecap:round;stroke-miterlimit:10;}
	.st52{fill:none;stroke:#262451;stroke-width:3;stroke-linecap:round;stroke-miterlimit:10;stroke-dasharray:11.7706,11.7706;}
	.st53{fill:#EAE3C3;}
	.st54{fill:#C5D4D8;}
	.st55{fill:#BCB592;}
	.st56{fill:#8A9C9B;}
	.st57{fill:#A2BAB9;}
	.st58{fill:#E8EAEA;}
	.st59{fill:#75A6B7;}
	.st60{fill:#B3D4E1;}
	.st61{fill:#D0E4EA;}
	.st62{fill:#62818F;}
	.st63{fill:#E3F0F5;}
	.st64{fill:none;}
	.st65{fill:none;stroke:#62818F;stroke-width:6;stroke-miterlimit:10;}
</style>
<g id="Ebene_3">
</g>
<g id="Ebene_1">
	<g id="Ebene_2">
		<g>
			<path class="st48" d="M142.37,342.8c0,0-6.14-46.13-17.26-57.47"/>
			<path class="st38" d="M126.9,257.89c2.97,9.83,2.36,18.71-1.36,19.83s-9.14-5.94-12.11-15.77c-0.03-0.1-0.06-0.2-0.09-0.3
				c-2.52-8.76,10.71-12.75,13.46-4.07C126.84,257.69,126.88,257.79,126.9,257.89z"/>
			<g>
				<path class="st38" d="M144.55,279.86c-9.83,2.97-18.71,2.36-19.83-1.36c-1.12-3.72,5.94-9.14,15.77-12.11
					c0.1-0.03,0.2-0.06,0.29-0.09c8.76-2.52,12.75,10.71,4.07,13.46C144.74,279.8,144.64,279.83,144.55,279.86z"/>
				<path class="st38" d="M110.91,290.02c9.83-2.97,16.89-8.39,15.77-12.11s-10-4.33-19.83-1.36c-0.1,0.03-0.2,0.06-0.29,0.09
					c-8.69,2.75-4.69,15.98,4.07,13.46C110.72,290.08,110.82,290.05,110.91,290.02z"/>
			</g>
			<g>
				<path class="st38" d="M127.46,301.19c2.76-9.89,1.97-18.76-1.77-19.8c-3.74-1.05-9.02,6.13-11.78,16.02
					c-0.03,0.1-0.05,0.2-0.08,0.3c-2.33,8.81,10.97,12.53,13.55,3.78C127.41,301.39,127.43,301.29,127.46,301.19z"/>
				<path class="st38" d="M136.95,298.32c-7.78-6.71-12.03-14.53-9.49-17.47c2.54-2.94,10.9,0.11,18.68,6.82
					c0.08,0.07,0.16,0.13,0.23,0.2c6.82,6.04-2.2,16.51-9.18,10.65C137.11,298.46,137.03,298.39,136.95,298.32z"/>
			</g>
			<path class="st10" d="M130.18,279.01c0.77,2.54-0.67,5.23-3.21,5.99c-2.54,0.77-5.23-0.67-5.99-3.21
				c-0.77-2.54,0.67-5.23,3.21-5.99C126.73,275.03,129.42,276.47,130.18,279.01z"/>
			<g>
				<path class="st24" d="M124.24,313.15c12.77,10.06,20.04,22.14,16.23,26.97c-3.81,4.83-17.25,0.59-30.02-9.47
					c-12.77-10.06-16.23-26.97-16.23-26.97S111.46,303.09,124.24,313.15z"/>
				<path class="st24" d="M169.09,328.38c-13.48,12.66-28.29,18.79-33.08,13.69s2.26-19.5,15.74-32.16
					c13.48-12.66,33.08-13.69,33.08-13.69S182.58,315.72,169.09,328.38z"/>
			</g>
			<g>
				<polygon class="st10" points="159.18,397 115.07,397 107.35,341.5 166.9,341.5 				"/>
				<path class="st10" d="M170.88,355.73h-67.5c-0.81,0-1.47-0.66-1.47-1.47v-17.7c0-0.81,0.66-1.47,1.47-1.47h67.5
					c0.81,0,1.47,0.66,1.47,1.47v17.7C172.34,355.07,171.69,355.73,170.88,355.73z"/>
			</g>
		</g>
		<g>
			<g>
				<path class="st46" d="M418.8,253.1c-1.33-1.81-20.1,13.04-29.35,18.92c-9.24,5.88-16.53,4.76-24.37,4.76
					c-7.84,0-1.4-5.6,7.84-7.28c9.24-1.68,22.13-8.68,34.46-15.69c12.33-7,7.19-16.03,7.56-22.13c0.87-14.15-0.84-36.14-1.4-37.54
					c-0.56-1.4-8.68,13.45-12.89,19.89c-4.2,6.44-14.85,14.01-20.73,18.21c-5.88,4.2-19.05,15.97-22.97,14.57
					c-3.92-1.4,0-5.88,5.88-8.68c5.88-2.8,24.09-20.45,29.97-24.37c5.88-3.92,11.77-9.8,15.13-22.13
					c3.36-12.33-10.36-32.78-14.57-36.7c-4.2-3.92-5.32-12.33-7-0.28c-1.68,12.05-17.93,35.02-21.29,41.46
					c-3.36,6.44-11.49,17.37-16.25,15.97c-4.76-1.4,7.56-15.41,12.33-21.57c4.76-6.16,8.96-10.08,15.69-21.57
					c6.72-11.49,8.4-22.69,2.52-30.81c-5.88-8.12-35.58-22.13-43.14-26.61c-7.56-4.48-7.84-10.08-9.8-9.8
					c-1.96,0.28-7.84,8.96-15.13,9.8c-7.28,0.84-12.05,1.4-20.17,8.68c-8.12,7.28-2.52,33.62,3.92,38.66
					c6.44,5.04,19.89,25.77,14.29,30.81c-5.6,5.04-16.25-24.37-22.13-28.57c-5.88-4.2-12.61-18.21-12.33-27.45
					c0.28-9.24-0.56-8.96-6.16-4.2c-5.6,4.76-15.97,14.85-20.73,32.49c-4.76,17.65,14.57,26.61,22.41,37.26
					c7.84,10.64,40.34,28.85,32.49,33.62c-7.84,4.76-38.66-28.85-52.66-42.3c-14.01-13.45-8.12-21.29-12.05-20.45
					c-3.92,0.84-21.29,27.45-16.77,46.22c4.52,18.77,39.74,32.5,54.31,36.42c14.57,3.92,23.53,5.32,19.33,9.52
					c-4.2,4.2-45.38-14.01-57.15-20.17c-11.77-6.16-8.4-14.85-9.8-14.01c-1.4,0.84-12.61,38.1-2.52,47.06
					c10.08,8.96,22.13,6.16,42.58,9.52c20.45,3.36-3.36,2.24-24.65,4.2c-21.29,1.96,4.63,31.83,18.49,38.66
					c42.02,20.73,63.78-0.43,62.66-37.23c-0.06-1.92,0.91,2.05,1.93,2.49c1.4-0.56,3.76,4.76,3.48,11.21
					c-0.28,6.44,2.6,20.76,19.61,26.05c23.06,7.18,36.35-3.57,42.8-12.2c6.09-8.15,12.69-12.43,21.94-25.59
					C423.66,279.04,420.14,254.91,418.8,253.1z M358.01,137.94c0.45,4.51-0.44,7.96-6.05,3.01
					C347.88,137.35,357.56,133.43,358.01,137.94z M319.99,267.12c-1.69,2.42-6.84,1.89-10.83-3.78c-3.99-5.67,2.24-4.55,6.79-3.85
					C320.5,260.18,321.46,265.01,319.99,267.12z M321.34,234.76c-0.63,1.68-3.25,0.44-5.67-1.47c-3.43-2.71-6.3-5.46-4.83-7.98
					c1.47-2.52,6.51-0.21,7.77,2.94C319.87,231.4,321.97,233.08,321.34,234.76z M343.61,259.34c-3.36,0.42-7.14,0.21-6.3-5.25
					c0.84-5.46,6.6-8.58,9.66-6.93C352.85,250.31,346.97,258.92,343.61,259.34z"/>
				<path class="st46" d="M291.6,335.97c-8.69,0-18.71-2.74-29.76-8.18c-5.32-2.63-12.37-8.57-17.96-15.15
					c-6.31-7.44-9.48-14.17-8.68-18.48c0.61-3.31,3.4-5.22,8.27-5.67c7.13-0.66,14.53-0.97,20.47-1.22
					c5.22-0.22,10.18-0.43,11.46-0.79c-0.6-0.25-2.36-0.72-7.31-1.53c-6.44-1.06-12.06-1.51-17.02-1.9
					c-10.88-0.87-18.74-1.49-25.73-7.7c-3.61-3.21-4.95-10.12-3.98-20.53c1.12-11.94,5.16-25.53,6.44-26.97
					c-3.33-3.55-5.74-7.4-6.73-11.5c-2.93-12.19,3.13-27.82,9.78-38.38c2.96-4.7,5.8-7.93,7.25-8.24c0.59-0.13,1.02-0.08,1.35,0.15
					c0.57,0.4,0.69,1.26,0.88,2.55c0.46,3.28,1.33,9.39,10.12,17.84c2.5,2.39,5.58,5.49,8.85,8.77
					c14.8,14.84,37.17,37.27,43.4,33.49c0.67-0.41,1.01-0.91,1.05-1.55c0.2-3.5-8.47-10.23-16.85-16.73
					c-6.73-5.22-13.68-10.63-16.79-14.85c-2.21-3-5.32-5.84-8.61-8.85c-8.12-7.43-17.32-15.86-13.86-28.69
					c3.47-12.87,10.48-23.86,20.84-32.66c3.09-2.63,4.55-3.73,5.61-3.22c1.13,0.54,1.25,2.91,1.11,7.69
					c-0.28,9.31,6.62,23.2,12.19,27.17c2.39,1.71,5.46,7.31,8.71,13.24c3.93,7.17,8.38,15.29,11.51,15.83
					c0.55,0.09,1.04-0.06,1.49-0.47c0.87-0.78,1.28-2.03,1.22-3.72c-0.26-7.52-9.99-22.27-15.49-26.58
					c-4.04-3.16-7.73-14.3-8.07-24.34c-0.23-6.97,1.23-12.24,4.13-14.84c8.22-7.37,13.05-7.92,20.36-8.77
					c4.71-0.54,8.92-4.54,11.7-7.18c1.6-1.51,2.65-2.51,3.42-2.62c1.02-0.14,1.58,0.79,2.46,2.2c1.24,1.99,3.1,5,7.57,7.65
					c1.81,1.08,4.99,2.74,8.66,4.68c11.97,6.29,30.06,15.8,34.58,22.03c5.62,7.76,4.73,18.83-2.5,31.18
					c-5.01,8.55-8.61,12.92-12.1,17.14c-1.23,1.48-2.39,2.89-3.61,4.47c-0.73,0.94-1.64,2.07-2.64,3.31
					c-4.57,5.69-11.49,14.29-10.63,17.03c0.11,0.35,0.35,0.57,0.77,0.69c4.26,1.26,12.07-8.55,15.86-15.8
					c0.85-1.63,2.47-4.24,4.53-7.54c6.16-9.9,15.47-24.85,16.72-33.81c0.73-5.24,1.31-6.36,2.07-6.51c0.78-0.16,1.45,0.89,2.44,2.5
					c0.8,1.3,1.79,2.92,3.06,4.1c3.9,3.65,18.1,24.41,14.66,37.03c-3.59,13.16-10.04,18.84-15.27,22.32
					c-2.45,1.63-7.12,5.72-12.06,10.05c-6.79,5.95-14.5,12.7-17.95,14.34c-4.23,2.02-7.36,4.88-7.27,6.66
					c0.03,0.62,0.49,1.09,1.35,1.4c2.83,1.01,11.28-5.66,17.46-10.53c1.95-1.54,3.8-2.99,5.2-3.99l0.2-0.15
					c5.7-4.07,16.32-11.66,20.44-17.97c1.42-2.18,3.33-5.38,5.17-8.48c5.35-8.98,7.06-11.66,7.89-11.66c0.01,0,0.02,0,0.03,0
					c0.18,0.01,0.32,0.13,0.39,0.3c0.65,1.62,2.27,23.88,1.42,37.68c-0.09,1.37,0.12,2.91,0.33,4.54c0.72,5.5,1.62,12.35-8.07,17.86
					c-12.36,7.03-25.22,14.03-34.56,15.73c-6.51,1.18-11.21,4.24-11.08,5.64c0.06,0.61,1.24,0.98,3.18,0.98
					c1.09,0,2.17,0.02,3.24,0.04c6.72,0.14,13.07,0.26,20.95-4.75c3.13-1.99,7.45-5.08,11.63-8.07
					c11.88-8.5,17.19-12.08,18.16-10.76c1.39,1.88,4.91,26.27-4.38,39.5c-5.4,7.69-9.92,12.38-13.91,16.51
					c-2.83,2.93-5.5,5.7-8.03,9.09c-5.83,7.81-19.18,19.79-43.17,12.32c-20.13-6.27-19.93-24.35-19.85-26.39
					c0.23-5.35-1.38-9.88-2.64-10.77c-0.16-0.11-0.29-0.15-0.39-0.11l-0.13,0.05l-0.13-0.06c-0.54-0.23-0.98-1.07-1.44-2.08
					c0.43,19.02-5.27,33.31-16.08,40.26C304.01,334.39,298.19,335.97,291.6,335.97z M228.18,228.47
					c-1.24,2.02-6.53,19.34-6.43,32.78c0.05,6.68,1.42,11.25,4.05,13.6c6.82,6.06,14.59,6.68,25.34,7.54
					c4.97,0.4,10.61,0.85,17.07,1.91c8.14,1.34,8.11,1.78,8.08,2.25c-0.05,0.82-2.06,0.97-12.32,1.41
					c-5.94,0.25-13.33,0.56-20.44,1.22c-4.53,0.42-7.11,2.14-7.67,5.12c-1.68,9.06,15.64,27.66,26.27,32.9
					c19.19,9.47,35.25,10.67,46.41,3.49c10.75-6.91,16.34-21.26,15.76-40.41c-0.01-0.35-0.02-0.78,0.33-0.86
					c0.36-0.08,0.5,0.23,0.87,1.06c0.26,0.58,0.73,1.63,1.11,1.92c0.22-0.04,0.51-0.01,0.85,0.23c1.57,1.11,3.15,6.05,2.92,11.35
					c-0.09,1.99-0.28,19.6,19.37,25.72c23.59,7.34,36.71-4.42,42.43-12.08c2.56-3.42,5.24-6.21,8.08-9.15
					c3.98-4.12,8.48-8.79,13.85-16.43c9.13-13,5.75-36.86,4.4-38.71c-1.05-0.7-10.78,6.29-17.24,10.9c-4.19,3-8.52,6.09-11.66,8.09
					c-8.05,5.12-14.49,5-21.33,4.86c-1.07-0.02-2.14-0.04-3.23-0.04c-2.46,0-3.75-0.53-3.85-1.59c-0.19-2.15,5.46-5.24,11.63-6.36
					c9.24-1.68,22.03-8.65,34.35-15.65c9.3-5.28,8.47-11.61,7.73-17.19c-0.22-1.67-0.43-3.24-0.34-4.67
					c0.83-13.43-0.73-34.45-1.31-37.16c-1.04,0.92-4.42,6.6-7.17,11.22c-1.85,3.1-3.76,6.31-5.19,8.5
					c-4.19,6.42-14.47,13.76-20.61,18.15l-0.2,0.15c-1.39,0.99-3.23,2.44-5.17,3.97c-6.66,5.24-14.95,11.77-18.11,10.64
					c-1.43-0.51-1.77-1.37-1.8-2c-0.11-2.11,3.04-5.11,7.65-7.3c3.37-1.61,11.04-8.32,17.8-14.24c4.96-4.34,9.65-8.45,12.13-10.11
					c5.13-3.42,11.46-9,14.99-21.94c3.37-12.36-10.62-32.77-14.47-36.36c-1.33-1.24-2.35-2.9-3.17-4.24
					c-0.62-1.01-1.36-2.26-1.73-2.19c-0.34,0.07-0.88,1.16-1.54,5.95c-1.27,9.1-10.63,24.13-16.82,34.07
					c-2.05,3.29-3.67,5.9-4.51,7.5c-3.32,6.36-11.6,17.62-16.64,16.13c-0.63-0.18-1.04-0.57-1.22-1.14
					c-0.97-3.09,5.8-11.51,10.75-17.66c0.99-1.24,1.9-2.36,2.63-3.3c1.23-1.59,2.45-3.06,3.62-4.49c3.47-4.2,7.06-8.54,12.04-17.05
					c7.09-12.11,7.99-22.92,2.54-30.45c-4.42-6.1-22.43-15.57-34.34-21.83c-3.68-1.94-6.87-3.61-8.69-4.69
					c-4.61-2.73-6.53-5.82-7.8-7.87c-0.8-1.29-1.22-1.97-1.79-1.89c-0.56,0.08-1.71,1.18-3.05,2.45c-2.85,2.7-7.15,6.79-12.09,7.36
					c-7.18,0.83-11.92,1.37-19.98,8.6c-2.74,2.46-4.13,7.54-3.9,14.31c0.32,9.69,3.97,20.83,7.81,23.83
					c5.14,4.03,15.46,18.78,15.74,27.08c0.07,1.9-0.42,3.33-1.44,4.25c-0.61,0.55-1.29,0.76-2.05,0.63
					c-3.45-0.59-7.79-8.51-11.99-16.17c-3.21-5.86-6.25-11.4-8.51-13.01c-5.74-4.1-12.76-17.98-12.47-27.74
					c0.1-3.2,0.13-6.65-0.73-7.06c-0.7-0.35-2.47,1.08-4.88,3.13c-10.25,8.71-17.19,19.59-20.62,32.33
					c-3.36,12.44,5.3,20.36,13.67,28.02c3.31,3.03,6.44,5.9,8.69,8.95c3.06,4.15,9.97,9.52,16.66,14.72
					c8.91,6.92,17.32,13.45,17.1,17.3c-0.05,0.86-0.51,1.56-1.37,2.08c-6.67,4.05-28.38-17.7-44.23-33.59
					c-3.27-3.27-6.35-6.37-8.84-8.76c-8.96-8.6-9.85-14.86-10.32-18.23c-0.15-1.08-0.26-1.86-0.6-2.09
					c-0.16-0.11-0.43-0.13-0.82-0.04c-1.01,0.22-3.58,2.8-6.82,7.95c-10.04,15.95-11.5,30.37-9.69,37.87
					c4.56,18.96,40.58,32.54,54.07,36.17c2.15,0.58,4.17,1.1,6.05,1.59c8.65,2.23,13.87,3.58,14.5,5.89
					c0.22,0.81-0.13,1.66-1.07,2.61c-4.54,4.55-47.09-14.64-57.54-20.11c-8.81-4.61-9.29-10.6-9.5-13.16
					C228.23,228.93,228.2,228.66,228.18,228.47z M228.9,228.97c0,0.05,0.01,0.1,0.01,0.16c0.2,2.45,0.66,8.18,9.14,12.62
					c6.29,3.3,19.75,9.42,31.38,13.96c14.47,5.65,23.71,7.93,25.38,6.27c0.76-0.76,1.05-1.4,0.9-1.96
					c-0.53-1.93-6.18-3.39-14.02-5.42c-1.88-0.49-3.91-1.01-6.06-1.59C265.23,250.21,241.54,241.53,228.9,228.97z M317.01,268.82
					c-2.76,0-5.8-1.98-8.13-5.29c-1.27-1.81-1.63-3.1-1.1-3.95c0.97-1.55,4.6-0.99,7.82-0.49l0.41,0.06
					c2.83,0.44,4.03,2.3,4.49,3.37c0.71,1.66,0.62,3.58-0.22,4.78l0,0c-0.68,0.97-1.83,1.51-3.24,1.51
					C317.02,268.82,317.02,268.82,317.01,268.82z M310.72,259.23c-1.14,0-2.05,0.18-2.37,0.7c-0.36,0.58,0.01,1.69,1.08,3.21
					c2.21,3.13,5.04,5,7.59,5c0,0,0.01,0,0.01,0c1.19,0,2.14-0.44,2.69-1.22l0,0c0.7-1.01,0.77-2.71,0.15-4.13
					c-0.4-0.95-1.46-2.59-3.97-2.98l-0.41-0.06C313.98,259.52,312.16,259.23,310.72,259.23z M341.63,259.82
					c-1.41,0-2.8-0.27-3.73-1.22c-0.93-0.96-1.24-2.49-0.93-4.56c0.53-3.48,2.95-5.83,5.03-6.87c1.85-0.92,3.77-1.04,5.13-0.31
					c2.11,1.13,3.02,3.1,2.57,5.56c-0.61,3.3-3.66,6.96-6.04,7.25C343.01,259.76,342.32,259.82,341.63,259.82z M343.57,259.01
					l0.04,0.33L343.57,259.01c1.89-0.24,4.88-3.53,5.47-6.71c0.28-1.52,0.12-3.59-2.22-4.85c-1.17-0.63-2.85-0.51-4.51,0.32
					c-1.93,0.96-4.17,3.14-4.67,6.37c-0.28,1.85-0.03,3.19,0.74,3.99C339.57,259.35,341.91,259.22,343.57,259.01z M320.14,235.89
					c-1.49,0-3.53-1.42-4.69-2.33c-3.25-2.57-6.58-5.55-4.91-8.42c0.51-0.88,1.46-1.32,2.66-1.23c2.25,0.17,4.87,2.1,5.72,4.21
					c0.48,1.2,1.09,2.19,1.62,3.05c0.87,1.41,1.56,2.52,1.11,3.7c-0.18,0.49-0.53,0.81-1,0.94
					C320.5,235.87,320.33,235.89,320.14,235.89z M312.9,224.57c-0.62,0-1.35,0.18-1.78,0.91c-1.26,2.16,0.99,4.58,4.75,7.55
					c1.98,1.56,3.74,2.39,4.6,2.15c0.26-0.07,0.44-0.24,0.55-0.53c0.33-0.87-0.25-1.81-1.06-3.12c-0.55-0.89-1.17-1.9-1.67-3.15
					c-0.84-2.1-3.34-3.66-5.14-3.79C313.07,224.57,312.99,224.57,312.9,224.57z M356.24,143.72c-1.11,0-2.6-0.83-4.51-2.51
					c-1.45-1.28-1.17-2.51-0.88-3.12c0.77-1.6,3.37-2.79,5.33-2.44c1.26,0.22,2.03,1.03,2.15,2.27l0,0
					c0.32,3.18-0.09,5.02-1.25,5.61C356.84,143.65,356.56,143.72,356.24,143.72z M355.46,136.25c-1.58,0-3.42,0.94-4,2.12
					c-0.38,0.79-0.14,1.57,0.71,2.33c2.72,2.4,4.01,2.53,4.61,2.22c0.6-0.31,1.24-1.41,0.89-4.95l0,0c-0.12-1.17-0.94-1.56-1.6-1.68
					C355.88,136.26,355.67,136.25,355.46,136.25z"/>
			</g>
			<g>
				<path class="st47" d="M325.12,314.53c0,0,1.47,13.93,0.21,35.36c-1.26,21.43-2.63,84.87-2.91,107.57
					c-0.45,36.58-0.45,36.14,4.59,36.56c5.04,0.42,2.52-5.46,0-21.85c-2.52-16.39,2.24-102.67,1.68-116.81
					c-0.56-14.15-0.14-34.32-0.14-38.24c0-3.92-0.28-28.29,0-31.23s-0.28,2.94,18.07,17.51c18.35,14.57,36.98,7.42,40.2,6.3
					c3.22-1.12,5.18-2.38-4.34-0.14c-9.52,2.24-16.67,0.84-25.35-1.68c-8.68-2.52-27.87-24.51-28.43-26.33s13.45,3.64,29.27,7.56
					c15.83,3.92,29.55-1.26,34.88-3.64c5.32-2.38,14.71-17.09,16.53-20.03c1.82-2.94,3.92-7.98,2.24-5.6
					c-1.68,2.38-8.4,12.05-15.69,19.33c-7.28,7.28-20.59,7.56-35.72,6.72c-15.13-0.84-30.53-8.82-31.09-9.66
					c-0.56-0.84,20.03-10.93,29.83-13.87s24.51-13.31,36.56-22.97c12.05-9.66,16.53-28.43,16.53-30.39c0-1.96,3.36-14.85-4.34,7.42
					c-7.7,22.27-43.28,40.34-54.21,44.68s-23.67,12.19-24.93,12.19s0.28-20.87,0.28-24.51c0-3.64,14.57-13.45,19.89-16.95
					c5.32-3.5,14.43-9.1,19.75-13.73c5.32-4.62,14.15-15.27,18.49-21.85c4.34-6.58,5.18-9.52,6.72-18.91
					c1.54-9.38,0.84-20.87,0-22.27c-0.84-1.4,0.84,7-2.66,24.23c-3.5,17.23-25.77,38.38-34.04,43.28
					c-8.26,4.9-27.31,18.21-28.57,18.63s0-21.43-0.14-28.71c-0.14-7.28,2.66-8.54,6.44-11.07c3.78-2.52,9.24-9.8,15.41-16.25
					c6.16-6.44,11.07-23.11,12.75-26.19c1.68-3.08,4.2-20.45,3.36-24.93c-0.84-4.48-6.67-11.98-3.03-3.58
					c3.64,8.4-1.73,22.49-7.19,36.07c-5.46,13.59-26.75,33.76-27.73,33.76c-0.98,0,1.54-27.87,0-38.8
					c-1.54-10.93-1.54-55.89-2.39-53.92c-0.84,1.96,0.56,66.25-0.7,66.53c-1.26,0.28-9.52-20.31-14.01-25.07
					c-4.48-4.76-7.42-18.91-8.12-21.71c-0.7-2.8-1.82-11.63-2.38-9.52c-0.56,2.1,2.24,21.29,6.72,28.57
					c4.48,7.28,16.11,29.27,17.93,32.78c1.82,3.5-1.4,42.16-1.54,39.83c-0.14-2.33-26.19-21.48-38.38-33.39
					c-12.19-11.91-15.55-28.85-16.95-34.74c-1.4-5.88-0.48-19.13-0.84-16.67c-3.92,16.11,1.54,29.97,8.3,43.28
					c6.76,13.31,46.19,45.1,47.31,45.66c1.12,0.56,0.98,29.83-0.81,30.11c-1.79,0.28-20.9-10.36-43.87-20.45
					c-22.97-10.08-21.29-11.49-28.71-16.11c-7.42-4.62-11.35-23.95-11.77-27.73c-0.42-3.78-1.54-8.12-1.68-6.72
					c-0.14,1.4,1.26,13.73,3.64,23.25c2.38,9.52,10.22,15.83,23.67,23.11c13.45,7.28,56.59,26.75,58.72,29.13
					c2.13,2.38,2.49,14.15-0.59,14.71c-17.37,2.1-39.36-1.26-55.89-5.04c-16.53-3.78-31.65-18.63-33.9-20.87
					c-2.24-2.24-5.35-8.97-4.76-6.3c2.1,9.94,21.15,24.37,42.58,31.23s49.72,4.48,52.55,4.9c2.83,0.42,2.35,1.54-10.12,10.08
					c-12.47,8.54-36.7,15.97-49.44,14.29c-12.75-1.68-19.33-6.72-20.87-7.98c-1.54-1.26-3.08-2.8-1.82-0.42
					c6.72,10.22,28.43,13.59,45.38,9.94c16.95-3.64,34.6-15.41,36.87-17.65c2.27-2.24,2.13,2.8,2.21,5.04
					C324.79,293.83,324.87,306.82,325.12,314.53z"/>
			</g>
		</g>
		<rect x="595.33" y="143.34" class="st10" width="77.23" height="34.55"/>
		<path class="st62" d="M634.96,102.7c-10.16,0-39.63,40.65-39.63,40.65h77.23C672.56,143.34,645.12,102.7,634.96,102.7z"/>
		<path class="st63" d="M660.36,135.26v38.57h-52.84v-38.57c0-3.34,0-16.3,0-16.3h28.95h23.89
			C660.36,118.96,660.36,129.21,660.36,135.26z"/>
		<path class="st62" d="M654.27,188.05h-58.94v-44.71L654.27,188.05z"/>
		<path class="st62" d="M613.62,188.05h58.94v-44.71L613.62,188.05z"/>
		<path class="st62" d="M672.56,188.05h-38.61h-38.61L630,161.37c2.37-2.35,5.49-2.35,7.86,0L672.56,188.05z"/>
		<path class="st62" d="M634.27,226.67c-23.75,0-43.01,12.71-43.01,28.38c0,0.02,0,0.06,0,0.08c0.02,4.1,3.24,6.9,6.28,5.6
			l11.28-4.81c2.72-1.15,4.04-5.1,2.8-8.44l-1.38-3.78c0,0,20.74,3.7,47.86,0l-1.4,4.85c-0.88,3.07,0.27,6.5,2.62,7.77l11.15,6.08
			c2.72,1.48,5.88-0.5,6.51-4.2c0.17-1.04,0.27-2.09,0.27-3.18C677.28,239.38,658.02,226.67,634.27,226.67z"/>
		<path class="st38" d="M664.07,288.9h-59.6l8.83-27.63c1.65-5.18,6.47-8.69,11.93-8.69h18.1c5.44,0,10.28,3.51,11.93,8.69
			L664.07,288.9z"/>
		<ellipse class="st63" cx="633.94" cy="251.06" rx="16.26" ry="10.16"/>
		<path class="st38" d="M660.36,393.33c0,4.49-11.83,8.12-26.42,8.12c-14.59,0-26.42-3.64-26.42-8.12c0-4.49,11.83-8.14,26.42-8.14
			C648.54,385.2,660.36,388.84,660.36,393.33z"/>
		<path class="st62" d="M632.93,318.12c-15.15,0-27.44,12.33-27.44,27.53c0,16.26,27.44,47.66,27.44,47.66s27.44-30.2,27.44-47.66
			C660.37,330.46,648.08,318.12,632.93,318.12z M632.93,356.45c-6.56,0-11.87-5.33-11.87-11.92c0-6.58,5.32-11.92,11.87-11.92
			s11.88,5.33,11.88,11.92C644.8,351.12,639.49,356.45,632.93,356.45z"/>
	</g>
	<g>
		<path class="st38" d="M670.53,507.14c0,5.61-16.38,10.16-36.58,10.16c-20.21,0-36.58-4.55-36.58-10.16
			c0-5.61,16.38-10.17,36.58-10.17C654.15,496.98,670.53,501.53,670.53,507.14z"/>
		<rect x="604.87" y="441.63" class="st63" width="58.16" height="56.28"/>
		<rect x="599.24" y="436" class="st64" width="69.41" height="69.41"/>
		<path class="st65" d="M649.28,497.91h-34.91c-6.6,0-12-5.4-12-12V451c0-6.6,5.4-12,12-12h34.91c6.6,0,12,5.4,12,12v34.91
			C661.28,492.51,655.88,497.91,649.28,497.91z"/>
		<circle class="st65" cx="631.83" cy="468.46" r="14.29"/>
		<circle class="st62" cx="649.08" cy="450.77" r="3.73"/>
	</g>
</g>
</svg>
