<?xml version="1.0" encoding="utf-8"?>
<!-- Generator: Adobe Illustrator 23.0.6, SVG Export Plug-In . SVG Version: 6.00 Build 0)  -->
<svg version="1.1" xmlns="http://www.w3.org/2000/svg" xmlns:xlink="http://www.w3.org/1999/xlink" x="0px" y="0px"
	 viewBox="0 0 1078.48 786.76" style="enable-background:new 0 0 1078.48 786.76;" xml:space="preserve">
<style type="text/css">
	.st0{opacity:0.37;fill:#D9E6E8;}
	.st1{clip-path:url(#SVGID_2_);}
	.st2{fill:#FFFFFF;}
	.st3{fill:#DBCDB5;}
	.st4{fill:#B2D3E5;}
	.st5{fill:#A6C726;}
	.st6{fill:#6E8EA1;}
	.st7{fill:#D8E9F3;}
	.st8{fill:#374750;}
	.st9{fill:#64121B;}
	.st10{fill:#262451;}
	.st11{fill:#821E33;}
	.st12{fill:#E0A596;}
	.st13{fill:#96C3DC;}
	.st14{opacity:0.6;fill:#F08371;enable-background:new    ;}
	.st15{opacity:0.6;fill:#2F1B42;enable-background:new    ;}
	.st16{opacity:0.6;fill:#A53447;enable-background:new    ;}
	.st17{opacity:0.6;fill:#902032;enable-background:new    ;}
	.st18{fill:#82AFC8;}
	.st19{clip-path:url(#SVGID_4_);}
	.st20{fill:#678596;}
	.st21{fill:none;stroke:#FFFFFF;stroke-width:4;stroke-miterlimit:10;}
	.st22{fill:none;stroke:#B2D3E5;stroke-width:3;}
	.st23{clip-path:url(#SVGID_6_);}
	.st24{fill:#61808F;}
	.st25{fill:#64121A;}
	.st26{opacity:0.6;fill:#F08371;}
	.st27{opacity:0.6;fill:#2F1B43;}
	.st28{opacity:0.6;fill:#A43446;}
	.st29{opacity:0.6;fill:#902032;}
	.st30{fill:#3D5663;}
	.st31{fill:#8EB6C7;}
	.st32{fill:#3C505A;}
	.st33{fill:#4F6976;}
	.st34{fill:#996663;}
	.st35{fill:#1F1430;}
	.st36{fill:#D29B8D;}
	.st37{fill:none;stroke:#823C37;stroke-width:1.5;stroke-linecap:round;stroke-miterlimit:10;}
	.st38{fill:#B0CFD6;}
	.st39{fill:#282451;}
	.st40{fill:#811E33;}
	.st41{fill:#64121C;}
	.st42{fill:#201630;}
	.st43{fill:#95C2DB;}
	.st44{fill:#81AEC7;}
	.st45{opacity:0.58;fill:#FFFFFF;}
	.st46{fill:#70ACCE;}
	.st47{fill:#ABCAD8;}
	.st48{fill:none;stroke:#263062;stroke-width:3;stroke-linecap:round;stroke-miterlimit:10;}
	.st49{fill:#C3D9E0;}
	.st50{opacity:0.64;}
	.st51{fill:none;stroke:#262451;stroke-width:3;stroke-linecap:round;stroke-miterlimit:10;}
	.st52{fill:none;stroke:#262451;stroke-width:3;stroke-linecap:round;stroke-miterlimit:10;stroke-dasharray:11.7706,11.7706;}
	.st53{fill:#EAE3C3;}
	.st54{fill:#C5D4D8;}
	.st55{fill:#BCB592;}
	.st56{fill:#8A9C9B;}
	.st57{fill:#A2BAB9;}
	.st58{fill:#E8EAEA;}
	.st59{fill:#75A6B7;}
	.st60{fill:#B3D4E1;}
	.st61{fill:#D0E4EA;}
	.st62{fill:#62818F;}
	.st63{fill:#E3F0F5;}
	.st64{fill:none;}
	.st65{fill:none;stroke:#62818F;stroke-width:6;stroke-miterlimit:10;}
</style>
<g id="Ebene_3">
	<path class="st4" d="M859.08,522.19c24.74-6.26,34.29-36.62,34.29-36.62l-29.52-13.57c0,0,33.95,2.54,42.18-5.25
		c8.23-7.79,29.69-46.24,29.69-46.24l-46.9-7.09l55.48,0.38c0,0,88.42-69.53,53.62-104c-34.8-34.48-89.63,7.03-89.63,7.03
		l-2.86,34.37l-7.76-29.6c0,0-30.16,22.05-57.08,40.27s-20.78,49.73-20.78,49.73l-16.14-23.57c0,0-42.84,62.21-32.13,84.45
		c10.71,22.24,22.76,17.69,22.76,17.69S817.32,532.75,859.08,522.19z"/>
	<path class="st6" d="M952.67,365.98c0,0-31.01,5.09-40.69,3.68c-8.46,0.71,4.65,3.73,12.16,3.73
		C935.23,373.39,952.67,365.98,952.67,365.98z"/>
	<path class="st6" d="M898.42,429.91c0,0-41.53,3.17-53.78-1.05c-11.16-0.32,5.14,7.33,14.88,8.7
		C873.95,439.6,898.42,429.91,898.42,429.91z"/>
	<path class="st6" d="M786.23,413.2l36.9-14.83c1.66-2.98,3.36-5.95,5.11-8.88c12.79-21.48,22.17-40.41,29.93-58.15
		c-15.51,5.59-19.95-1.94-19.95-1.94s0,0,8.93-1.78c4.23-0.84,10.79-5.09,16.54-9.34c4.54-11.05,8.61-21.75,12.67-32.46
		c11.98-31.51,19.92-73.64-9.44-97.99c-20.85-17.3-43.33,25.95-59.84,68.78c2.95,4.54,7.06,10.12,12.32,15.53
		c11.88,12.21,24.28,19.92,24.28,19.92s-28.99-13.8-41.39-22.61c-4.68,12.95-8.73,25.28-11.92,35.23
		c-2.77,8.62-10.39,17.3-14.48,23.88c2.36,11.75,12.1,38.24,19.04,47.51c0,0-21.3-18.2-28.42-35.63
		c-16.73,20.05-33.24,32.33-44.01,54.09c-15.89,32.12,25.86,64.18,25.86,64.18s2.23-1.14,21.36,8.74
		c15.89,8.2,29.05-22.97,46.9-57.04L786.23,413.2z"/>
	<path class="st4" d="M749.3,455.22c12.39-16.78,24.27-33.87,35.67-51.27c11.35-17.41,22.66-34.88,32.76-53.08
		c5.07-9.08,9.82-18.33,14.36-27.69c4.55-9.36,8.69-18.91,12.6-28.55c3.89-9.65,7.35-19.47,10.47-29.41
		c3.01-9.96,5.56-20.07,7.6-30.3l0.41,0.07c-1.77,10.29-4.04,20.49-6.8,30.58c-2.86,10.06-6.07,20.02-9.71,29.82
		c-3.73,9.77-7.71,19.45-12.08,28.95c-4.38,9.5-8.97,18.9-13.89,28.14c-4.89,9.24-10.01,18.38-15.31,27.4
		c-2.72,4.48-5.41,8.95-8.23,13.36c-2.82,4.4-5.72,8.76-8.69,13.06c-5.96,8.6-12.12,17.04-18.58,25.27
		c-6.44,8.23-13.15,16.26-20.27,23.9L749.3,455.22z"/>
	<path class="st4" d="M838.52,234.19c0,0,10.92,21.17,16.38,28.58c1.56,2.12,0,5.82,0,5.82S841.69,248.48,838.52,234.19z"/>
	<path class="st4" d="M869.17,267c-3.38,1.69-14.8,10.59-16.38,8.47l-4.23,9.53C856.84,278.3,872.55,265.31,869.17,267z"/>
	<path class="st6" d="M969.52,331.7c-9.15,5.04-17.95,10.69-26.55,16.59c-8.64,5.86-17.09,11.98-25.45,18.22
		c-4.63,3.5-8.36,6.49-12.94,10.06c-11.89,9.26-24.43,19.33-35.54,29.47l-2.92,2.59l-1.46,1.3l-1.41,1.36l-5.63,5.42
		c-1.86,1.82-3.78,3.58-5.6,5.44l-5.41,5.63c-1.8,1.88-3.67,3.7-5.39,5.65l-5.2,5.82c-1.73,1.94-3.49,3.87-5.11,5.91l-4.98,6.01
		l-1.25,1.5l-1.18,1.56l-2.37,3.11c-1.55,2.08-3.2,4.11-4.66,6.27l-4.49,6.39l-4.23,6.56c-5.54,8.82-10.57,18.03-14.07,27.89
		c2.81-10.11,7.61-19.55,12.74-28.7c5.18-9.15,11.25-17.74,17.57-26.12c3.28-4.1,6.42-8.32,9.94-12.22l5.16-5.95
		c1.71-1.99,3.57-3.84,5.35-5.77l5.41-5.72c1.83-1.88,3.75-3.67,5.61-5.51l5.64-5.48l1.42-1.37l1.46-1.31l2.93-2.63l5.89-5.23
		l2.94-2.61c0.99-0.86,2.02-1.67,3.02-2.51l12.17-9.97c4.18-3.24,8.37-6.48,12.6-9.67c4.13-3.12,8.3-6.19,12.53-9.18
		c8.52-6.09,17.2-11.95,26.07-17.52c4.44-2.76,8.94-5.45,13.49-8.03C960.16,336.37,964.76,333.87,969.52,331.7z"/>
	<path class="st6" d="M889.78,352.22c-2.11,5.08-0.88,22.93,0,31.23l-4.23,5.82c-0.7,1.59-2.01,1.06-1.59-13.76
		C884.5,356.98,892.42,345.87,889.78,352.22z"/>
	<path class="st6" d="M887.26,680.61c0,0-34.13-29.77-59.45-51.29c-10.11-8.59-18.37-15.11-24.65-19.85
		c3.47-1.68,7.07-3.43,10.75-5.24c4.58,3.36,14.78,10.73,32.4,22.94c25.35,17.55,67.58,31.51,67.58,31.51s-5.81-4.49-31.78-31.15
		c-20.15-20.69-39.55-30.39-47.23-33.7c5.19-2.61,10.44-5.29,15.69-8c15.79,14.52,78.09,42.86,78.09,42.86s-12.69-20.22-31.74-35.13
		c-11.51-9.01-21.34-14.67-27.32-17.74c3.33-1.79,6.62-3.57,9.86-5.35c5.88,4.18,17.32,11.1,33.45,15.3
		c24.28,6.32,60.31,5.93,60.31,5.93c-20.5-7.76-67.28-25.06-79.1-29.43c4.21-2.38,8.39-4.77,12.52-7.15
		c4.31,2.96,10.93,5.97,20.59,6.79c46.36,3.91,75.28-8.95,75.28-8.95c-16.75-3.17-59.88-4.1-84.57-4.38
		c59.7-34.87,107.76-66.84,107.76-66.84s-36.84,11.31-66.94,27.36c-7.51,4.01-23.52,11.95-43.28,21.61
		c14.91-22.12,39.13-59.09,45.54-74.93c0,0-32.57,19.43-56.39,62.12c-4.69,8.41-5.45,15.34-4.84,20.46
		c-3.33,1.62-6.73,3.26-10.17,4.93c3.44-11.29,8.9-30.16,13.35-49.71c5.88-25.82,6.46-39.78,9.77-45.23c0,0-25.74,26.15-32.39,63.23
		c-3.71,20.69-6.18,33.03-7.64,39.89c-2.87,1.38-5.75,2.78-8.62,4.16c2.91-10.73,8.31-33.92,6.76-53.49
		c-2.1-26.42-8.49-44.01-8.49-44.01s-7.76,29.83-9.88,57.15c-1.5,19.38-6.91,40.24-9.92,50.73c-4.83,2.32-9.6,4.61-14.24,6.85
		c3.25-9.94,8.06-27.64,7.9-44.88c-0.23-25.94-2.02-61.24-2.02-61.24s-18.43,70.85-23.34,97.43c-1.65,8.88-2.74,14.79-3.47,18.73
		c-5.27,2.53-10.26,4.91-14.83,7.1c5.96-15.45,16.59-47.01,13.55-68.87c-4.18-29.95-4.18-29.95-4.18-29.95
		s-20.38,66.26-27.61,107.54c-7.42,3.55-11.78,5.63-11.78,5.63l-4.92,26.59c0,0,8.97-4.08,22.91-10.66
		c9.76,8.42,27.5,22.65,49.4,35.44C863.68,675.47,887.26,680.61,887.26,680.61z"/>
</g>
<g id="Ebene_1">
	<path class="st24" d="M509.02,463.22c0,0-23.53,10.7-41.39-15.2c-6.04-8.77,2.39-22.57-1.97-34.34
		c-5.33-14.42-52.19-17.53-54.7-57.6c-2.51-40.07,34.67-33.1,38.07-63.17c3.36-29.71,13.95-54.82,51.95-56.5
		c38-1.67,28.39,39.45,64.21,35.58c18.61-2.01,36.08,21.51,28.9,41.17c-9.89,27.08,20.9,32.55,17.55,59.87
		c-3.35,27.31-23.26,21.14-25.73,44.29c-1.73,16.18,5.6,10.89-2.74,34.83c-8.26,23.73-41.58,19.2-50.06,12.14
		C519.32,452.79,509.02,463.22,509.02,463.22z"/>
	<path class="st33" d="M163.01,451.48c0,0,100.1,16.99,102.93-122.44s-103.33-136.59-137.3-118.19s-77.85,65.11-63.7,149.33
		C77.38,434.13,125.9,454.94,163.01,451.48z"/>
	<path class="st32" d="M210.41,444.02c26.31-12.31,54.06-42.51,55.53-114.98c0.59-28.84-3.5-51.58-10.64-69.37
		c-2.83,1.15-5.72,2.56-8.66,4.25c-46.71,26.89-10.52,119.13-26.89,147.21C215.01,419.26,211.26,431.23,210.41,444.02z"/>
	<path class="st24" d="M291.94,503.14c0,0,65.11,0,65.11-60.87S316,364.42,324.5,319.84c8.49-44.59-25.48-88.47-72.19-61.57
		c-46.71,26.89-10.52,119.13-26.89,147.21C209.04,433.54,204.18,507.39,291.94,503.14z"/>
	<path class="st10" d="M164.11,661.08c1.73,5.73,23.99,9.65,23.98,0c-0.01-12.9-16.36-352.65-22.25-358.58
		C159.95,296.56,162.38,655.35,164.11,661.08z"/>
	<path class="st10" d="M162.76,360.18c-4.98,0.8-25.92-32.29-33.09-38.51c-6.33-5.49,23.51,44.5,35.44,53.82
		C178.1,385.65,167.74,359.38,162.76,360.18z"/>
	<path class="st10" d="M165.84,329.04c11.13-11.62,27.1-48.02,26.62-42.91c-0.79,8.51-13.05,38.02-25.86,50.67
		C164.89,338.49,165.84,329.04,165.84,329.04z"/>
	<path class="st10" d="M171.96,385.86c12.28-10.12,16.3-28.77,16.14-23.01c-0.25,8.49-3.05,20.98-17.76,31.06
		C166.08,396.82,159.68,395.98,171.96,385.86z"/>
	<path class="st10" d="M284.47,660.96c1.4,4.63,19.37,7.79,19.37,0c-0.01-10.42-13.21-284.76-17.97-289.56
		C281.11,366.61,283.07,656.33,284.47,660.96z"/>
	<path class="st10" d="M283.38,417.98c0,0-15.59-20.8-20.35-26.81c-4.76-6.01,12.62,31.64,22.25,39.17
		C295.77,438.54,283.38,417.98,283.38,417.98z"/>
	<path class="st10" d="M285.87,392.83c8.98-9.38,21.29-37.79,20.91-33.66c-0.64,6.87-9.94,29.71-20.29,39.93
		C285.1,400.46,285.87,392.83,285.87,392.83z"/>
	<path class="st10" d="M290.81,438.72c9.92-8.17,11.89-28.92,13.03-24.4c1.48,5.87-2.29,24.12-14.34,30.9
		C285.87,447.25,280.89,446.89,290.81,438.72z"/>
	<path class="st10" d="M140.09,336.51c0,0-1-11.32,0-17.65c0.5-3.16,1.84,20.06,5.78,25.29
		C149.81,349.38,140.09,336.51,140.09,336.51z"/>
	<path class="st10" d="M183.09,306.58c0,0,1.78-17.1-0.38-18.8c-1.67-1.31-1.17,16.32-4.32,24.8
		C177.33,315.43,183.09,306.58,183.09,306.58z"/>
	<path class="st10" d="M510.87,660.26c1.61,5.32,22.25,8.95,22.25,0c-0.01-11.97-15.18-327.09-20.64-332.6
		C507.01,322.15,509.26,654.94,510.87,660.26z"/>
	<path class="st10" d="M509.62,381.16c0,0-17.91-23.89-23.37-30.79c-5.47-6.9,14.49,36.34,25.55,44.99
		C523.85,404.78,509.62,381.16,509.62,381.16z"/>
	<path class="st10" d="M512.47,352.28c10.32-10.78,24.46-43.4,24.02-38.66c-0.74,7.9-11.42,34.13-23.31,45.86
		C511.59,361.04,512.47,352.28,512.47,352.28z"/>
	<path class="st10" d="M518.15,402.98c18.35-11.79,25.32-29.39,23.21-20.03c-1.47,6.53-10.08,18.23-24.72,29.49
		C512.85,415.36,505.73,410.96,518.15,402.98z"/>
	<path class="st10" d="M536.63,393.45c7.24,0.58,15.37-4.04,12.04-1.27c-2.53,2.1-5.34,4.23-16.43,4.63
		C527.06,397,533.03,393.16,536.63,393.45z"/>
	<path class="st10" d="M492.85,360.6c0,0-1-11.32,0-17.65c0.5-3.16,1.84,20.06,5.78,25.29S492.85,360.6,492.85,360.6z"/>
	<g id="Ebene_2">
	</g>
</g>
</svg>
