<?xml version="1.0" encoding="utf-8"?>
<!-- Generator: Adobe Illustrator 23.0.6, SVG Export Plug-In . SVG Version: 6.00 Build 0)  -->
<svg version="1.1" xmlns="http://www.w3.org/2000/svg" xmlns:xlink="http://www.w3.org/1999/xlink" x="0px" y="0px"
	 viewBox="0 0 499.62 695.49" style="enable-background:new 0 0 499.62 695.49;" xml:space="preserve">
<style type="text/css">
	.st0{opacity:0.37;fill:#D9E6E8;}
	.st1{clip-path:url(#SVGID_2_);}
	.st2{fill:#FFFFFF;}
	.st3{fill:#DBCDB5;}
	.st4{fill:#B2D3E5;}
	.st5{fill:#A6C726;}
	.st6{fill:#6E8EA1;}
	.st7{fill:#D8E9F3;}
	.st8{fill:#374750;}
	.st9{fill:#64121B;}
	.st10{fill:#262451;}
	.st11{fill:#821E33;}
	.st12{fill:#E0A596;}
	.st13{fill:#96C3DC;}
	.st14{opacity:0.6;fill:#F08371;enable-background:new    ;}
	.st15{opacity:0.6;fill:#2F1B42;enable-background:new    ;}
	.st16{opacity:0.6;fill:#A53447;enable-background:new    ;}
	.st17{opacity:0.6;fill:#902032;enable-background:new    ;}
	.st18{fill:#82AFC8;}
	.st19{clip-path:url(#SVGID_4_);}
	.st20{fill:#678596;}
	.st21{fill:none;stroke:#FFFFFF;stroke-width:4;stroke-miterlimit:10;}
	.st22{fill:none;stroke:#B2D3E5;stroke-width:3;}
	.st23{clip-path:url(#SVGID_6_);}
	.st24{fill:#61808F;}
	.st25{fill:#64121A;}
	.st26{opacity:0.6;fill:#F08371;}
	.st27{opacity:0.6;fill:#2F1B43;}
	.st28{opacity:0.6;fill:#A43446;}
	.st29{opacity:0.6;fill:#902032;}
	.st30{fill:#3D5663;}
	.st31{fill:#8EB6C7;}
	.st32{fill:#3C505A;}
	.st33{fill:#4F6976;}
	.st34{fill:#996663;}
	.st35{fill:#1F1430;}
	.st36{fill:#D29B8D;}
	.st37{fill:none;stroke:#823C37;stroke-width:1.5;stroke-linecap:round;stroke-miterlimit:10;}
	.st38{fill:#B0CFD6;}
	.st39{fill:#282451;}
	.st40{fill:#811E33;}
	.st41{fill:#64121C;}
	.st42{fill:#201630;}
	.st43{fill:#95C2DB;}
	.st44{fill:#81AEC7;}
	.st45{opacity:0.58;fill:#FFFFFF;}
	.st46{fill:#70ACCE;}
	.st47{fill:#ABCAD8;}
	.st48{fill:none;stroke:#263062;stroke-width:3;stroke-linecap:round;stroke-miterlimit:10;}
	.st49{fill:#C3D9E0;}
	.st50{opacity:0.64;}
	.st51{fill:none;stroke:#262451;stroke-width:3;stroke-linecap:round;stroke-miterlimit:10;}
	.st52{fill:none;stroke:#262451;stroke-width:3;stroke-linecap:round;stroke-miterlimit:10;stroke-dasharray:11.7706,11.7706;}
	.st53{fill:#EAE3C3;}
	.st54{fill:#C5D4D8;}
	.st55{fill:#BCB592;}
	.st56{fill:#8A9C9B;}
	.st57{fill:#A2BAB9;}
	.st58{fill:#E8EAEA;}
	.st59{fill:#75A6B7;}
	.st60{fill:#B3D4E1;}
	.st61{fill:#D0E4EA;}
	.st62{fill:#62818F;}
	.st63{fill:#E3F0F5;}
	.st64{fill:none;}
	.st65{fill:none;stroke:#62818F;stroke-width:6;stroke-miterlimit:10;}
</style>
<g id="Ebene_3">
</g>
<g id="Ebene_1">
	<rect x="20.2" y="28.01" class="st10" width="81.93" height="57.83"/>
	<rect x="118.55" y="28.01" class="st13" width="81.93" height="57.83"/>
	<rect x="216.9" y="28.01" class="st11" width="81.93" height="57.83"/>
	<path class="st10" d="M345.31,40.87c-2.89-4.76,46.51-8.54,62.24-0.87C419.08,45.62,355.82,58.2,345.31,40.87z"/>
	<path class="st13" d="M347.58,39.99c18.79,7.67,37.94,7.7,58.49,0.17c9.44-3.46-0.56,37.1-13.84,41.12
		c-9.42,2.07-21.99,2-33.24-0.66C348.41,78.12,338.19,36.15,347.58,39.99z"/>
	<path class="st10" d="M463.35,36.21c10.77-5.53-4.66-6.71-13.58-6.72c-6.72-0.01-23.64,1.09-13.4,6.95
		C445.18,41.48,459.78,38.04,463.35,36.21z"/>
	<path class="st13" d="M434.38,32.56c-4.39-2.53,2.96,49.39,6.19,50.38c5.2,1.59,14.71,2.17,19.92,0c3.52-1.46,8.8-51.76,6.14-50.37
		C458.03,37.05,440.73,36.23,434.38,32.56z"/>
	<path class="st25" d="M95.82,258.67c0,0-19.6,93.19-3.49,93.75s24.15-8.36,24.15-8.36S115.77,252.48,95.82,258.67z"/>
	<path class="st25" d="M178.34,323.29c0,0,13.31-8.64,6.74-23.16s-14.52-33.52-16.07-36.28c-1.55-2.76-7.16,70.61-7.16,70.61
		L178.34,323.29z"/>
	<path class="st10" d="M87.99,369.25c0,0,4.81,150.28,17.21,212.04c19.17,0,29.64,0,29.64,0s6.47-133.38,4.48-174.56
		c9.9,85.52,22.27,173.55,22.27,173.55s15.12,2.61,30.96-0.55c3.96-36.43,6.55-180.46,0.22-213.15
		c-7.92-19.23-36.18-27.15-36.18-27.15l-58.86,6.79L87.99,369.25z"/>
	<path class="st11" d="M99.5,352.02c2.41,4.34-7.63,19.18-11.51,17.24c2.33,1.17-37.17-36.49-19.95-79.98
		c13.05-32.95,15.8-60.69,25.6-70.47s28.88-11.45,28.68-11.4s16.11,12.25,34.65,0.28c0,0,28.01,6.07,34.85,16.92
		s14.57,25.21,24.4,53.43c4.53,13,11.83,45.62-16.36,68.34c-22.13,17.83-29.35,16.32-35.17,15.88c-5.82-0.44-5.42-22.82-2.84-27.78
		c3.14-6.04,23.48-15.2,18.71-34.71c-2.85-11.67-9.67-27.96-9.67-27.96s10.36,32.71,1.06,47.61c-16.68,26.7-3.68,35.25-8.36,35.01
		c-3.93-0.2-42.85-1.14-55.16-1.44c0,0-12.97-7.29-12.72-24.2c0.24-16.91,11.79-49.6,5.32-67.22s0,0,0,0s-1.1,30-6,46.81
		C90.13,325.17,89.75,334.46,99.5,352.02z"/>
	<path class="st10" d="M165.3,162.1c0,0,3.2,12.62-4.46,18.16s-12.67,6.86-12.67,8.71c0-6.86-1.45-29.9-0.72-29.2
		C148.18,160.46,165.3,162.1,165.3,162.1z"/>
	<path class="st12" d="M114.39,163.36c0,0-8.98,25.87,16.36,27.98c-0.53,9.5,0,12.67,0,12.67s14.78,7.92,17.42-3.69
		c0-14.78,0-20.06,0-20.06s14.78-6.34,2.11-16.89C130.75,163.36,114.39,163.36,114.39,163.36z"/>
	<path class="st13" d="M116.5,151.22c0,0-1.76-21.17,24.42-21.25c25.05-0.08,26.36,25.79,24.38,32.12
		c-3.96,1.19-16.87,1.41-16.87,1.41S129.3,151.49,116.5,151.22z"/>
	<path class="st13" d="M150.28,163.36c0,0-49.62,4.22-53.85-3.17c-4.22-7.39,14.25-8.44,20.06-8.97
		C122.31,150.69,145.38,153.38,150.28,163.36z"/>
	<path class="st26" d="M130.75,191.34c0,0,8.98-1.59,13.2-6.34c-1.58,4.75-13.36,9.77-13.36,9.77L130.75,191.34z"/>
	<path class="st11" d="M148.17,200.32c0,0,5.91-0.37,8.43,7.35c-1.44,5.35-9.36,8.12-17.27,8.02c-11.13-0.14-17.28-4.15-18.22-8.04
		c-0.65-2.68,7.09-8.26,9.49-5.45C130.75,204.01,143.16,208.11,148.17,200.32z"/>
	<polygon class="st27" points="139.33,403.57 139.71,418.88 124.94,382.45 	"/>
	<path class="st28" d="M116.47,215.7c0,0,11.95,9.7,24.73,8.11C131.01,227.77,122.52,225.8,116.47,215.7z"/>
	<path class="st28" d="M121.07,282.28c0,0,14.54,26.12,36.74,45.58C139.71,320.93,126.1,309.73,121.07,282.28z"/>
	<path class="st24" d="M112.84,209.12c0,0-6.03,0.13-8.49,3.08c5.65,15,8.49,61.24,58.13,122.26c2.64-4.53,5.09-5.93,5.09-5.93
		S130.59,282.39,112.84,209.12z"/>
	<path class="st12" d="M170.61,581.17v9.68l15.05,5.15v-15.21C185.65,580.78,175.09,581.41,170.61,581.17z"/>
	<path class="st10" d="M170.61,590.84c0,0,11.88,1.72,15.05,5.15c3.17,3.43,0,7.39,0,7.39s-29.56,2.9-31.94,0
		C151.34,600.48,161.63,592.82,170.61,590.84z"/>
	<path class="st12" d="M112.54,580.78v10.07l15.05,5.15v-14.7C127.58,581.3,119,580.37,112.54,580.78z"/>
	<path class="st10" d="M112.54,590.84c0,0,11.88,1.72,15.05,5.15c3.17,3.43,0,7.39,0,7.39s-29.56,2.9-31.94,0
		C93.27,600.48,103.57,592.82,112.54,590.84z"/>
	<path class="st29" d="M160.3,340.65c0,0-0.63-7.94,3.18-5.19c5.66,4.08,6,23.63,0.23,26.38c0,0-2.45,1.06-3.78-5.76
		c0,0,3.33-0.02,3.28-1.66C163.17,352.77,163.99,341.87,160.3,340.65z"/>
	<path class="st30" d="M221.71,400.66l-2.28,11.99c0,0-18.65-7.11-20.55-16.4c-1.9-9.28-6.09-29.68-6.09-29.68
		s13.94,24.74,17.09,24.74S221.71,400.66,221.71,400.66z"/>
	<path class="st24" d="M199.08,346.36c0,0,25.27,16.9,24.07,47.71c-0.98,25.15-28.51-12.31-26.56-22.47c0,0-2.81,24.61,23.44,37.78
		c0,0,6.98,37.55-10.65,34.6s-15.67-11.32-17.14-22.24c-1.47-10.92-6.97-65.26-6.97-65.26L199.08,346.36z"/>
	<path class="st18" d="M116.5,151.22c0,0,7.83,6.64,25.93,8.53c17.61,1.83-24.99,4.43-37.07-7.2L116.5,151.22z"/>
	<path class="st13" d="M157.81,330.37c0,0,5.83-6.43-20.44-6.43c-22.55,0-24.82,2.76-24.2,6.43
		C113.8,334.04,157.56,338.17,157.81,330.37z"/>
	<path class="st10" d="M156.41,329.37c2-3.29-30.6-6.05-41.48-0.75C106.95,332.51,149.14,341.36,156.41,329.37z"/>
	<path class="st13" d="M156.01,328.52c-13,5.31-26.25,5.32-40.46,0.12c-6.53-2.39,0.38,25.67,9.58,28.45
		c6.52,1.43,15.21,1.38,22.99-0.46C155.44,354.9,162.51,325.87,156.01,328.52z"/>
	<path class="st12" d="M164.91,338.65c-3.77-0.95-16.65,6.1-20.38,10.34c-2.18,2.47-0.8,10.48,7.12,9.2
		c11.41-1.84,15.5-3.06,16.24-5.53C168.43,350.86,167.27,339.25,164.91,338.65z"/>
	<path class="st25" d="M293.06,264.6c0,0-19.6,93.19-3.49,93.75c16.11,0.56,24.15-8.36,24.15-8.36S313.02,258.41,293.06,264.6z"/>
	<path class="st25" d="M375.59,329.22c0,0,13.31-8.64,6.74-23.16c-6.57-14.51-14.52-33.52-16.07-36.28s-7.16,70.61-7.16,70.61
		L375.59,329.22z"/>
	<path class="st10" d="M285.23,375.18c0,0,4.81,150.28,17.21,212.04c19.17,0,29.64,0,29.64,0s6.47-133.38,4.48-174.56
		c9.9,85.52,22.27,173.55,22.27,173.55s15.12,2.61,30.96-0.55c3.96-36.43,5.73-194.59-0.61-227.29
		c-7.92-19.23-35.35-13.01-35.35-13.01l-58.86,6.79L285.23,375.18z"/>
	<path class="st11" d="M296.75,357.95c2.41,4.34-7.63,19.18-11.51,17.24c2.33,1.17-37.17-36.49-19.95-79.98
		c13.05-32.95,15.8-60.69,25.6-70.47c9.8-9.79,28.88-11.45,28.68-11.4c-0.2,0.05,16.11,12.25,34.65,0.28c0,0,28.01,6.07,34.85,16.92
		s14.57,25.21,24.4,53.43c4.53,13,11.91,44.62-16.36,67.34c-22.15,17.8-29.35,17.32-35.17,16.88s-5.42-22.82-2.84-27.78
		c3.14-6.04,23.48-15.2,18.71-34.71c-2.85-11.67-9.67-27.96-9.67-27.96s7.76,33.28-1.75,48.05c-18.41,28.61-0.88,34.81-5.55,34.57
		c-3.93-0.2-42.85-1.14-55.16-1.44c0,0-12.97-7.29-12.72-24.2c0.24-16.91,11.79-49.6,5.32-67.22c-6.46-17.62,0,0,0,0
		s-1.1,30-6,46.81C287.37,331.1,286.99,340.39,296.75,357.95z"/>
	<path class="st10" d="M362.54,168.03c0,0,3.2,12.62-4.46,18.16c-7.65,5.54-12.67,6.86-12.67,8.71c0-6.86-1.45-29.9-0.72-29.2
		C345.43,166.39,362.54,168.03,362.54,168.03z"/>
	<path class="st12" d="M311.63,169.3c0,0-8.98,25.87,16.36,27.98c-0.53,9.5,0,12.67,0,12.67s14.78,7.92,17.42-3.69
		c0-14.78,0-20.06,0-20.06s14.78-6.34,2.11-16.89C327.99,169.3,311.63,169.3,311.63,169.3z"/>
	<path class="st13" d="M313.74,157.15c0,0-1.76-21.17,24.42-21.25c25.05-0.08,26.36,25.79,24.38,32.12
		c-3.96,1.19-16.87,1.41-16.87,1.41S326.54,157.42,313.74,157.15z"/>
	<path class="st13" d="M347.53,169.3c0,0-49.62,4.22-53.85-3.17s14.25-8.44,20.06-8.97C319.55,156.63,342.63,159.31,347.53,169.3z"
		/>
	<path class="st26" d="M327.99,197.28c0,0,8.98-1.59,13.2-6.34c-1.58,4.75-13.36,9.77-13.36,9.77L327.99,197.28z"/>
	<path class="st11" d="M345.42,206.25c0,0,5.91-0.37,8.43,7.35c-1.44,5.35-9.36,8.12-17.27,8.02c-11.13-0.14-17.28-4.15-18.22-8.04
		c-0.65-2.68,7.09-8.26,9.49-5.45C327.99,209.95,340.4,214.04,345.42,206.25z"/>
	<polygon class="st27" points="336.58,409.5 336.96,424.81 322.19,388.38 	"/>
	<path class="st28" d="M313.72,221.63c0,0,11.95,9.7,24.73,8.11C328.26,233.7,319.76,231.73,313.72,221.63z"/>
	<path class="st28" d="M322.19,288.41c0,0,10.67,25.92,32.87,45.38C340.84,334.28,327.22,315.86,322.19,288.41z"/>
	<path class="st12" d="M367.85,587.1v9.68l15.05,5.15v-15.21C382.9,586.71,372.34,587.34,367.85,587.1z"/>
	<path class="st10" d="M367.85,596.77c0,0,11.88,1.72,15.05,5.15s0,7.39,0,7.39s-29.56,2.9-31.94,0
		C348.58,606.41,358.88,598.75,367.85,596.77z"/>
	<path class="st12" d="M309.78,586.71v10.07l15.05,5.15v-14.7C324.83,587.23,316.25,586.3,309.78,586.71z"/>
	<path class="st10" d="M309.78,596.77c0,0,11.88,1.72,15.05,5.15s0,7.39,0,7.39s-29.56,2.9-31.94,0
		C290.51,606.41,300.81,598.75,309.78,596.77z"/>
	<path class="st29" d="M357.54,346.58c0,0-0.63-7.94,3.18-5.19c5.66,4.08,6,23.63,0.23,26.38c0,0-2.45,1.06-3.78-5.76
		c0,0,3.33-0.02,3.28-1.66C360.42,358.7,361.23,347.81,357.54,346.58z"/>
	<path class="st18" d="M313.74,157.15c0,0,7.83,6.64,25.93,8.53c17.61,1.83-24.99,4.43-37.07-7.2L313.74,157.15z"/>
	<path class="st13" d="M355.05,336.3c0,0,5.83-6.43-20.44-6.43c-22.55,0-24.82,2.76-24.2,6.43
		C311.04,339.97,354.81,344.1,355.05,336.3z"/>
	<path class="st10" d="M353.65,335.3c2-3.29-30.6-6.05-41.48-0.75C304.19,338.44,346.38,347.29,353.65,335.3z"/>
	<path class="st13" d="M203.54,380.41c0-1.32,1.97-2.09,10.42-0.63c12.76,2.2,10.9,6,10.2,6.69c-0.7,0.7-5.12,2.79-7.21,1.4
		S203.54,382.04,203.54,380.41z"/>
	<path class="st13" d="M353.26,334.45c-13,5.31-26.25,5.32-40.46,0.12c-6.53-2.39,0.38,25.67,9.58,28.45
		c6.52,1.43,15.21,1.38,22.99-0.46C352.68,360.83,359.76,331.8,353.26,334.45z"/>
	<path class="st12" d="M362.15,344.58c-3.77-0.95-16.65,6.1-20.38,10.34c-2.18,2.47-0.8,10.48,7.12,9.2
		c11.41-1.84,15.5-3.06,16.24-5.53C365.68,356.79,364.51,345.18,362.15,344.58z"/>
	<g>
		<path class="st10" d="M205.23,383.21c-5.92-4.97,4.38-3.43,9.93-2.17c21.88,4.95-3.14,9.41,7.35,6.22
			C216.31,389.15,207.19,384.85,205.23,383.21z"/>
		<path class="st13" d="M223.92,385.6c3.09-0.95-6.88,21.77-8.87,20.93c-3.84-1.62-10.81-8.71-13.45-13.95
			c-0.52-1.04,1.08-12.79,2.01-12.17C208.74,383.87,219.45,386.98,223.92,385.6z"/>
	</g>
	<g id="Ebene_2">
	</g>
</g>
</svg>
