<?xml version="1.0" encoding="utf-8"?>
<!-- Generator: Adobe Illustrator 23.0.6, SVG Export Plug-In . SVG Version: 6.00 Build 0)  -->
<svg version="1.1" xmlns="http://www.w3.org/2000/svg" xmlns:xlink="http://www.w3.org/1999/xlink" x="0px" y="0px"
	 viewBox="0 0 540 674.24" style="enable-background:new 0 0 540 674.24;" xml:space="preserve">
<style type="text/css">
	.st0{opacity:0.37;fill:#D9E6E8;}
	.st1{clip-path:url(#SVGID_2_);}
	.st2{fill:#FFFFFF;}
	.st3{fill:#DBCDB5;}
	.st4{fill:#B2D3E5;}
	.st5{fill:#A6C726;}
	.st6{fill:#6E8EA1;}
	.st7{fill:#D8E9F3;}
	.st8{fill:#374750;}
	.st9{fill:#64121B;}
	.st10{fill:#262451;}
	.st11{fill:#821E33;}
	.st12{fill:#E0A596;}
	.st13{fill:#96C3DC;}
	.st14{opacity:0.6;fill:#F08371;enable-background:new    ;}
	.st15{opacity:0.6;fill:#2F1B42;enable-background:new    ;}
	.st16{opacity:0.6;fill:#A53447;enable-background:new    ;}
	.st17{opacity:0.6;fill:#902032;enable-background:new    ;}
	.st18{fill:#82AFC8;}
	.st19{clip-path:url(#SVGID_4_);}
	.st20{fill:#678596;}
	.st21{fill:none;stroke:#FFFFFF;stroke-width:4;stroke-miterlimit:10;}
	.st22{fill:none;stroke:#B2D3E5;stroke-width:3;}
	.st23{clip-path:url(#SVGID_6_);}
	.st24{fill:#61808F;}
	.st25{fill:#64121A;}
	.st26{opacity:0.6;fill:#F08371;}
	.st27{opacity:0.6;fill:#2F1B43;}
	.st28{opacity:0.6;fill:#A43446;}
	.st29{opacity:0.6;fill:#902032;}
	.st30{fill:#3D5663;}
	.st31{fill:#8EB6C7;}
	.st32{fill:#3C505A;}
	.st33{fill:#4F6976;}
	.st34{fill:#996663;}
	.st35{fill:#1F1430;}
	.st36{fill:#D29B8D;}
	.st37{fill:none;stroke:#823C37;stroke-width:1.5;stroke-linecap:round;stroke-miterlimit:10;}
	.st38{fill:#B0CFD6;}
	.st39{fill:#282451;}
	.st40{fill:#811E33;}
	.st41{fill:#64121C;}
	.st42{fill:#201630;}
	.st43{fill:#95C2DB;}
	.st44{fill:#81AEC7;}
	.st45{opacity:0.58;fill:#FFFFFF;}
	.st46{fill:#70ACCE;}
	.st47{fill:#ABCAD8;}
	.st48{fill:none;stroke:#263062;stroke-width:3;stroke-linecap:round;stroke-miterlimit:10;}
	.st49{fill:#C3D9E0;}
	.st50{opacity:0.64;}
	.st51{fill:none;stroke:#262451;stroke-width:3;stroke-linecap:round;stroke-miterlimit:10;}
	.st52{fill:none;stroke:#262451;stroke-width:3;stroke-linecap:round;stroke-miterlimit:10;stroke-dasharray:11.7706,11.7706;}
	.st53{fill:#EAE3C3;}
	.st54{fill:#C5D4D8;}
	.st55{fill:#BCB592;}
	.st56{fill:#8A9C9B;}
	.st57{fill:#A2BAB9;}
	.st58{fill:#E8EAEA;}
	.st59{fill:#75A6B7;}
	.st60{fill:#B3D4E1;}
	.st61{fill:#D0E4EA;}
	.st62{fill:#62818F;}
	.st63{fill:#E3F0F5;}
	.st64{fill:none;}
	.st65{fill:none;stroke:#62818F;stroke-width:6;stroke-miterlimit:10;}
</style>
<g id="Ebene_3">
</g>
<g id="Ebene_1">
	<path class="st12" d="M263.43,294.17l-0.82-9.51c0,0,3.55,1.26,8.64,0.8c7.18-0.65,18.14,0.93,20.01,6.47
		c3.19,9.46-30.94,11.16-30.94,11.16L263.43,294.17z"/>
	<path class="st10" d="M201.5,332.91c4,19.35,0.19,148.93-12.21,210.7c-19.17,0-29.64,0-29.64,0s-6.47-133.38-4.48-174.56
		c-9.9,85.52-22.27,173.55-22.27,173.55s-15.12,2.61-30.96-0.55c-3.96-36.43-5.73-194.59,0.61-227.29
		c7.92-19.23,35.35-13.02,35.35-13.02l58.86,6.79C196.74,308.53,197.5,313.57,201.5,332.91z"/>
	<path class="st10" d="M123.02,131.04c0,0-3.2,12.62,4.46,18.16c7.65,5.54,12.67,6.86,12.67,8.71c0-6.86,1.45-29.9,0.72-29.2
		C140.13,129.39,123.02,131.04,123.02,131.04z"/>
	<path class="st12" d="M173.93,132.3c0,0,8.98,25.87-16.36,27.98c0.53,9.5,0,12.67,0,12.67s-14.78,7.92-17.42-3.69
		c0-14.78,0-20.06,0-20.06s-14.78-6.34-2.11-16.89C157.56,132.3,173.93,132.3,173.93,132.3z"/>
	<path class="st13" d="M171.82,120.16c0,0,1.76-21.17-24.42-21.25c-25.05-0.08-26.36,25.79-24.38,32.12
		c3.96,1.19,16.87,1.41,16.87,1.41S159.02,120.43,171.82,120.16z"/>
	<path class="st13" d="M138.03,132.3c0,0,49.62,4.22,53.85-3.17c4.22-7.39-14.25-8.44-20.06-8.97
		C166.01,119.63,142.93,122.32,138.03,132.3z"/>
	<path class="st26" d="M157.56,160.28c0,0-8.98-1.59-13.2-6.34c1.58,4.75,13.36,9.77,13.36,9.77L157.56,160.28z"/>
	<polygon class="st27" points="155.16,365.88 154.78,381.19 169.55,344.76 	"/>
	<path class="st12" d="M123.88,543.48v9.68l-15.05,5.15v-15.21C108.84,543.09,119.39,543.73,123.88,543.48z"/>
	<path class="st10" d="M123.88,553.16c0,0-11.88,1.72-15.05,5.15s0,7.39,0,7.39s29.56,2.9,31.94,0
		C143.15,562.79,132.85,555.14,123.88,553.16z"/>
	<path class="st12" d="M181.95,543.09v10.07l-15.05,5.15v-14.7C166.91,543.61,175.48,542.68,181.95,543.09z"/>
	<path class="st10" d="M181.95,553.16c0,0-11.88,1.72-15.05,5.15s0,7.39,0,7.39s29.56,2.9,31.94,0
		C201.22,562.79,190.92,555.14,181.95,553.16z"/>
	<path class="st29" d="M134.19,302.96c0,0,0.63-7.94-3.18-5.19c-5.66,4.08-6,23.63-0.23,26.38c0,0,2.45,1.06,3.78-5.76
		c0,0-3.33-0.02-3.28-1.66C131.32,315.09,130.5,304.19,134.19,302.96z"/>
	<path class="st18" d="M171.82,120.16c0,0-7.83,6.64-25.93,8.53c-17.61,1.83,24.99,4.43,37.07-7.2L171.82,120.16z"/>
	<path class="st11" d="M163.97,174.76c0,0,30.91,7.65,34.23,17.61c3.32,9.97,15.35,49.62,19.28,58.34
		c8.62,19.13,45.31,33.33,45.31,33.33s7.03,18.74,0.78,21.48c-25.26,0-49.76-3.8-65.17-13.03c0,26.93,5.95,16.78,2.22,26.12
		c-2.11,5.28-83.15,24.79-91.46-0.13c-1.66-10.8,0-15.78,0-15.78s8.44,39.88-10.67,49.01c-10.8-4.15-18.52-7.89-18.52-7.89
		s-8.88-29.08,0.52-76.11c9-45,12.36-78.25,33.48-86.73c7.14-2.87,30.08-7.01,30.08-7.01S155.39,187.21,163.97,174.76z"/>
	<path class="st25" d="M192.13,284.75c0,0-7.12-42.87-4.03-71.46c0.55,29.91,10.49,79.41,10.49,79.41L192.13,284.75z"/>
	<path class="st25" d="M111.35,294.9c0,0,20.81-62.78,22.61-76.91c-1.47,20.24-10.15,54.29-14.51,78.71
		c-2.48,13.93-4.83,25.34-7.95,27.22C111.5,314.52,111.35,294.9,111.35,294.9z"/>
	<path class="st25" d="M166.33,180.67c0,0-7.08,8.09-17.72,5.52C137.96,183.62,159.5,199.08,166.33,180.67z"/>
	<path class="st11" d="M140.76,168.54c0,0-5.91-0.37-8.43,7.35c1.44,5.35,9.36,8.12,17.27,8.02c11.13-0.14,17.28-4.15,18.22-8.04
		c0.65-2.68-7.09-8.26-9.49-5.45C158.18,172.23,145.77,176.33,140.76,168.54z"/>
	<g>
		<path class="st10" d="M299.45,261.32c1.99-3.28-32.07-5.89-42.93-0.6C248.57,264.6,292.2,273.28,299.45,261.32z"/>
		<path class="st13" d="M297.88,260.72c-12.96,5.29-26.17,5.31-40.34,0.12c-6.53-2.39,0.37,25.58,9.55,28.36
			c6.5,1.43,15.17,1.38,22.92-0.46C297.31,287.01,304.36,258.07,297.88,260.72z"/>
	</g>
	<path class="st25" d="M80.56,344.38c0,0-5.95-8.25,6.82-6.59c26.58,3.46,13.09,11.42,12.16,12.07S96.43,352.73,80.56,344.38z"/>
	<path class="st12" d="M81.56,344.38c-2.02,3.32-0.1,14.71,2.84,19.53c1.71,2.81,14.45,7.57,13.95-7.79
		c1.62-11.44,3.62-8.99,1.48-10.43C98.27,344.63,82.83,342.3,81.56,344.38z"/>
	<g id="Ebene_2">
		<g>
			<path class="st33" d="M318.95,255.6c0,0,32.5-56.26,124.07-32.26c54,14.15,60.12,61.05,60.09,88.83
				c-0.06,56.11,0,227.01,0,227.01l-37.05,1.12L318.95,255.6z"/>
			<path class="st13" d="M311.32,540.12l162.3,0c0,6.76,0-188.43,0-253.62c0-12.78-7.86-69.29-85.88-67.84
				c-78.02,1.44-76.43,60.91-76.43,60.91V540.12z"/>
			<path class="st33" d="M473.62,540.12v25.19c0,0-7.56,8.29-15.12,0v-25.19H473.62z"/>
			<path class="st33" d="M503.45,538.96v25.19c0,0-7.56,8.29-15.12,0v-25.19H503.45z"/>
			<path class="st33" d="M326.43,540.12v25.19c0,0-7.56,8.29-15.12,0v-25.19H326.43z"/>
			<rect x="350.52" y="288.9" class="st33" width="90.5" height="50.27"/>
			
				<rect x="427.16" y="361.73" transform="matrix(6.123234e-17 -1 1 6.123234e-17 70.9378 803.054)" class="st33" width="19.67" height="8.65"/>
		</g>
		<path class="st45" d="M392.25,229.57c0,0,29.96,0.76,44.85,10.74c17.75,11.89,23.3,40.04,23.3,40.04s-11.32-17.56-28.12-30.68
			C413.78,235.24,392.25,229.57,392.25,229.57z"/>
		<path class="st33" d="M355.79,540.12v25.19c0,0-7.56,8.29-15.12,0v-25.19H355.79z"/>
	</g>
</g>
</svg>
