<?xml version="1.0" encoding="utf-8"?>
<!-- Generator: Adobe Illustrator 23.0.6, SVG Export Plug-In . SVG Version: 6.00 Build 0)  -->
<svg version="1.1" xmlns="http://www.w3.org/2000/svg" xmlns:xlink="http://www.w3.org/1999/xlink" x="0px" y="0px"
	 viewBox="0 0 1190.29 706.23" style="enable-background:new 0 0 1190.29 706.23;" xml:space="preserve">
<style type="text/css">
	.st0{opacity:0.37;fill:#D9E6E8;}
	.st1{clip-path:url(#SVGID_2_);}
	.st2{fill:#FFFFFF;}
	.st3{fill:#DBCDB5;}
	.st4{fill:#B2D3E5;}
	.st5{fill:#A6C726;}
	.st6{fill:#6E8EA1;}
	.st7{fill:#D8E9F3;}
	.st8{fill:#374750;}
	.st9{fill:#64121B;}
	.st10{fill:#262451;}
	.st11{fill:#821E33;}
	.st12{fill:#E0A596;}
	.st13{fill:#96C3DC;}
	.st14{opacity:0.6;fill:#F08371;enable-background:new    ;}
	.st15{opacity:0.6;fill:#2F1B42;enable-background:new    ;}
	.st16{opacity:0.6;fill:#A53447;enable-background:new    ;}
	.st17{opacity:0.6;fill:#902032;enable-background:new    ;}
	.st18{fill:#82AFC8;}
	.st19{clip-path:url(#SVGID_4_);}
	.st20{fill:#678596;}
	.st21{fill:none;stroke:#FFFFFF;stroke-width:4;stroke-miterlimit:10;}
	.st22{fill:none;stroke:#B2D3E5;stroke-width:3;}
	.st23{clip-path:url(#SVGID_6_);}
	.st24{fill:#61808F;}
	.st25{fill:#64121A;}
	.st26{opacity:0.6;fill:#F08371;}
	.st27{opacity:0.6;fill:#2F1B43;}
	.st28{opacity:0.6;fill:#A43446;}
	.st29{opacity:0.6;fill:#902032;}
	.st30{fill:#3D5663;}
	.st31{fill:#8EB6C7;}
	.st32{fill:#3C505A;}
	.st33{fill:#4F6976;}
	.st34{fill:#996663;}
	.st35{fill:#1F1430;}
	.st36{fill:#D29B8D;}
	.st37{fill:none;stroke:#823C37;stroke-width:1.5;stroke-linecap:round;stroke-miterlimit:10;}
	.st38{fill:#B0CFD6;}
	.st39{fill:#282451;}
	.st40{fill:#811E33;}
	.st41{fill:#64121C;}
	.st42{fill:#201630;}
	.st43{fill:#95C2DB;}
	.st44{fill:#81AEC7;}
	.st45{opacity:0.58;fill:#FFFFFF;}
	.st46{fill:#70ACCE;}
	.st47{fill:#ABCAD8;}
	.st48{fill:none;stroke:#263062;stroke-width:3;stroke-linecap:round;stroke-miterlimit:10;}
	.st49{fill:#C3D9E0;}
	.st50{opacity:0.64;}
	.st51{fill:none;stroke:#262451;stroke-width:3;stroke-linecap:round;stroke-miterlimit:10;}
	.st52{fill:none;stroke:#262451;stroke-width:3;stroke-linecap:round;stroke-miterlimit:10;stroke-dasharray:11.7706,11.7706;}
	.st53{fill:#EAE3C3;}
	.st54{fill:#C5D4D8;}
	.st55{fill:#BCB592;}
	.st56{fill:#8A9C9B;}
	.st57{fill:#A2BAB9;}
	.st58{fill:#E8EAEA;}
	.st59{fill:#75A6B7;}
	.st60{fill:#B3D4E1;}
	.st61{fill:#D0E4EA;}
	.st62{fill:#62818F;}
	.st63{fill:#E3F0F5;}
	.st64{fill:none;}
	.st65{fill:none;stroke:#62818F;stroke-width:6;stroke-miterlimit:10;}
</style>
<g id="Ebene_3">
	<g>
		<defs>
			<rect id="SVGID_1_" x="418.43" y="109.93" width="636.5" height="481.26"/>
		</defs>
		<clipPath id="SVGID_2_">
			<use xlink:href="#SVGID_1_"  style="overflow:visible;"/>
		</clipPath>
		<g class="st1">
			<path class="st2" d="M523.49,167.66c94.53-78.62,234.93-65.8,313.58,28.62c78.65,94.41,65.78,234.69-28.75,313.29
				c-45.42,37.77-101.44,54.44-156.11,51.07c0,0,0-0.01-0.02-0.01l-0.03,0c-0.23-0.02-1.11-0.11-2.49-0.17
				c-5.98-0.23-17.65,1.09-23.91,9.97c-7.93,11.24-5.94,16.1-11.98,18.84c-10.36,4.68-17.67-12.91-3.63-19.66
				c13.77-6.63,2.88-14.68,2.42-15l-0.01,0c-44.59-10.95-86.19-35.71-117.82-73.67C416.09,386.53,428.95,246.27,523.49,167.66z"/>
			<path class="st3" d="M526.95,239.53c0-0.01,0.01-0.02,0.02-0.02l-0.01,0.02H526.95z"/>
			<path class="st3" d="M528.43,237.98c-0.77,0.86-1.3,1.39-1.44,1.51C527.46,239,527.94,238.49,528.43,237.98z"/>
			<path class="st4" d="M563.65,324.78c0.46,1,0.66,1.59,0.66,1.59s-0.14,0.24-0.42,0.67c-3.47,5.47-28.26,42.23-63.63,36.04
				c-0.53-0.1-1.07-0.2-1.61-0.31c-0.25-0.05-0.5-0.1-0.73-0.16c-10.96-2.39-20.88-6.54-29.49-11.25c-0.67-0.36-1.33-0.73-1.97-1.1
				c-16.23-9.27-27.42-20.33-31.43-24.6c-1.08-1.15-1.64-1.81-1.64-1.81c0.21-0.14,0.43-0.27,0.65-0.41
				c18.66-11.65,34.78-19.11,48.7-23.49c0.78-0.25,1.55-0.48,2.32-0.71c15.78-4.66,28.63-5.3,39.03-3.62
				c1.02,0.16,2.01,0.35,2.98,0.56C551.33,301.36,561.18,319.34,563.65,324.78z"/>
			<path class="st5" d="M527.04,296.2l17.22,27.48l0.12,0.19l-1.89,1.18l-0.93-1.48l-17.51-27.94
				C525.08,295.8,526.07,295.99,527.04,296.2z"/>
			<path class="st4" d="M575.49,241.1c0.16,2.13,0.27,4.17,0.33,6.04c0.2,5.98-0.04,10.26-0.05,10.6c0,0.01-0.01,0.01-0.01,0.01
				l-41,32.37c0,0,0,0-0.01,0c-0.34-0.06-4.55-0.83-10.32-2.41c-1.8-0.5-3.76-1.07-5.81-1.72c-10.96-3.54-24.26-9.47-28.9-18.32
				c-1.43-2.72-2.02-4.91-2.03-6.7c0-0.92,0.15-1.72,0.43-2.44c2.38-6.08,13.93-5.4,15.93-7.28c2.69-2.54-13.42-13.28-28.24-18.24
				c-13.85-4.64-28.05-14.22-24.01-24.91c0.15-0.38,0.31-0.76,0.51-1.14c0.17-0.36,0.37-0.71,0.6-1.07
				c7.07-11.56,21.08-0.86,23.83-6.02c2.7-5.07-43.75-37.88-23.9-53.7c0.3-0.25,0.65-0.5,0.98-0.74c0.32-0.27,0.63-0.55,0.94-0.78
				c19.97-15.63,41.1,37.17,46.67,35.72c5.66-1.48-1.5-17.58,11.39-21.79c0.4-0.14,0.78-0.25,1.18-0.32
				c0.42-0.1,0.83-0.17,1.23-0.22c11.34-1.45,17.36,14.59,18.66,29.13c1.38,15.56,8.08,33.72,11.17,31.71
				c2.31-1.5,4.32-12.89,10.78-13.8c0.77-0.11,1.59-0.06,2.48,0.15c1.74,0.42,3.73,1.51,6.05,3.54
				C571.91,215.3,574.59,229.62,575.49,241.1z"/>
			<path class="st4" d="M759.18,465.38c-2.12-0.46-4.12-0.96-5.94-1.45c-5.84-1.55-9.91-3.03-10.25-3.15
				c-0.01,0-0.01-0.01-0.01-0.01l-19.34-49.13v-0.01c0.16-0.31,2.13-4.16,5.35-9.28c1-1.6,2.13-3.33,3.36-5.11
				c6.61-9.57,16.25-20.71,26.18-22.61c3.05-0.58,5.35-0.52,7.08-0.01c0.88,0.27,1.63,0.65,2.25,1.13
				c5.19,4.08,1.15,15.06,2.39,17.54c1.67,3.35,16.77-9.12,25.89-22.01c8.52-12.05,21.95-22.99,31.12-15.96
				c0.34,0.26,0.65,0.52,0.97,0.83c0.3,0.27,0.57,0.56,0.86,0.88c9.12,10.22-5.33,20.64-1.14,24.81
				c4.12,4.09,49.44-31.28,58.94-7.44c0.15,0.36,0.3,0.77,0.43,1.17c0.17,0.38,0.35,0.77,0.48,1.15
				c9.29,23.9-47.98,28.92-48.2,34.73c-0.22,5.92,17.46,3.68,17.75,17.38c0.01,0.43,0,0.83-0.02,1.23
				c-0.02,0.43-0.07,0.84-0.14,1.27c-1.91,11.39-19.19,12.54-33.63,9.54c-15.46-3.21-35-2.03-33.94,1.55
				c0.78,2.67,11.22,7.94,10.21,14.47c-0.12,0.77-0.41,1.55-0.87,2.36c-0.92,1.55-2.56,3.18-5.19,4.83
				C785.19,469.45,770.55,467.86,759.18,465.38z"/>
			<path class="st5" d="M736.51,475.13l-1.1-0.57l-1.1-0.58l0.21-0.41l31.3-59.86c0.88,0.27,1.63,0.65,2.23,1.13l-29.99,57.33
				l-0.88,1.69L736.51,475.13z"/>
			<path class="st4" d="M595.08,470.51c0.21,1.55,0.26,2.42,0.26,2.42s-0.29,0.26-0.84,0.74c-6.91,6.04-55.31,46.07-100.9,23.5
				c-0.69-0.33-1.38-0.69-2.07-1.07c-0.31-0.16-0.63-0.34-0.94-0.51c-13.93-7.63-25.77-17.25-35.56-27.11
				c-0.76-0.76-1.5-1.53-2.23-2.3c-18.34-19.09-29.12-38.6-32.85-46c-1-1.99-1.5-3.1-1.5-3.1c0.35-0.1,0.69-0.2,1.04-0.29
				c30.01-8.36,54.91-12.03,75.56-12.42c1.15-0.02,2.3-0.04,3.42-0.04c23.31-0.01,41.03,4.27,54.48,10.71
				c1.32,0.63,2.59,1.28,3.83,1.95C587.72,433.74,593.9,462.11,595.08,470.51z"/>
			<path class="st5" d="M556.78,417l12.39,44.24l0.09,0.31l-3.04,0.86l-0.67-2.37l-12.61-44.97
				C554.26,415.69,555.54,416.33,556.78,417z"/>
			<path class="st4" d="M884.73,210.7c-0.21,0.99-0.42,2-0.65,3c-2.93,12.99-7.63,26.81-15.04,40.1c-0.16,0.3-0.33,0.6-0.5,0.89
				c-0.37,0.66-0.74,1.29-1.13,1.92c-25.48,41.53-85.12,33.72-93.82,32.33c-0.69-0.11-1.07-0.19-1.07-0.19s-0.41-0.73-1.02-2.08
				c-3.32-7.41-12.77-33.57,3.81-62.91c0.66-1.17,1.36-2.34,2.11-3.52c7.63-12.07,19.83-24.58,38.75-36.44
				c0.92-0.57,1.85-1.15,2.8-1.72c16.95-10.21,39.01-19.91,67.62-28.42c0.33-0.1,0.66-0.2,0.99-0.3c0,0,0.16,1.15,0.36,3.29
				C888.67,164.56,889.87,185.86,884.73,210.7z"/>
			<path class="st5" d="M790.77,265.39l-2.9,0.86l-0.09-0.29l-12.48-42.21c0.66-1.17,1.36-2.34,2.11-3.52l12.69,42.9L790.77,265.39z
				"/>
			<path class="st4" d="M623.67,223.99c-35.36-43.99-52.32-77.74-49.13-98.06c0.12-0.83-0.43-1.61-1.25-1.75
				c-0.83-0.14-1.6,0.43-1.72,1.27c-1.96,12.56,3.1,29.61,15.05,50.73c8.76,15.47,21.22,33.14,37.07,52.63v-4.81H623.67z"/>
			<path class="st6" d="M577.5,156.47c0,0-10.26,7.44-22.53-11.25C554.97,145.22,573.87,138.31,577.5,156.47z"/>
			<path class="st6" d="M583.33,166.45c0,0-7.94-9.91,9.89-23.32C593.22,143.12,601.11,161.78,583.33,166.45z"/>
			<path class="st6" d="M572.92,135.24c0,0-10.77-6.67,1.61-25.31C574.53,109.93,588.13,124.87,572.92,135.24z"/>
			<path class="st6" d="M594.46,186.87c0,0-7.16,10.51-24.97-2.9C569.48,183.98,584.95,171.01,594.46,186.87z"/>
			<path class="st6" d="M601.93,196.12c0,0-9.53-8.39,5.73-24.7C607.66,171.42,618.64,188.43,601.93,196.12z"/>
			<path class="st6" d="M610.91,209.82c0,0-6.96,10.65-25.02-2.42C585.88,207.4,601.11,194.15,610.91,209.82z"/>
			<path class="st4" d="M878.26,285.06c-0.76-0.35-1.66-0.01-2,0.76c-8.47,18.86-41.41,37.75-95.58,54.95l-1.22,3.57
				c23.72-7.44,43.63-15.25,59.3-23.26c21.49-10.99,35.02-22.43,40.24-34.01C879.35,286.31,879.02,285.4,878.26,285.06z"/>
			<path class="st6" d="M857.13,309.67c0,0,4.5,11.91,24.95,3.11C882.08,312.78,870.06,296.52,857.13,309.67z"/>
			<path class="st6" d="M846.81,314.76c0,0,12.03-3.87,4.47-24.96C851.29,289.79,834.52,301,846.81,314.76z"/>
			<path class="st6" d="M872.53,294.5c0,0,12.63,0.4,12.46-22.03C884.99,272.46,865.48,277.38,872.53,294.5z"/>
			<path class="st6" d="M826.39,325.64c0,0,0.24,12.74,22.44,11.44C848.82,337.09,842.96,317.69,826.39,325.64z"/>
			<path class="st6" d="M815.1,329.22c0,0,12.52-1.71,8.68-23.81C823.78,305.41,805.35,313.52,815.1,329.22z"/>
			<path class="st6" d="M800.14,335.68c0,0,0,12.75,22.22,11.87C822.36,347.54,816.87,328.03,800.14,335.68z"/>
			<path class="st4" d="M957.59,591.19c53.76,0,97.34-4.99,97.34-11.14c0-6.15-43.58-11.14-97.34-11.14s-97.34,4.99-97.34,11.14
				C860.25,586.2,903.83,591.19,957.59,591.19z"/>
			<path class="st4" d="M627.29,233.89v-33.61c0,0-10.91-23.18,5.15-37.23h27.41c0,0,14.95,16.29,2.8,37.29l-2.07,33.56h-33.29
				V233.89z"/>
			<path class="st4" d="M632.43,163.05c0,0,5.98-3.51,6.92-9.86h14.7c2.01,7.83,5.79,9.86,5.79,9.86H632.43z"/>
			<path class="st6" d="M658.46,147.69h-24.01v8.5h24.01V147.69z"/>
			<path class="st7" d="M650.44,164.52c0,0,14.8,17.68,11.97,27.29C662.43,191.81,666.32,166.72,650.44,164.52z"/>
			<path class="st7" d="M702.52,183.79c8-9.18-6.85-4.53-15.19-1.22c-6.28,2.49-21.67,9.83-9.93,11.48
				C687.52,195.48,699.86,186.83,702.52,183.79z"/>
			<path class="st4" d="M673.67,190.37c-5.05-0.73,21.17,45.02,24.55,44.75c5.45-0.45,14.55-3.46,18.6-7.42
				c2.74-2.68-11.07-51.62-13.04-49.33C697.45,185.74,680.98,191.42,673.67,190.37z"/>
			<path class="st6" d="M682.63,166.75l-3.01,1.36l8.04,17.84l3.01-1.36L682.63,166.75z"/>
			<path class="st7" d="M697.62,183.38c0,0,17.46,42.87,15.81,48.05c0,0,3.93-2.3,3.76-5.15c-0.17-2.84-7.65-44.43-13.4-47.94
				C703.8,178.36,701.92,182.1,697.62,183.38z"/>
			<path class="st4" d="M730.01,232.28l6.56-28.06c0,0-3.51-21.48,12.63-30.09l22.89,5.36c0,0,9.31,16.53-4.95,31.69l-8.28,27.62
				L730.01,232.28z"/>
			<path class="st4" d="M749.21,174.11c0,0,5.68-1.76,7.7-6.89l12.27,2.87c0.15,6.94,2.92,9.37,2.92,9.37L749.21,174.11z"/>
			<path class="st6" d="M753.9,161.7l-1.66,7.1l20.04,4.69l1.66-7.1L753.9,161.7z"/>
			<path class="st7" d="M762.25,179.2c0,0,6.8,19.86,1.91,27.05C764.16,206.25,779.03,183.68,762.25,179.2z"/>
			<path class="st7" d="M769.04,165.03l-1.92,7.02l5.35,1.43l1.48-7.15L769.04,165.03z"/>
			<path class="st4" d="M827.85,566.55c0,10.99-72.49,23.52-161.91,23.52s-161.91-12.53-161.91-23.52
				c0-10.99,72.49-19.9,161.91-19.9S827.85,555.56,827.85,566.55z"/>
			<path class="st8" d="M750.15,567.37h-38.27V247.86h88.17l-28.77,300.07C770.22,558.96,761.08,567.37,750.15,567.37z"/>
			<path class="st6" d="M808.65,247.85H514.79c-3.23,0-5.84-2.62-5.84-5.84v-14.34c0-3.23,2.62-5.84,5.84-5.84h293.85
				c3.23,0,5.84,2.62,5.84,5.84v14.35C814.49,245.23,811.87,247.85,808.65,247.85z"/>
			<path class="st6" d="M769.42,247.85l-0.72,8.11l-27.68,311.41H569.77c-11.19,0-20.53-8.55-21.51-19.69l-24.24-272.61l-2.42-27.22
				H769.42z"/>
			<path class="st8" d="M769.42,247.85l3.23,12.83l-249.23,6.14l-1.82-18.97H769.42z"/>
			<path class="st9" d="M924.5,310.4c0,0-15.16,72.06-2.7,72.49c12.46,0.43,18.67-6.46,18.67-6.46S939.94,305.63,924.5,310.4z"/>
			<path class="st9" d="M988.31,360.38c0,0,10.29-6.69,5.21-17.9c-5.07-11.22-11.23-25.92-12.43-28.05
				c-1.2-2.13-5.53,54.59-5.53,54.59L988.31,360.38z"/>
			<path class="st10" d="M920.77,390.66c0,0,1.4,121.45,10.99,169.2c14.83,0,22.93,0,22.93,0s5-103.14,3.46-134.97
				c7.66,66.13,17.22,134.19,17.22,134.19s11.69,2.02,23.93-0.43c3.06-28.16,4.43-150.47-0.47-175.74
				c-6.13-14.88-27.33-10.06-27.33-10.06l-45.51,5.25L920.77,390.66z"/>
			<path class="st11" d="M934.18,369.33c1.86,3.35-10.42,22.83-13.42,21.33c1.8,0.91-30.42-30.58-17.11-64.22
				c10.09-25.48,11.58-39.3,19.16-46.87c7.58-7.57,22.33-8.86,22.18-8.82c-0.15,0.04,12.46,9.47,26.8,0.21
				c0,0,21.66,4.69,26.95,13.08c5.29,8.39,11.27,19.49,18.87,41.31c3.5,10.05,9.22,34.5-12.65,52.07
				c-17.13,13.76-22.69,13.39-27.2,13.05c-4.5-0.33-4.19-17.64-2.2-21.49c2.42-4.66,18.15-11.75,14.47-26.84
				c-2.21-9.03-7.48-21.62-7.48-21.62s5.99,25.73-1.35,37.16c-14.23,22.12-0.68,26.91-4.29,26.74c-3.04-0.16-23.51-7.83-33.03-8.05
				c0,0-14.9-16.76-14.71-29.84c0.19-13.08,4.38-20.29-0.62-33.91c-5-13.62,0,0,0,0s-2.56,22.79-1.36,36.28
				C927.76,355.79,926.65,355.76,934.18,369.33z"/>
			<path class="st10" d="M978.65,240.92c0,0,0.56,10.04-6.07,13.12c-6.63,3.07-10.64,3.34-10.91,4.74
				c1.02-5.21,3.33-22.9,3.77-22.27C965.9,237.13,978.65,240.92,978.65,240.92z"/>
			<path class="st12" d="M939.83,234.35c0,0-11.48,17.64,10.23,23.85c1.24,8.06,0.62,10.55,0.62,10.55s10.54,7.31,14.27-1.11
				c0-11.29,0-15.02,0-15.02s10.17-3.05,2.13-12.94C952.25,236.77,939.83,234.35,939.83,234.35z"/>
			<path class="st13" d="M943.23,225.44c0,0,1.79-16.32,21.68-12.51c19.02,3.65,16.19,23.47,13.76,27.99
				c-3.18,0.31-13.01-1.42-13.01-1.42S952.9,227.53,943.23,225.44z"/>
			<path class="st13" d="M967.07,239.66c0,0-38.29-4.14-40.4-10.37c-2.11-6.24,12.06-4.3,16.55-3.84
				C947.72,225.9,964.83,231.35,967.07,239.66z"/>
			<path class="st14" d="M950.06,258.19c0,0,7.89-0.05,11.17-3.72c-1.23,3.67-10.55,6.94-10.55,6.94L950.06,258.19z"/>
			<path class="st11" d="M964.99,265.29c0,0,4.57-0.29,6.53,5.68c-1.12,4.13-7.23,6.28-13.36,6.2c-8.61-0.11-13.36-3.2-14.09-6.22
				c-0.5-2.07,5.48-6.38,7.33-4.22C951.51,268.14,961.1,271.31,964.99,265.29z"/>
			<path class="st15" d="M958.15,422.45l0.29,11.84l-11.41-28.16L958.15,422.45z"/>
			<path class="st16" d="M940.47,277.18c0,0,9.24,7.49,19.12,6.28C951.71,286.52,945.15,284.99,940.47,277.18z"/>
			<path class="st16" d="M947.02,328.81c0,0,8.25,20.04,25.41,35.09C961.45,364.29,950.92,350.04,947.02,328.81z"/>
			<path class="st12" d="M982.33,559.77v7.48l11.64,3.98v-11.76C993.97,559.47,985.8,559.96,982.33,559.77z"/>
			<path class="st10" d="M982.33,567.26c0,0,9.18,1.33,11.64,3.98c2.46,2.66,0,5.72,0,5.72s-22.87,2.25-24.7,0
				C967.43,574.7,975.39,568.79,982.33,567.26z"/>
			<path class="st12" d="M937.43,559.47v7.78l11.64,3.98v-11.36C949.07,559.88,942.43,559.16,937.43,559.47z"/>
			<path class="st10" d="M937.43,567.26c0,0,9.18,1.33,11.64,3.98c2.46,2.66,0,5.72,0,5.72s-22.87,2.25-24.7,0
				C922.53,574.7,930.49,568.79,937.43,567.26z"/>
			<path class="st17" d="M974.35,373.8c0,0-0.48-6.14,2.46-4.02c4.38,3.15,4.64,18.28,0.19,20.4c0,0-1.9,0.82-2.92-4.45
				c0,0,2.57-0.02,2.54-1.29C976.6,383.17,977.21,374.74,974.35,373.8z"/>
			<path class="st18" d="M943.23,225.44c0,0,4.96,6.2,18.42,10.3c13.1,3.99-19.63-0.34-27.06-10.95L943.23,225.44z"/>
			<path class="st13" d="M972.43,365.85c0,0,4.5-4.98-15.81-4.98c-17.44,0-19.19,2.13-18.71,4.98
				C938.4,368.69,972.24,371.88,972.43,365.85z"/>
			<path class="st10" d="M971.35,365.08c1.55-2.54-23.66-4.68-32.07-0.58C933.11,367.5,965.73,374.35,971.35,365.08z"/>
			<path class="st13" d="M971.04,364.42c-10.05,4.11-20.3,4.12-31.29,0.09c-5.05-1.85,0.3,19.85,7.41,22
				c5.04,1.1,11.76,1.07,17.78-0.36C970.61,384.82,976.08,362.36,971.04,364.42z"/>
			<path class="st12" d="M977.93,372.25c-2.92-0.73-12.87,4.71-15.76,7.99c-1.69,1.91-0.62,8.1,5.5,7.12
				c8.82-1.43,11.98-2.36,12.56-4.27C980.64,381.69,979.75,372.71,977.93,372.25z"/>
			<path class="st12" d="M927.49,386.16c2.28,1.96,13.62,1.54,17.67-0.09c2.36-0.96,4.18-6.97-1.74-8.82
				c-8.52-2.68-11.77-3.25-13.14-1.8C929.28,376.49,926.07,384.93,927.49,386.16z"/>
			<path class="st6" d="M462.69,211.67c4.96,0,26.25,1.24,36.38,1.24c8.68,0,16.22,1.49,3.32,2.48
				C486.26,216.63,456.49,211.67,462.69,211.67z"/>
			<path class="st6" d="M497.14,260.15c4.85,1.07,25.37,6.85,35.27,9.02c8.48,1.86,15.52,4.94,2.71,3.14
				C519.1,270.06,491.08,258.82,497.14,260.15z"/>
			<path class="st6" d="M517.46,165.47c-0.77,5.62-2.83,29.89-4.4,41.36c-1.34,9.83-1.04,18.57,1.94,4.09
				C518.72,192.84,518.42,158.45,517.46,165.47z"/>
			<path class="st6" d="M456.27,147.77c2.48-1.24,51.28,61.41,73.2,88.71c0,4.76-1.12,11.91-5.58,2.48
				C518.3,227.18,454.52,148.65,456.27,147.77z"/>
			<path class="st6" d="M813.86,368.87c-0.98,4.86-6.42,25.48-8.43,35.41c-1.72,8.51-4.68,15.6-3.09,2.76
				C804.32,390.99,815.09,362.79,813.86,368.87z"/>
			<path class="st6" d="M848.28,431.71c-5.36-1.87-28.74-8.71-39.67-12.52c-9.37-3.27-17.99-4.7-4.4,1.09
				C821.2,427.53,854.97,434.04,848.28,431.71z"/>
			<path class="st6" d="M877.76,375.25c0.72,2.68-67.4,36.85-98.5,52.92c0,0-1.19-5.11,0-5.58
				C791.66,417.63,877.25,373.36,877.76,375.25z"/>
			<path class="st6" d="M472.64,352.44c2.41-2.51,13.56-12.46,18.47-17.58c4.21-4.39,8.86-7.24,3.26-0.09
				C487.37,343.71,469.63,355.57,472.64,352.44z"/>
			<path class="st6" d="M502.21,361.25c3.87-2.58,20.93-14.19,28.82-19.46c6.77-4.52,13.22-6.34,3.55,0.96
				C522.5,351.87,497.37,364.48,502.21,361.25z"/>
			<path class="st6" d="M475.87,302.38c2.47,3.11,13.72,15.93,18.75,22.28c4.31,5.45,10.12,9.53,4.25,1
				C491.54,315.01,472.79,298.49,475.87,302.38z"/>
			<path class="st6" d="M503.61,298.64c2.33,3.86,13.47,19.76,18.24,27.65c4.08,6.76,8.98,11.82,3.81,1.23
				C519.2,314.27,500.7,293.81,503.61,298.64z"/>
			<path class="st6" d="M437.26,324.7c0.58-1.85,69.66,5.15,94.07,7.32c2.4,2.31,4.96,4.34-15.23,2.76
				C507,334.06,436.85,326.01,437.26,324.7z"/>
			<path class="st6" d="M456.09,467.95c4.09-2.21,22.37-10.34,30.73-14.85c7.16-3.87,14.25-5.61,4.19,1.22
				C478.44,462.84,450.98,470.71,456.09,467.95z"/>
			<path class="st6" d="M490.18,491.27c5.98-1.71,32.48-9.52,44.69-13.02c10.47-3,19.43-2.68,4.13,2.67
				C519.88,487.6,482.7,493.41,490.18,491.27z"/>
			<path class="st6" d="M480.68,405.47c1.87,4.98,10.98,25.91,14.79,36.07c3.27,8.71,9,16.28,5.01,3.02
				C495.49,427.97,478.34,399.25,480.68,405.47z"/>
			<path class="st6" d="M517.57,412.04c1.4,5.88,9.09,30.69,11.94,42.7c2.44,10.29,6.61,18.73,4.36,3.12
				C531.04,438.34,515.83,404.69,517.57,412.04z"/>
			<path class="st6" d="M422.35,418.12c1.49-2.13,94.27,38.24,124.49,50.99c2.12,3.92-3.04,4.37-28.13-5.91
				C507.4,458.57,421.29,419.63,422.35,418.12z"/>
		</g>
	</g>
	<path class="st4" d="M813.59,631.02c41.45,0,75.06-4.72,75.06-10.55c0-5.82-33.61-10.55-75.06-10.55
		c-41.45,0-75.06,4.72-75.06,10.55C738.52,626.3,772.13,631.02,813.59,631.02z"/>
	<path class="st6" d="M879.28,218.04c-4.27-0.14-22.65,0.68-31.38,0.39c-7.48-0.24-14.02,1.24-2.95,2.72
		C858.79,223.02,884.62,218.22,879.28,218.04z"/>
	<path class="st6" d="M865.87,248.56c-6.41,0.59-34.86,3.02-47.95,4.22c-11.21,1.04-19.76,4.39-3.02,3.7
		C835.83,255.63,873.88,247.82,865.87,248.56z"/>
	<path class="st6" d="M833.4,176.73c0.5,4.86,1.61,25.82,2.64,35.75c0.88,8.51-0.72,17.09-2.88,4.54
		C830.45,201.33,832.77,170.66,833.4,176.73z"/>
	<path class="st6" d="M804.9,193.68c1.27,5.41,5.97,32.59,8.55,43.63c2.22,9.47,2.25,18.13-2.3,4.35
		C805.46,224.46,803.32,186.92,804.9,193.68z"/>
	<path class="st6" d="M886.79,155.84c-6.2,4.96-64.06,79.64-88.09,105.46c-0.13,4.1,10.69-2.7,27.12-21.45
		C833.22,231.39,888.11,154.78,886.79,155.84z"/>
</g>
<g id="Ebene_1">
	<g id="Ebene_2">
	</g>
	<g>
		<circle class="st24" cx="187.9" cy="363.37" r="90.18"/>
		<path class="st10" d="M211.99,263.15c0,0,3.2,12.62-4.46,18.16c-7.65,5.54-12.67,6.86-12.67,8.71c0-6.86-1.45-29.9-0.72-29.2
			C194.88,261.51,211.99,263.15,211.99,263.15z"/>
		<path class="st12" d="M161.08,264.41c0,0-8.98,25.87,16.36,27.98c-0.53,9.5,0,12.67,0,12.67s14.78,7.92,17.42-3.69
			c0-14.78,0-20.06,0-20.06s14.78-6.34,2.11-16.89C177.45,264.41,161.08,264.41,161.08,264.41z"/>
		<path class="st13" d="M163.19,252.27c0,0-1.76-21.17,24.42-21.25c25.05-0.08,26.36,25.79,24.38,32.12
			c-3.96,1.19-16.87,1.41-16.87,1.41S176,252.54,163.19,252.27z"/>
		<path class="st13" d="M196.98,264.41c0,0-49.62,4.22-53.85-3.17c-4.22-7.39,14.25-8.44,20.06-8.97
			C169,251.74,192.08,254.43,196.98,264.41z"/>
		<path class="st26" d="M177.45,292.39c0,0,8.98-1.59,13.2-6.34c-1.58,4.75-13.36,9.77-13.36,9.77L177.45,292.39z"/>
		<path class="st11" d="M194.87,301.37c0,0,5.91-0.37,8.43,7.35c-1.44,5.35-9.36,8.12-17.27,8.02c-11.13-0.14-17.28-4.15-18.22-8.04
			c-0.65-2.68,7.09-8.26,9.49-5.45C177.45,305.06,189.85,309.16,194.87,301.37z"/>
		<path class="st28" d="M163.17,316.75c0,0,11.95,9.7,24.73,8.11C177.71,328.82,169.22,326.85,163.17,316.75z"/>
		<path class="st18" d="M163.19,252.27c0,0,7.83,6.64,25.93,8.53c17.61,1.83-24.99,4.43-37.07-7.2L163.19,252.27z"/>
		<g>
			<path class="st64" d="M217.59,374.73c0,0,7.76,33.28-1.75,48.05c-3.58,5.56-5.79,10.27-7.08,14.25
				c3.73-6.04,23.17-15.22,18.49-34.34C224.41,391.02,217.59,374.73,217.59,374.73z"/>
			<path class="st64" d="M145.35,358.03c-0.04-0.12-0.08-0.23-0.12-0.33C145.27,357.81,145.31,357.91,145.35,358.03z"/>
			<path class="st64" d="M145.11,357.36c-0.09-0.24-0.15-0.42-0.19-0.52C144.96,356.95,145.02,357.13,145.11,357.36z"/>
			<path class="st64" d="M114.74,392.21c13.05-32.95,15.8-60.69,25.6-70.47c9.8-9.79,28.88-11.45,28.69-11.4
				c-0.2,0.05,16.11,12.25,34.65,0.28c0,0,28.01,6.07,34.85,16.92s14.57,25.21,24.4,53.43c1.97,5.64,4.47,14.8,4.36,25.22
				c6.88-12.74,10.79-27.32,10.79-42.81c0-49.8-40.37-90.18-90.18-90.18c-49.8,0-90.18,40.37-90.18,90.18
				c0,16.99,4.7,32.88,12.87,46.45C111.07,404.12,112.36,398.22,114.74,392.21z"/>
			<path class="st64" d="M144.88,356.74C144.85,356.66,144.85,356.66,144.88,356.74L144.88,356.74z"/>
			<path class="st64" d="M147.73,364.5c-0.53-1.44-0.96-2.62-1.33-3.62C147.08,362.73,147.73,364.5,147.73,364.5z"/>
			<path class="st64" d="M146,359.8c-0.1-0.26-0.19-0.51-0.27-0.73C145.82,359.31,145.91,359.55,146,359.8z"/>
			<path class="st64" d="M147.73,364.5c0,0-1.1,30-6,46.81c-3.26,11.19-4.52,19.05-2.12,28.23c1.48,0.94,3,1.84,4.54,2.7
				c-1.1-2.98-1.8-6.47-1.74-10.52C142.65,414.81,154.19,382.12,147.73,364.5z"/>
			<path class="st11" d="M238.52,327.53c-6.84-10.85-34.85-16.92-34.85-16.92c-18.54,11.97-34.85-0.23-34.65-0.28
				c0.2-0.05-18.88,1.61-28.69,11.4c-9.8,9.79-12.55,37.52-25.6,70.47c-2.38,6.01-3.67,11.91-4.15,17.61
				c7.24,12.01,17.19,22.2,29.02,29.72c-2.4-9.18-1.15-17.04,2.12-28.23c4.9-16.81,6-46.81,6-46.81s-0.65-1.77-1.33-3.62
				c0.37,1,0.8,2.18,1.33,3.62c6.46,17.62-5.08,50.31-5.32,67.22c-0.06,4.05,0.65,7.54,1.74,10.52
				c12.96,7.2,27.87,11.31,43.75,11.31c34.31,0,64.14-19.16,79.38-47.36c0.11-10.42-2.39-19.57-4.36-25.22
				C253.1,352.74,245.36,338.38,238.52,327.53z M145.73,359.07c0.08,0.23,0.17,0.47,0.27,0.73
				C145.91,359.55,145.82,359.31,145.73,359.07z M144.88,356.74C144.85,356.66,144.85,356.66,144.88,356.74L144.88,356.74z
				 M144.91,356.83c0.04,0.11,0.11,0.29,0.19,0.52C145.02,357.13,144.96,356.95,144.91,356.83z M145.23,357.7
				c0.04,0.1,0.08,0.21,0.12,0.33C145.31,357.91,145.27,357.81,145.23,357.7z M208.77,437.03c1.29-3.98,3.5-8.69,7.08-14.25
				c9.5-14.77,1.75-48.05,1.75-48.05s6.82,16.29,9.67,27.96C231.93,421.82,212.49,430.99,208.77,437.03z"/>
		</g>
	</g>
</g>
</svg>
