<?xml version="1.0" encoding="utf-8"?>
<!-- Generator: Adobe Illustrator 23.0.6, SVG Export Plug-In . SVG Version: 6.00 Build 0)  -->
<svg version="1.1" xmlns="http://www.w3.org/2000/svg" xmlns:xlink="http://www.w3.org/1999/xlink" x="0px" y="0px"
	 viewBox="0 0 724.91 674.24" style="enable-background:new 0 0 724.91 674.24;" xml:space="preserve">
<style type="text/css">
	.st0{opacity:0.37;fill:#D9E6E8;}
	.st1{clip-path:url(#SVGID_2_);}
	.st2{fill:#FFFFFF;}
	.st3{fill:#DBCDB5;}
	.st4{fill:#B2D3E5;}
	.st5{fill:#A6C726;}
	.st6{fill:#6E8EA1;}
	.st7{fill:#D8E9F3;}
	.st8{fill:#374750;}
	.st9{fill:#64121B;}
	.st10{fill:#262451;}
	.st11{fill:#821E33;}
	.st12{fill:#E0A596;}
	.st13{fill:#96C3DC;}
	.st14{opacity:0.6;fill:#F08371;enable-background:new    ;}
	.st15{opacity:0.6;fill:#2F1B42;enable-background:new    ;}
	.st16{opacity:0.6;fill:#A53447;enable-background:new    ;}
	.st17{opacity:0.6;fill:#902032;enable-background:new    ;}
	.st18{fill:#82AFC8;}
	.st19{clip-path:url(#SVGID_4_);}
	.st20{fill:#678596;}
	.st21{fill:none;stroke:#FFFFFF;stroke-width:4;stroke-miterlimit:10;}
	.st22{fill:none;stroke:#B2D3E5;stroke-width:3;}
	.st23{clip-path:url(#SVGID_6_);}
	.st24{fill:#61808F;}
	.st25{fill:#64121A;}
	.st26{opacity:0.6;fill:#F08371;}
	.st27{opacity:0.6;fill:#2F1B43;}
	.st28{opacity:0.6;fill:#A43446;}
	.st29{opacity:0.6;fill:#902032;}
	.st30{fill:#3D5663;}
	.st31{fill:#8EB6C7;}
	.st32{fill:#3C505A;}
	.st33{fill:#4F6976;}
	.st34{fill:#996663;}
	.st35{fill:#1F1430;}
	.st36{fill:#D29B8D;}
	.st37{fill:none;stroke:#823C37;stroke-width:1.5;stroke-linecap:round;stroke-miterlimit:10;}
	.st38{fill:#B0CFD6;}
	.st39{fill:#282451;}
	.st40{fill:#811E33;}
	.st41{fill:#64121C;}
	.st42{fill:#201630;}
	.st43{fill:#95C2DB;}
	.st44{fill:#81AEC7;}
	.st45{opacity:0.58;fill:#FFFFFF;}
	.st46{fill:#70ACCE;}
	.st47{fill:#ABCAD8;}
	.st48{fill:none;stroke:#263062;stroke-width:3;stroke-linecap:round;stroke-miterlimit:10;}
	.st49{fill:#C3D9E0;}
	.st50{opacity:0.64;}
	.st51{fill:none;stroke:#262451;stroke-width:3;stroke-linecap:round;stroke-miterlimit:10;}
	.st52{fill:none;stroke:#262451;stroke-width:3;stroke-linecap:round;stroke-miterlimit:10;stroke-dasharray:11.7706,11.7706;}
	.st53{fill:#EAE3C3;}
	.st54{fill:#C5D4D8;}
	.st55{fill:#BCB592;}
	.st56{fill:#8A9C9B;}
	.st57{fill:#A2BAB9;}
	.st58{fill:#E8EAEA;}
	.st59{fill:#75A6B7;}
	.st60{fill:#B3D4E1;}
	.st61{fill:#D0E4EA;}
	.st62{fill:#62818F;}
	.st63{fill:#E3F0F5;}
	.st64{fill:none;}
	.st65{fill:none;stroke:#62818F;stroke-width:6;stroke-miterlimit:10;}
</style>
<g id="Ebene_3">
</g>
<g id="Ebene_1">
	<path class="st10" d="M314.18,396.02c0,0-5.66-6.8-12.03-12.81c-6.37-6.02-14.15-20.88,0-32.2c14.15-11.32,35.08,7.25,35.08,7.25
		s-17.74,19.29-17.74,22.82S314.18,396.02,314.18,396.02z"/>
	<path class="st12" d="M346.39,366.22c0,0,9.91,30.43-14.86,30.43c-1.42,9.91-1.42,9.91-1.42,9.91s-8.49,7.85-16.99-0.68
		c2.12-19.85,2.59-22.91,2.59-22.91s-7.98-1.89-6.57-8.97s8.53-5.02,10.01-7.32C321.19,367.62,335.06,370.64,346.39,366.22z"/>
	<path class="st11" d="M330.11,406.56c0,0,25.48,5.66,28.31,14.15c2.83,8.49,15.57,44.59,15.57,44.59l32.7-28.62
		c0,0,7.64,1.6,12.6,10.51c-5.19,26.97-39.63,80.43-63.7,50.33c8.49,17.23,10.41,26.13,6.87,29.44s-79.06,2.04-79.06,2.04
		c-1.42-9.2,17.43-42.13,17.43-42.13s20.66,34.17,4.38,41.96c-9.2-3.54-27.35-3.92-27.35-3.92s-31.6-0.62-18.16-39.21
		c13.45-38.59,10.65-66.62,28.65-73.84c6.08-2.44,24.77-5.97,24.77-5.97S322.8,417.16,330.11,406.56z"/>
	<path class="st25" d="M355.59,497.52c0,0-6.88-33.1-4.25-57.46c0.47,25.48,9.98,62.85,9.98,62.85L355.59,497.52z"/>
	<path class="st25" d="M288.79,490.95c-4.46-6.86,14.89-34.85,16.42-46.88c-0.83,11.41-11.77,28.32-11.77,42.16
		c0,4.72,21.87,24.62,17.71,27.11C311.16,505.34,293.26,497.8,288.79,490.95z"/>
	<path class="st26" d="M331.52,396.65c0,0-5.66-3.54-10.97-7.08c3.54,5.66,10.51,10.3,10.51,10.3L331.52,396.65z"/>
	<path class="st13" d="M341.94,355.35c0,0,0.9-20.92-24.89-19.96c-24.67,0.92-24.94,26.45-22.74,32.61
		c3.95,1.01,16.67,0.72,16.67,0.72S329.35,356.12,341.94,355.35z"/>
	<path class="st13" d="M309.15,368.65c0,0,49.04,2.19,52.91-5.25c3.87-7.45-14.37-7.75-20.11-8.04
		C336.2,355.06,313.58,358.62,309.15,368.65z"/>
	<path class="st18" d="M341.94,355.35c0,0-7.45,6.85-25.2,9.42c-17.27,2.5,24.79,3.37,36.23-8.56L341.94,355.35z"/>
	<path class="st11" d="M312.49,403.21c0,0-5.11-0.32-7.29,6.36c1.24,4.62,8.09,7.02,14.93,6.93c9.62-0.12,14.94-3.58,15.75-6.95
		c0.56-2.31-6.12-7.14-8.2-4.71C327.54,406.4,316.82,409.94,312.49,403.21z"/>
	<path class="st25" d="M332.8,412.27c0,0-6.03,6.89-15.1,4.7C308.63,414.79,326.98,427.95,332.8,412.27z"/>
	<path class="st12" d="M406.69,436.67l5.31-6.91c0,0,3.2,0.25,7.28-1.26c5.76-2.13,14.28-5.81,17.04-1.66
		c4.72,7.08-19.17,17.22-19.17,17.22L406.69,436.67z"/>
	<path class="st10" d="M431.12,401.23c7.56-3.88-3.27-4.71-9.53-4.72c-4.71-0.01-16.59,0.77-9.41,4.88
		C418.37,404.92,428.61,402.51,431.12,401.23z"/>
	<path class="st13" d="M410.72,398.03c-3.08-1.78,2.08,34.67,4.35,35.36c3.65,1.12,10.33,1.52,13.98,0
		c2.47-1.03,6.17-36.33,4.31-35.35C427.32,401.18,415.18,400.6,410.72,398.03z"/>
	<g id="Ebene_2">
		<path class="st46" d="M350.35,521.34h129.44c3.61,0,4.72-2.93,4.72-6.54l0,0h-140.7l0,0
			C343.81,518.42,346.74,521.34,350.35,521.34z"/>
		<path class="st46" d="M342.84,514.81h45.88c0,3.61-3.32,6.54-7.43,6.54h-30.07c-0.04,0-8.54,0-8.58,0
			C338.41,521.28,338.61,514.81,342.84,514.81z"/>
		<path class="st47" d="M391.58,516.71h92.92c2.76,0,5.13-1.96,5.64-4.67l12.53-53.74c0.67-3.54-2.04-6.82-5.64-6.82h-92.92
			c-2.76,0-5.13,1.96-5.65,4.68l-12.52,53.74C385.27,513.43,387.98,516.71,391.58,516.71z"/>
		<path class="st46" d="M398.46,456.15c0.28-1.49,1.13-2.75,2.29-3.59c1.74,1.25,2.73,3.43,2.29,5.73l-12.52,53.74
			c-0.28,1.49-1.13,2.75-2.29,3.59c-1.74-1.25-2.73-3.43-2.3-5.73L398.46,456.15z"/>
		<g>
			<path class="st2" d="M456.91,490.95h-15.24c-3.13,0-5.66-2.53-5.66-5.66l0,0c0-3.13,2.53-5.66,5.66-5.66h15.24
				c3.13,0,5.66,2.53,5.66,5.66l0,0C462.57,488.41,460.03,490.95,456.91,490.95z"/>
		</g>
		<g>
			<path class="st13" d="M356.69,516.61h-4.57c-0.9,0-1.63-0.73-1.63-1.63l0,0c0-0.9,0.73-1.63,1.63-1.63h4.57
				c0.9,0,1.63,0.73,1.63,1.63l0,0C358.33,515.88,357.59,516.61,356.69,516.61z"/>
			<path class="st13" d="M365.62,516.61h-4.57c-0.9,0-1.63-0.73-1.63-1.63l0,0c0-0.9,0.73-1.63,1.63-1.63h4.57
				c0.9,0,1.63,0.73,1.63,1.63l0,0C367.25,515.88,366.52,516.61,365.62,516.61z"/>
			<path class="st13" d="M374.54,516.61h-4.57c-0.9,0-1.63-0.73-1.63-1.63l0,0c0-0.9,0.73-1.63,1.63-1.63h4.57
				c0.9,0,1.63,0.73,1.63,1.63l0,0C376.18,515.88,375.45,516.61,374.54,516.61z"/>
			<path class="st13" d="M383.47,516.61h-4.57c-0.9,0-1.63-0.73-1.63-1.63l0,0c0-0.9,0.73-1.63,1.63-1.63h4.57
				c0.9,0,1.63,0.73,1.63,1.63l0,0C385.1,515.88,384.37,516.61,383.47,516.61z"/>
		</g>
		<path class="st10" d="M553.79,528.83h-391c-2.16,0-3.92-1.75-3.92-3.92l0,0c0-2.16,1.75-3.92,3.92-3.92h391
			c2.16,0,3.92,1.75,3.92,3.92l0,0C557.71,527.07,555.95,528.83,553.79,528.83z"/>
		<path class="st48" d="M215.34,489.27c0,0-3.74-28.11-10.52-35.02"/>
		<path class="st38" d="M205.91,437.52c1.81,5.99,1.44,11.4-0.83,12.09s-5.57-3.62-7.38-9.61c-0.02-0.06-0.04-0.12-0.05-0.18
			c-1.53-5.34,6.53-7.77,8.2-2.48C205.88,437.4,205.9,437.46,205.91,437.52z"/>
		<g>
			<path class="st38" d="M216.67,450.9c-5.99,1.81-11.4,1.44-12.09-0.83c-0.68-2.27,3.62-5.57,9.61-7.38
				c0.06-0.02,0.12-0.04,0.18-0.05c5.34-1.53,7.77,6.53,2.48,8.21C216.79,450.87,216.73,450.89,216.67,450.9z"/>
			<path class="st38" d="M196.17,457.1c5.99-1.81,10.29-5.11,9.61-7.38c-0.68-2.27-6.1-2.64-12.09-0.83
				c-0.06,0.02-0.12,0.04-0.18,0.06c-5.29,1.68-2.86,9.74,2.48,8.21C196.05,457.13,196.11,457.12,196.17,457.1z"/>
		</g>
		<g>
			<path class="st38" d="M206.25,463.91c1.68-6.03,1.2-11.43-1.08-12.07c-2.28-0.64-5.49,3.73-7.18,9.76
				c-0.02,0.06-0.03,0.12-0.05,0.18c-1.42,5.37,6.69,7.63,8.26,2.31C206.22,464.03,206.24,463.97,206.25,463.91z"/>
			<path class="st38" d="M212.04,462.16c-4.74-4.09-7.33-8.85-5.78-10.65c1.55-1.79,6.64,0.07,11.38,4.15
				c0.05,0.04,0.09,0.08,0.14,0.12c4.16,3.68-1.34,10.06-5.6,6.49C212.13,462.24,212.09,462.2,212.04,462.16z"/>
		</g>
		<path class="st10" d="M207.91,450.39c0.47,1.55-0.41,3.18-1.96,3.65c-1.55,0.47-3.18-0.41-3.65-1.96
			c-0.47-1.55,0.41-3.18,1.96-3.65C205.81,447.96,207.44,448.84,207.91,450.39z"/>
		<g>
			<path class="st24" d="M204.29,471.2c7.78,6.13,12.21,13.49,9.89,16.44c-2.32,2.94-10.51,0.36-18.29-5.77
				c-7.78-6.13-9.89-16.44-9.89-16.44S196.5,465.06,204.29,471.2z"/>
			<path class="st24" d="M231.63,480.48c-8.22,7.72-17.24,11.45-20.16,8.34s1.38-11.88,9.59-19.6c8.22-7.72,20.16-8.34,20.16-8.34
				S239.84,472.76,231.63,480.48z"/>
		</g>
		<g>
			<polygon class="st10" points="225.59,522.3 198.7,522.3 194,488.47 230.29,488.47 			"/>
			<path class="st10" d="M232.14,497.15h-39.99c-0.81,0-1.47-0.66-1.47-1.47v-9.64c0-0.81,0.66-1.47,1.47-1.47h39.99
				c0.81,0,1.47,0.66,1.47,1.47v9.64C233.61,496.49,232.95,497.15,232.14,497.15z"/>
		</g>
		<polygon class="st10" points="286.33,121.63 298.21,130.85 370.15,86.18 		"/>
		<polygon class="st24" points="284.13,85.23 278.37,97.96 285.35,108.39 274.11,112.23 267.52,136.3 372.5,85.03 		"/>
		<polygon class="st10" points="285.35,108.39 278.37,97.96 338.61,91.08 		"/>
		<path class="st24" d="M493.25,221.96h83.78c10.47,0,18.96,8.49,18.96,18.96v43.21c0,10.47-8.49,18.96-18.96,18.96h-54.79
			l-19.71,17.39V303.1h-9.29c-10.47,0-18.96-8.49-18.96-18.96v-43.21C474.29,230.45,482.78,221.96,493.25,221.96z"/>
		<g>
			<g>
				<path class="st38" d="M505.44,248.71h59.41c1.31,0,2.38-1.06,2.38-2.38c0-1.31-1.06-2.38-2.38-2.38h-59.41
					c-1.31,0-2.38,1.06-2.38,2.38C503.06,247.64,504.13,248.71,505.44,248.71z"/>
			</g>
			<g>
				<path class="st38" d="M505.44,264.55h59.41c1.31,0,2.38-1.06,2.38-2.38s-1.06-2.38-2.38-2.38h-59.41
					c-1.31,0-2.38,1.06-2.38,2.38S504.13,264.55,505.44,264.55z"/>
			</g>
			<g>
				<path class="st38" d="M556.13,280.39h8.71c1.31,0,2.38-1.06,2.38-2.38s-1.06-2.38-2.38-2.38h-8.71c-1.31,0-2.38,1.06-2.38,2.38
					S554.82,280.39,556.13,280.39z"/>
			</g>
			<g>
				<path class="st38" d="M536.33,280.39h8.71c1.31,0,2.38-1.06,2.38-2.38s-1.06-2.38-2.38-2.38h-8.71c-1.31,0-2.38,1.06-2.38,2.38
					S535.02,280.39,536.33,280.39z"/>
			</g>
			<g>
				<path class="st38" d="M505.44,280.39h19.8c1.31,0,2.38-1.06,2.38-2.38s-1.06-2.38-2.38-2.38h-19.8c-1.31,0-2.38,1.06-2.38,2.38
					S504.13,280.39,505.44,280.39z"/>
			</g>
		</g>
		<path class="st24" d="M467.25,308.26h-64.13c-6.31,0-11.42,5.11-11.42,11.42v36.98c0,6.03,4.67,10.95,10.58,11.38l-13.22,21.67
			l34.85-21.63h43.34c6.31,0,11.42-5.11,11.42-11.42v-36.98C478.67,313.37,473.56,308.26,467.25,308.26z"/>
		<g>
			
				<ellipse transform="matrix(0.7071 -0.7071 0.7071 0.7071 -105.3172 404.1396)" class="st38" cx="435.18" cy="329.2" rx="7.59" ry="7.59"/>
			<path class="st38" d="M453.13,354.74h-35.89l0,0c0-6.35,5.15-11.5,11.5-11.5h12.89C447.98,343.23,453.13,348.39,453.13,354.74
				L453.13,354.74z"/>
		</g>
		<g>
			<path class="st10" d="M358.33,300.16c-2.12,0-4.25-0.22-6.32-0.64c-0.85-0.18-1.39-1.01-1.22-1.85c0.18-0.85,1.02-1.37,1.85-1.22
				c3.22,0.67,6.62,0.76,9.84,0.27c0.86-0.12,1.65,0.46,1.78,1.32c0.13,0.86-0.46,1.65-1.32,1.78
				C361.43,300.04,359.88,300.16,358.33,300.16z M372.55,296.5c-0.55,0-1.09-0.29-1.38-0.81c-0.42-0.76-0.14-1.71,0.61-2.13
				c2.9-1.6,5.46-3.69,7.64-6.21c0.56-0.66,1.56-0.73,2.21-0.16c0.66,0.56,0.73,1.55,0.16,2.21c-2.41,2.8-5.27,5.12-8.49,6.91
				C373.07,296.43,372.81,296.5,372.55,296.5z M342.68,295.65c-0.28,0-0.57-0.08-0.83-0.24c-3.12-1.96-5.84-4.44-8.09-7.37
				c-0.53-0.69-0.4-1.67,0.29-2.2c0.69-0.53,1.67-0.4,2.2,0.29c2.03,2.63,4.47,4.86,7.28,6.63c0.73,0.46,0.95,1.43,0.49,2.16
				C343.71,295.4,343.2,295.65,342.68,295.65z M385.9,280.99c-0.18,0-0.36-0.03-0.55-0.1c-0.81-0.3-1.22-1.2-0.92-2.02
				c1.15-3.09,1.73-6.35,1.73-9.68c0-0.86,0.7-1.57,1.57-1.57c0.86,0,1.57,0.7,1.57,1.57c0,3.71-0.65,7.33-1.93,10.78
				C387.13,280.59,386.54,280.99,385.9,280.99z M330.22,279.43c-0.67,0-1.29-0.43-1.5-1.11c-0.91-2.95-1.37-6.02-1.37-9.13
				c0-0.58,0.02-1.16,0.05-1.73c0.05-0.86,0.83-1.51,1.65-1.47c0.86,0.05,1.53,0.79,1.47,1.65c-0.03,0.51-0.04,1.03-0.04,1.55
				c0,2.8,0.42,5.57,1.23,8.21c0.26,0.83-0.21,1.7-1.04,1.96C330.53,279.41,330.38,279.43,330.22,279.43z M386.87,263.66
				c-0.7,0-1.34-0.48-1.52-1.19c-0.8-3.22-2.15-6.24-4.03-8.98c-0.49-0.71-0.31-1.69,0.41-2.18c0.71-0.49,1.69-0.31,2.18,0.41
				c2.09,3.05,3.59,6.41,4.48,9.99c0.21,0.84-0.3,1.69-1.14,1.9C387.12,263.65,386.99,263.66,386.87,263.66z M331.37,259
				c-0.21,0-0.42-0.04-0.63-0.13c-0.79-0.35-1.16-1.27-0.81-2.06c1.47-3.38,3.52-6.44,6.09-9.1c0.6-0.63,1.59-0.64,2.21-0.04
				c0.62,0.6,0.64,1.59,0.04,2.21c-2.31,2.39-4.15,5.14-5.47,8.18C332.55,258.65,331.97,259,331.37,259z M375.32,246.76
				c-0.31,0-0.63-0.09-0.91-0.29c-2.7-1.92-5.7-3.33-8.9-4.18c-0.84-0.22-1.33-1.08-1.11-1.92c0.23-0.83,1.08-1.33,1.92-1.11
				c3.57,0.95,6.9,2.52,9.91,4.66c0.71,0.5,0.87,1.48,0.37,2.19C376.3,246.54,375.82,246.76,375.32,246.76z M345.56,244.26
				c-0.58,0-1.14-0.33-1.41-0.89c-0.38-0.78-0.05-1.72,0.73-2.09c3.32-1.6,6.87-2.59,10.55-2.93c0.83-0.08,1.63,0.55,1.71,1.42
				c0.08,0.86-0.55,1.63-1.42,1.71c-3.31,0.31-6.5,1.19-9.48,2.63C346.02,244.21,345.79,244.26,345.56,244.26z"/>
		</g>
		<g>
			<path class="st24" d="M358.33,254.3c-11.35,0-20.55,6.08-20.55,13.58c0,0.01,0,0.03,0,0.04c0.01,1.96,1.55,3.3,3,2.68l5.39-2.3
				c1.3-0.55,1.93-2.44,1.34-4.04l-0.66-1.81c0,0,9.91,1.77,22.87,0l-0.67,2.32c-0.42,1.47,0.13,3.11,1.25,3.72l5.33,2.91
				c1.3,0.71,2.81-0.24,3.11-2.01c0.08-0.5,0.13-1,0.13-1.52C378.87,260.38,369.67,254.3,358.33,254.3z"/>
			<path class="st38" d="M372.56,284.08h-28.48l4.22-13.22c0.79-2.48,3.09-4.16,5.7-4.16h8.65c2.6,0,4.91,1.68,5.7,4.16
				L372.56,284.08z"/>
		</g>
		<g>
			<path class="st10" d="M541.92,399.45c-2.13,0-4.26-0.22-6.33-0.65c-0.85-0.18-1.39-1.01-1.22-1.85c0.18-0.85,1.02-1.38,1.85-1.22
				c3.21,0.67,6.63,0.76,9.84,0.27c0.86-0.12,1.65,0.46,1.78,1.32c0.13,0.86-0.46,1.65-1.32,1.78
				C545.03,399.33,543.47,399.45,541.92,399.45z M556.14,395.79c-0.55,0-1.09-0.29-1.37-0.81c-0.42-0.76-0.15-1.71,0.61-2.13
				c2.9-1.61,5.47-3.7,7.64-6.21c0.56-0.66,1.55-0.73,2.21-0.16c0.66,0.56,0.73,1.55,0.16,2.21c-2.41,2.8-5.27,5.12-8.49,6.91
				C556.66,395.73,556.4,395.79,556.14,395.79z M526.27,394.95c-0.28,0-0.57-0.08-0.83-0.24c-3.12-1.96-5.84-4.44-8.09-7.37
				c-0.53-0.69-0.4-1.67,0.29-2.2c0.69-0.53,1.67-0.4,2.2,0.29c2.02,2.63,4.47,4.86,7.27,6.63c0.73,0.46,0.95,1.43,0.49,2.16
				C527.3,394.69,526.79,394.95,526.27,394.95z M569.49,380.28c-0.18,0-0.36-0.03-0.55-0.1c-0.81-0.3-1.22-1.2-0.92-2.02
				c1.15-3.09,1.73-6.35,1.73-9.68c0-0.86,0.7-1.57,1.57-1.57c0.86,0,1.57,0.7,1.57,1.57c0,3.71-0.65,7.33-1.93,10.78
				C570.72,379.89,570.13,380.28,569.49,380.28z M513.81,378.72c-0.67,0-1.29-0.43-1.5-1.11c-0.91-2.95-1.37-6.02-1.37-9.13
				c0-0.58,0.02-1.16,0.05-1.73c0.05-0.86,0.9-1.52,1.65-1.48c0.86,0.05,1.53,0.79,1.48,1.65c-0.03,0.52-0.04,1.04-0.04,1.56
				c0,2.8,0.41,5.56,1.23,8.21c0.26,0.83-0.21,1.7-1.04,1.96C514.12,378.7,513.96,378.72,513.81,378.72z M570.46,362.96
				c-0.7,0-1.34-0.48-1.52-1.19c-0.8-3.21-2.15-6.23-4.03-8.97c-0.49-0.71-0.31-1.69,0.41-2.18c0.71-0.49,1.69-0.31,2.18,0.41
				c2.09,3.05,3.59,6.41,4.48,9.99c0.21,0.84-0.3,1.69-1.14,1.9C570.71,362.94,570.58,362.96,570.46,362.96z M514.96,358.29
				c-0.21,0-0.42-0.04-0.63-0.13c-0.79-0.35-1.16-1.27-0.81-2.06c1.48-3.38,3.53-6.44,6.09-9.1c0.6-0.63,1.59-0.64,2.21-0.04
				c0.62,0.6,0.64,1.59,0.04,2.21c-2.3,2.39-4.15,5.14-5.47,8.18C516.14,357.94,515.56,358.29,514.96,358.29z M558.92,346.06
				c-0.31,0-0.63-0.09-0.91-0.29c-2.71-1.93-5.7-3.33-8.9-4.19c-0.84-0.22-1.33-1.08-1.11-1.92c0.22-0.83,1.08-1.32,1.92-1.11
				c3.56,0.95,6.9,2.52,9.91,4.66c0.71,0.5,0.87,1.48,0.37,2.19C559.89,345.84,559.41,346.06,558.92,346.06z M529.15,343.55
				c-0.58,0-1.14-0.33-1.41-0.89c-0.38-0.78-0.05-1.72,0.73-2.09c3.32-1.6,6.87-2.59,10.55-2.93c0.88-0.08,1.63,0.56,1.71,1.42
				c0.08,0.86-0.56,1.63-1.42,1.71c-3.31,0.31-6.5,1.19-9.48,2.63C529.61,343.5,529.38,343.55,529.15,343.55z"/>
		</g>
		<rect x="523.45" y="362.91" class="st10" width="36.45" height="20.67"/>
		<path class="st49" d="M554.97,358.69v21.48h-24.85v-21.48c0-1.86,1.51-3.37,3.37-3.37h24.57l-0.68,0.14
			C555.98,355.87,554.97,357.16,554.97,358.69z"/>
		<polygon class="st31" points="550.94,383.58 523.45,383.58 523.45,362.91 		"/>
		<polygon class="st31" points="532.4,383.58 559.9,383.58 559.9,362.91 		"/>
		<path class="st31" d="M559.9,383.58h-18.23h-18.23l16.37-8.74c1.12-0.77,2.59-0.77,3.71,0L559.9,383.58z"/>
		<g class="st50">
			<g>
				<path class="st51" d="M232.84,336.65c0,0-2.22,0.35-5.97,0.59"/>
				<path class="st52" d="M215.11,337.4c-26.03-0.95-71.86-11.29-74.74-71.77c-5.1-106.94-92.72-145.82-92.72-86.29
					c0,27.49,29.87,39.08,80.6,14.5c31.58-15.3,73.46-57.12,113.53-74.29"/>
				<path class="st51" d="M247.27,117.37c1.9-0.71,3.79-1.35,5.68-1.93"/>
			</g>
		</g>
	</g>
</g>
</svg>
