<svg id="Ebene_1" data-name="Ebene 1" xmlns="http://www.w3.org/2000/svg" viewBox="0 0 541.32 346.35"><defs><style>.cls-1{fill:#1e1955;}</style></defs><title>Rephil_03_final_RGB</title><path class="cls-1" d="M555.48,145.26C529.52,114,471,109.62,436,107c-4.39-.33-84.72-3.91-140.16-4.17-1.89-.07-4.3-.09-6.22,0-2.36,0-10.34.38-13.91,3.75-5.89,5.57-6.85,20.71-6.85,20.71,1.41,1.82,3.6,3.09,21.65,3.09,1.67,0,3.5,0,5.41,0,52.35.27,134.2,3.82,138.19,4.12,28.64,2.15,81.94,6.15,100.52,28.52,5.06,6.08,7.1,13.35,6.26,22.22-1,10.37-7,16.23-14.59,23.66-7.24,7.07-15.44,15.08-20,27.68-1.87,5.16-3.33,10.34-4.76,15.41-1.09,3.88-2.13,7.56-3.34,11.15-19.29,57.4-55.91,102.22-103.11,126.19-9,4.58-45.37,9.21-97.46,9.21s-88.45-4.65-97.47-9.24c-47.16-24-83.76-68.79-103-126.15-1.21-3.62-2.24-7.3-3.38-11.34-1.4-4.95-2.84-10.07-4.72-15.24-4.57-12.59-12.77-20.6-20-27.68-7.59-7.42-13.59-13.28-14.59-23.65-.84-8.87,1.2-16.14,6.26-22.22,17.58-21.16,66.21-25.88,95.66-28.15l4.86-.37h.16l3.4-.26.47,10.67c.36,7.9,5.46,13.21,12.68,13.21h0a19,19,0,0,0,9.35-2.7l49.36-27.8c7.37-4.16,8.27-9.24,8.15-11.9s-1.48-7.64-9.2-11.1L183.87,81.36c-6.77-3-13.5-2.28-17.43,1.84-2.52,2.63-3.74,6.31-3.55,10.63l.43,10.46c0,.53,0,1.29.05,1.83l-11.31,1.43c-35.29,2.76-88,8.49-112.26,37.71-9.86,11.87-14.06,26.18-12.5,42.54,1.95,20.45,13.49,31.72,22.76,40.78,5.63,5.5,10.95,10.7,13.38,17.38,1.55,4.28,2.8,8.72,4.16,13.58,1.14,4,2.31,8.17,3.72,12.36,21.6,64.24,63,114.63,116.58,141.87,22.62,11.5,95.47,12.09,109.85,12.09s87-.58,109.55-12.05C460.92,386.57,502.35,336.17,524,271.9c1.43-4.26,2.67-8.64,3.76-12.52,1.33-4.72,2.58-9.18,4.12-13.42,2.43-6.68,7.75-11.88,13.39-17.39,9.26-9,20.8-20.32,22.75-40.77C569.54,171.44,565.34,157.13,555.48,145.26Z" transform="translate(-26.98 -79.51)"/><path class="cls-1" d="M194.48,220.85a23.27,23.27,0,0,1-2.54,12.62,25.06,25.06,0,0,1-8.13,9L180.53,244c.33.14.78.31,1.35.52a6.42,6.42,0,0,1,1.36.65,22.77,22.77,0,0,1,6,7,64.85,64.85,0,0,1,4,9q1.77,4.89,3.58,10.36a71.63,71.63,0,0,0,4.75,11.07l-17.58,1a49.61,49.61,0,0,1-3.95-9.55c-1-3.43-2.12-6.74-3.26-10a67.49,67.49,0,0,0-3.85-8.9,18.09,18.09,0,0,0-5.65-6.53A33.37,33.37,0,0,1,162,249a25.64,25.64,0,0,1-6-.81c.42-1.14.89-2.35,1.42-3.62a19.11,19.11,0,0,1,2-3.58,12.17,12.17,0,0,1,2.72-2.86,8.4,8.4,0,0,1,3.57-1.52,12.29,12.29,0,0,0,4.59-1.63,12.8,12.8,0,0,0,3.6-3.2,14.29,14.29,0,0,0,2.33-4.51,14.83,14.83,0,0,0,.66-5.44,12.63,12.63,0,0,0-1.64-5.66,14.36,14.36,0,0,0-3.78-4.35,16.08,16.08,0,0,0-5.43-2.7,19.56,19.56,0,0,0-6.58-.71c-1.11.06-2.05.13-2.81.21l-2.2.25c-.72.08-1.47.2-2.26.36s-1.7.32-2.73.45l4.21,75.6-17.23,1-4.78-85.88c3.15-.74,6-1.35,8.41-1.85s4.69-.9,6.71-1.21,4-.57,5.9-.75,3.94-.34,6.1-.46a48,48,0,0,1,13.37,1,34.69,34.69,0,0,1,11.18,4.6,25.17,25.17,0,0,1,7.82,8A23.41,23.41,0,0,1,194.48,220.85Z" transform="translate(-26.98 -79.51)"/><path class="cls-1" d="M248.5,243.61a14.59,14.59,0,0,0-.35-5.26,12.47,12.47,0,0,0-2.08-4.39,10.41,10.41,0,0,0-3.54-3,10,10,0,0,0-4.88-1,12.06,12.06,0,0,0-4.94,1.19,12.81,12.81,0,0,0-4.42,3.51,18,18,0,0,0-3.16,6.06,27.2,27.2,0,0,0-1.06,8.83q.24,10.43,5,16A15.06,15.06,0,0,0,241.45,271a33.07,33.07,0,0,0,8.18-1.2,56.42,56.42,0,0,0,9.2-3.62l4.44,11a56.08,56.08,0,0,1-12.06,4.65,52.8,52.8,0,0,1-11.28,1.51,31.23,31.23,0,0,1-14.27-2.68,30.16,30.16,0,0,1-10-7.51,31.31,31.31,0,0,1-6-10.59,40.78,40.78,0,0,1-2.12-12,34.18,34.18,0,0,1,2.16-13.35,28.43,28.43,0,0,1,6.48-10,29.39,29.39,0,0,1,9.87-6.39,34.57,34.57,0,0,1,12.16-2.43,27.76,27.76,0,0,1,12.16,2.36,22.83,22.83,0,0,1,9,7.11,23.69,23.69,0,0,1,4.39,11.11,32,32,0,0,1-1.55,14.23l-33.53.75a19.31,19.31,0,0,1,3.62-7.09,7.28,7.28,0,0,1,5.5-2.94Z" transform="translate(-26.98 -79.51)"/><path class="cls-1" d="M336.91,220a23.77,23.77,0,0,1-2.39,10.71,26,26,0,0,1-6.26,8.12,31.24,31.24,0,0,1-8.89,5.41A35.15,35.15,0,0,1,309,246.68a40.7,40.7,0,0,1-5.75,0,29.63,29.63,0,0,1-6.35-1.17c.49-1.12,1-2.29,1.63-3.53a17.6,17.6,0,0,1,2.18-3.4,12.76,12.76,0,0,1,2.88-2.62,8.22,8.22,0,0,1,3.66-1.31,11.27,11.27,0,0,0,4.68-1.47,13.88,13.88,0,0,0,3.79-3.22,15.72,15.72,0,0,0,2.6-4.6,16.18,16.18,0,0,0,1-5.51,14,14,0,0,0-4.57-10.56,16.83,16.83,0,0,0-5.25-3.26,18.56,18.56,0,0,0-6.76-1.22c-1.12,0-2.06,0-2.82,0l-2.22.11c-.72,0-1.48.11-2.27.23s-1.72.22-2.76.29l-.34,75.71-17.25-.08.38-86q4.8-.81,8.52-1.34t6.77-.81q3-.28,5.93-.39c1.92-.07,3.95-.1,6.11-.09a46,46,0,0,1,13.53,2,34.37,34.37,0,0,1,10.82,5.5,25.76,25.76,0,0,1,7.2,8.6A24,24,0,0,1,336.91,220Z" transform="translate(-26.98 -79.51)"/><path class="cls-1" d="M345.47,281.64l3.08-90.75,16.76.57-3.08,90.75ZM385.63,239a8.79,8.79,0,0,0-1.09-5,4.47,4.47,0,0,0-4-2.06,5.94,5.94,0,0,0-1.8.18,10.18,10.18,0,0,1-2.29.29,4.26,4.26,0,0,1-2.49-.63,8.21,8.21,0,0,1-2.16-1.87,19.16,19.16,0,0,1-1.83-2.64c-.56-1-1.11-2-1.63-3.17a38.65,38.65,0,0,1,10.27-4,35.48,35.48,0,0,1,7.63-.7,16.45,16.45,0,0,1,6.11,1.41,15.47,15.47,0,0,1,5.25,3.77,18,18,0,0,1,3.59,6.12,22.81,22.81,0,0,1,1.16,8.55l-1.5,44.18L384.14,283Z" transform="translate(-26.98 -79.51)"/><path class="cls-1" d="M412.61,284.29l3.63-61.83,16.75,1-3.64,61.82Zm3.25-79.85a9.93,9.93,0,0,1,3.23-6.95,9.83,9.83,0,0,1,14,.82,9.94,9.94,0,0,1,2.4,7.28,9.83,9.83,0,1,1-19.62-1.15Z" transform="translate(-26.98 -79.51)"/><path class="cls-1" d="M458.25,287.39l-16.72-1.29,7-90.54,16.73,1.29Z" transform="translate(-26.98 -79.51)"/></svg>